<svg width="512" height="512" viewBox="0 0 512 512" fill="none" xmlns="http://www.w3.org/2000/svg">
<mask id="mask0_2_681" style="mask-type:alpha" maskUnits="userSpaceOnUse" x="0" y="0" width="512" height="512">
<circle cx="256" cy="256" r="256" fill="#2C2C2C"/>
</mask>
<g mask="url(#mask0_2_681)">
<circle cx="256" cy="256" r="256" fill="#6F3FF5"/>
<path d="M409.252 167.183H106.177L104.812 154.192C101.742 124.971 120.913 98.103 149.276 91.8783L314.128 64.4941C362.147 53.9556 409.252 87.8262 409.252 137.578V167.183Z" fill="#92FAF3"/>
<path opacity="0.5" d="M389.362 139.681C385.678 139.682 382.257 137.324 381.073 133.626C372.879 108.029 346.869 93.026 320.539 98.7369C315.848 99.759 311.206 96.7709 310.185 92.0719C309.168 87.3712 312.151 82.7352 316.852 81.7165C351.991 74.1094 386.719 94.1366 397.658 128.317C399.124 132.897 396.6 137.798 392.019 139.264C391.138 139.546 390.243 139.681 389.362 139.681V139.681Z" fill="#50DEDE"/>
<path d="M125.388 236.485V288.73H107.973C94.3895 288.73 82.6518 280.962 76.9048 269.643C74.5015 264.906 73.1431 259.577 73.1431 253.9C73.1431 244.287 77.0442 235.579 83.3484 229.275C89.6178 222.971 98.3252 219.07 107.973 219.07C112.78 219.07 117.133 221.02 120.268 224.155C123.437 227.324 125.388 231.678 125.388 236.485Z" fill="#92FAF3"/>
<path d="M107.973 278.281C98.7432 278.281 90.4081 273.159 86.221 264.912C84.4778 261.473 83.5918 257.767 83.5918 253.9C83.5918 247.392 86.1292 241.271 90.7364 236.665C95.3265 232.05 101.44 229.519 107.973 229.519C109.832 229.519 111.575 230.238 112.881 231.543C114.207 232.871 114.939 234.626 114.939 236.485V278.281H107.973Z" fill="#50DEDE"/>
<path d="M386.612 236.485V288.73H404.027C417.611 288.73 429.348 280.962 435.095 269.643C437.499 264.906 438.857 259.577 438.857 253.9C438.857 244.287 434.956 235.579 428.652 229.275C422.382 222.971 413.675 219.07 404.027 219.07C399.221 219.07 394.867 221.02 391.732 224.155C388.563 227.324 386.612 231.678 386.612 236.485Z" fill="#92FAF3"/>
<path d="M404.028 278.281C413.258 278.281 421.593 273.159 425.78 264.912C427.523 261.473 428.409 257.767 428.409 253.9C428.409 247.392 425.872 241.271 421.264 236.665C416.674 232.05 410.56 229.519 404.028 229.519C402.169 229.519 400.426 230.238 399.12 231.543C397.793 232.871 397.062 234.626 397.062 236.485V278.281H404.028Z" fill="#50DEDE"/>
<path d="M105.942 166.827H408.963V323.561C408.963 342.785 393.356 358.391 374.133 358.391H140.772C121.549 358.391 105.942 342.785 105.942 323.561V166.827Z" fill="#92FAF3"/>
<path d="M393.682 358.391H121.225C111.607 358.391 103.81 366.188 103.81 375.806V389.464C103.81 399.082 111.607 406.879 121.225 406.879H393.682C403.3 406.879 411.097 399.082 411.097 389.464V375.806C411.097 366.188 403.3 358.391 393.682 358.391Z" fill="#00DEA5"/>
<path d="M407.613 375.918H407.613C390.531 375.918 376.684 389.766 376.684 406.847V418.411C376.684 435.493 390.531 449.34 407.613 449.34C424.694 449.34 438.542 435.493 438.542 418.411V406.847C438.542 389.766 424.694 375.918 407.613 375.918Z" fill="#6F3FF5"/>
<path d="M107.293 375.918H107.293C90.2111 375.918 76.3638 389.766 76.3638 406.847V418.411C76.3638 435.493 90.2111 449.34 107.293 449.34C124.374 449.34 138.222 435.493 138.222 418.411V406.847C138.222 389.766 124.374 375.918 107.293 375.918Z" fill="#6F3FF5"/>
<path opacity="0.2" d="M407.613 375.918H407.613C390.531 375.918 376.684 389.766 376.684 406.847V418.411C376.684 435.493 390.531 449.34 407.613 449.34C424.694 449.34 438.542 435.493 438.542 418.411V406.847C438.542 389.766 424.694 375.918 407.613 375.918Z" fill="#353535"/>
<path opacity="0.2" d="M107.293 375.918H107.293C90.2111 375.918 76.3638 389.766 76.3638 406.847V418.411C76.3638 435.493 90.2111 449.34 107.293 449.34C124.374 449.34 138.222 435.493 138.222 418.411V406.847C138.222 389.766 124.374 375.918 107.293 375.918Z" fill="#353535"/>
<path d="M393.682 406.879H121.225V486.686H393.682V406.879Z" fill="#6F3FF5"/>
<path opacity="0.2" d="M134.739 365.471H107.711C98.0928 365.471 90.2959 373.268 90.2959 382.886V421.477C90.2959 431.095 98.0928 438.892 107.711 438.892H134.739C144.357 438.892 152.154 431.095 152.154 421.477V382.886C152.154 373.268 144.357 365.471 134.739 365.471Z" fill="#353535"/>
<path opacity="0.2" d="M407.195 365.471H380.167C370.549 365.471 362.752 373.268 362.752 382.886V421.477C362.752 431.095 370.549 438.892 380.167 438.892H407.195C416.813 438.892 424.61 431.095 424.61 421.477V382.886C424.61 373.268 416.813 365.471 407.195 365.471Z" fill="#353535"/>
<path d="M122.222 330.899C115.9 330.899 110.775 336.024 110.775 342.345V365.238H133.668V342.345C133.668 336.024 128.543 330.899 122.222 330.899Z" fill="#96652F"/>
<path d="M124.29 355.021H97.2616C87.6436 355.021 79.8467 362.818 79.8467 372.436V411.028C79.8467 420.646 87.6436 428.443 97.2616 428.443H124.29C133.908 428.443 141.705 420.646 141.705 411.028V372.436C141.705 362.818 133.908 355.021 124.29 355.021Z" fill="#C9934C"/>
<path d="M392.684 330.899C399.005 330.899 404.13 336.024 404.13 342.345V365.238H381.238V342.345C381.238 336.024 386.362 330.899 392.684 330.899Z" fill="#96652F"/>
<path d="M417.644 355.021H390.616C380.998 355.021 373.201 362.818 373.201 372.436V411.028C373.201 420.646 380.998 428.443 390.616 428.443H417.644C427.262 428.443 435.059 420.646 435.059 411.028V372.436C435.059 362.818 427.262 355.021 417.644 355.021Z" fill="#C9934C"/>
<path d="M257.452 435.774C263.436 435.774 268.288 430.923 268.288 424.938C268.288 418.953 263.436 414.102 257.452 414.102C251.467 414.102 246.616 418.953 246.616 424.938C246.616 430.923 251.467 435.774 257.452 435.774Z" fill="white"/>
<path d="M257.452 475.248C263.436 475.248 268.288 470.396 268.288 464.412C268.288 458.427 263.436 453.576 257.452 453.576C251.467 453.576 246.616 458.427 246.616 464.412C246.616 470.396 251.467 475.248 257.452 475.248Z" fill="white"/>
<path d="M321.715 214.261H290.645C287.76 214.261 285.421 216.6 285.421 219.485C285.421 222.371 287.76 224.71 290.645 224.71H321.715C324.6 224.71 326.939 222.371 326.939 219.485C326.939 216.6 324.6 214.261 321.715 214.261Z" fill="#353535"/>
<path d="M224.256 214.261H193.187C190.301 214.261 187.962 216.6 187.962 219.485C187.962 222.371 190.301 224.71 193.187 224.71H224.256C227.142 224.71 229.481 222.371 229.481 219.485C229.481 216.6 227.142 214.261 224.256 214.261Z" fill="#353535"/>
<path d="M130.027 179.33V196.519C130.027 204.049 123.922 210.154 116.391 210.154V256.687H105.942V166.827H302.243C301.93 168.359 301.582 169.857 301.129 171.285C296.621 186.117 285.44 195.968 278.574 200.806C276.71 202.12 274.132 200.616 274.405 198.352C275.17 192.01 273.749 182.131 259.781 176.563C254.824 174.587 249.448 173.89 244.116 174.108L130.027 179.33" fill="#92FAF3"/>
<path d="M408.959 166.825V256.686H398.51V210.153C390.987 210.153 384.892 204.058 384.892 196.535V179.329L372.527 178.597C374.269 175.254 375.453 171.318 375.592 166.825H408.959V166.825Z" fill="#92FAF3"/>
<path d="M375.593 166.825C375.453 171.318 374.269 175.254 372.528 178.597C368.766 185.807 362.427 190.474 357.899 193.121C355.949 194.236 353.545 192.634 353.894 190.404C353.894 190.23 353.929 190.091 353.963 189.952C354.625 185.25 353.302 180.792 350.655 177.343C347.45 173.059 342.261 170.308 336.409 170.482L299.35 171.283C299.803 169.855 300.151 168.357 300.465 166.825H375.593L375.593 166.825Z" fill="#92FAF3"/>
<path d="M274.455 342.629C270.745 345.572 265.747 347.192 260.244 347.192C254.741 347.192 249.76 345.572 246.051 342.629" stroke="#50DEDE" stroke-width="4.69051" stroke-miterlimit="10" stroke-linecap="round"/>
<path d="M312.796 415.971H362.334V448.094C362.334 457.705 354.53 465.508 344.919 465.508H330.211C320.599 465.508 312.796 457.705 312.796 448.094V415.971Z" fill="#2F00A3"/>
<path d="M393.682 486.686H121.225V514.181H393.682V486.686Z" fill="#2F00A3"/>
<circle cx="168.925" cy="290.83" r="15.6735" fill="#50DEDE"/>
<circle cx="260.543" cy="318.978" r="15.6735" fill="#3A7474"/>
<circle cx="221.587" cy="243.847" r="15.6735" fill="#3A7474"/>
<circle cx="299.5" cy="243.847" r="15.6735" fill="#3A7474"/>
<circle cx="350.041" cy="290.83" r="15.6735" fill="#50DEDE"/>
</g>
</svg>
