<svg width="512" height="512" viewBox="0 0 512 512" fill="none" xmlns="http://www.w3.org/2000/svg">
<mask id="mask0_103_85" style="mask-type:alpha" maskUnits="userSpaceOnUse" x="0" y="0" width="512" height="512">
<circle cx="256" cy="256" r="256" fill="#2C2C2C"/>
</mask>
<g mask="url(#mask0_103_85)">
<circle cx="256" cy="256" r="256" fill="#6F3FF5"/>
<path d="M125.388 236.485V288.73H107.973C94.3895 288.73 82.6518 280.962 76.9048 269.643C74.5015 264.906 73.1431 259.577 73.1431 253.9C73.1431 244.287 77.0442 235.579 83.3484 229.275C89.6178 222.971 98.3252 219.07 107.973 219.07C112.78 219.07 117.133 221.02 120.268 224.155C123.437 227.324 125.388 231.678 125.388 236.485Z" fill="#89FF76"/>
<path d="M107.973 278.281C98.7432 278.281 90.4081 273.158 86.221 264.912C84.4778 261.473 83.5918 257.767 83.5918 253.9C83.5918 247.391 86.1292 241.27 90.7364 236.665C95.3265 232.049 101.44 229.519 107.973 229.519C109.832 229.519 111.575 230.238 112.881 231.543C114.207 232.871 114.939 234.626 114.939 236.485V278.281H107.973Z" fill="#64DE50"/>
<path d="M386.612 236.485V288.73H404.027C417.611 288.73 429.348 280.962 435.095 269.643C437.499 264.906 438.857 259.577 438.857 253.9C438.857 244.287 434.956 235.579 428.652 229.275C422.382 222.971 413.675 219.07 404.027 219.07C399.22 219.07 394.867 221.02 391.732 224.155C388.563 227.324 386.612 231.678 386.612 236.485Z" fill="#89FF76"/>
<path d="M404.028 278.28C413.258 278.28 421.593 273.158 425.78 264.911C427.523 261.473 428.409 257.767 428.409 253.9C428.409 247.391 425.872 241.27 421.264 236.665C416.674 232.049 410.56 229.519 404.028 229.519C402.169 229.519 400.426 230.238 399.12 231.542C397.793 232.871 397.062 234.626 397.062 236.485V278.28H404.028Z" fill="#64DE50"/>
<path d="M105.942 166.827H408.963V323.561C408.963 342.784 393.356 358.391 374.133 358.391H140.772C121.549 358.391 105.942 342.784 105.942 323.561V166.827Z" fill="#89FF76"/>
<path d="M393.682 358.391H121.225C111.607 358.391 103.81 366.188 103.81 375.806V389.464C103.81 399.082 111.607 406.879 121.225 406.879H393.682C403.3 406.879 411.097 399.082 411.097 389.464V375.806C411.097 366.188 403.3 358.391 393.682 358.391Z" fill="#00DEA5"/>
<path d="M407.613 375.918H407.613C390.531 375.918 376.684 389.766 376.684 406.847V418.411C376.684 435.493 390.531 449.34 407.613 449.34C424.694 449.34 438.542 435.493 438.542 418.411V406.847C438.542 389.766 424.694 375.918 407.613 375.918Z" fill="#6F3FF5"/>
<path d="M107.293 375.918H107.293C90.2111 375.918 76.3638 389.766 76.3638 406.847V418.411C76.3638 435.493 90.2111 449.34 107.293 449.34C124.374 449.34 138.222 435.493 138.222 418.411V406.847C138.222 389.766 124.374 375.918 107.293 375.918Z" fill="#6F3FF5"/>
<path opacity="0.2" d="M407.613 375.918H407.613C390.531 375.918 376.684 389.766 376.684 406.847V418.411C376.684 435.493 390.531 449.34 407.613 449.34C424.694 449.34 438.542 435.493 438.542 418.411V406.847C438.542 389.766 424.694 375.918 407.613 375.918Z" fill="#353535"/>
<path opacity="0.2" d="M107.293 375.918H107.293C90.2111 375.918 76.3638 389.766 76.3638 406.847V418.411C76.3638 435.493 90.2111 449.34 107.293 449.34C124.374 449.34 138.222 435.493 138.222 418.411V406.847C138.222 389.766 124.374 375.918 107.293 375.918Z" fill="#353535"/>
<path d="M393.682 406.879H121.225V486.687H393.682V406.879Z" fill="#6F3FF5"/>
<path opacity="0.2" d="M134.739 365.471H107.711C98.0928 365.471 90.2959 373.268 90.2959 382.886V421.478C90.2959 431.096 98.0928 438.893 107.711 438.893H134.739C144.357 438.893 152.154 431.096 152.154 421.478V382.886C152.154 373.268 144.357 365.471 134.739 365.471Z" fill="#353535"/>
<path opacity="0.2" d="M407.195 365.471H380.167C370.549 365.471 362.752 373.268 362.752 382.886V421.478C362.752 431.096 370.549 438.893 380.167 438.893H407.195C416.813 438.893 424.61 431.096 424.61 421.478V382.886C424.61 373.268 416.813 365.471 407.195 365.471Z" fill="#353535"/>
<path d="M122.222 330.9C115.9 330.9 110.776 336.024 110.776 342.346V365.238H133.668V342.346C133.668 336.024 128.543 330.9 122.222 330.9Z" fill="#96652F"/>
<path d="M124.29 355.022H97.2616C87.6436 355.022 79.8467 362.819 79.8467 372.437V411.028C79.8467 420.646 87.6436 428.443 97.2616 428.443H124.29C133.908 428.443 141.705 420.646 141.705 411.028V372.437C141.705 362.819 133.908 355.022 124.29 355.022Z" fill="#C9934C"/>
<path d="M392.684 330.9C399.005 330.9 404.13 336.024 404.13 342.346V365.238H381.238V342.346C381.238 336.024 386.362 330.9 392.684 330.9Z" fill="#96652F"/>
<path d="M417.644 355.022H390.616C380.998 355.022 373.201 362.819 373.201 372.437V411.028C373.201 420.646 380.998 428.443 390.616 428.443H417.644C427.262 428.443 435.059 420.646 435.059 411.028V372.437C435.059 362.819 427.262 355.022 417.644 355.022Z" fill="#C9934C"/>
<path d="M257.452 435.774C263.436 435.774 268.288 430.923 268.288 424.938C268.288 418.954 263.436 414.102 257.452 414.102C251.467 414.102 246.616 418.954 246.616 424.938C246.616 430.923 251.467 435.774 257.452 435.774Z" fill="white"/>
<path d="M257.452 475.248C263.436 475.248 268.288 470.396 268.288 464.412C268.288 458.427 263.436 453.576 257.452 453.576C251.467 453.576 246.616 458.427 246.616 464.412C246.616 470.396 251.467 475.248 257.452 475.248Z" fill="white"/>
<path d="M321.715 197.469H290.645C287.76 197.469 285.421 199.809 285.421 202.694C285.421 205.579 287.76 207.918 290.645 207.918H321.715C324.6 207.918 326.939 205.579 326.939 202.694C326.939 199.809 324.6 197.469 321.715 197.469Z" fill="#353535"/>
<path d="M224.256 197.469H193.187C190.301 197.469 187.962 199.809 187.962 202.694C187.962 205.579 190.301 207.918 193.187 207.918H224.256C227.142 207.918 229.481 205.579 229.481 202.694C229.481 199.809 227.142 197.469 224.256 197.469Z" fill="#353535"/>
<path d="M409.252 167.183H106.177L104.812 154.193C101.742 124.971 120.913 98.1033 149.276 91.8786L314.128 64.4944C362.147 53.9559 409.252 87.8265 409.252 137.578V167.183Z" fill="#353535"/>
<path opacity="0.5" d="M389.362 139.681C385.678 139.682 382.257 137.324 381.073 133.626C372.879 108.029 346.869 93.026 320.539 98.7369C315.848 99.759 311.206 96.7709 310.185 92.0719C309.168 87.3712 312.151 82.7352 316.852 81.7165C351.991 74.1094 386.719 94.1366 397.658 128.317C399.124 132.897 396.6 137.798 392.019 139.264C391.138 139.546 390.243 139.681 389.362 139.681V139.681Z" fill="white"/>
<path d="M130.027 179.33V196.519C130.027 204.049 123.922 210.154 116.391 210.154V256.687H105.942V166.827H302.243C301.93 168.359 301.582 169.857 301.129 171.285C296.621 186.117 285.44 195.968 278.574 200.806C276.71 202.12 274.132 200.616 274.405 198.352C275.17 192.01 273.749 182.131 259.781 176.563C254.824 174.587 249.448 173.89 244.116 174.108L130.027 179.33" fill="#353535"/>
<path d="M408.959 166.825V256.686H398.51V210.153C390.987 210.153 384.892 204.058 384.892 196.535V179.329L372.527 178.598C374.269 175.254 375.453 171.318 375.592 166.825H408.959V166.825Z" fill="#353535"/>
<path d="M375.593 166.825C375.453 171.318 374.269 175.254 372.528 178.597C368.766 185.807 362.427 190.474 357.899 193.122C355.949 194.236 353.545 192.634 353.894 190.405C353.894 190.231 353.929 190.091 353.963 189.952C354.625 185.25 353.302 180.792 350.655 177.343C347.45 173.059 342.261 170.308 336.409 170.482L299.35 171.283C299.803 169.855 300.151 168.357 300.465 166.825H375.593L375.593 166.825Z" fill="#353535"/>
<path d="M288.235 253.066C287.354 253.066 286.459 252.844 285.643 252.374C283.139 250.941 282.272 247.748 283.704 245.243C288.299 237.219 296.908 232.235 306.173 232.235C315.435 232.235 324.044 237.219 328.646 245.242C330.078 247.745 329.214 250.937 326.711 252.373C324.211 253.806 321.014 252.941 319.578 250.439C316.837 245.655 311.701 242.684 306.173 242.684C300.646 242.684 295.51 245.655 292.772 250.437C291.806 252.121 290.044 253.066 288.235 253.066H288.235Z" fill="#2F00A3"/>
<path d="M193.303 253.066C192.422 253.066 191.527 252.844 190.711 252.374C188.207 250.941 187.34 247.748 188.772 245.243C193.367 237.219 201.976 232.235 211.241 232.235C220.503 232.235 229.112 237.219 233.714 245.242C235.146 247.745 234.282 250.937 231.779 252.373C229.279 253.806 226.081 252.941 224.646 250.439C221.905 245.655 216.769 242.684 211.241 242.684C205.714 242.684 200.578 245.655 197.84 250.437C196.874 252.121 195.112 253.066 193.303 253.066H193.303Z" fill="#2F00A3"/>
<path d="M274.455 342.629C270.745 345.572 265.747 347.192 260.244 347.192C254.741 347.192 249.76 345.572 246.051 342.629" stroke="#64DE50" stroke-width="4.69051" stroke-miterlimit="10" stroke-linecap="round"/>
<path d="M312.796 415.971H362.334V448.094C362.334 457.706 354.53 465.509 344.919 465.509H330.211C320.599 465.509 312.796 457.706 312.796 448.094V415.971Z" fill="#2F00A3"/>
<path d="M393.682 486.685H121.225V514.181H393.682V486.685Z" fill="#2F00A3"/>
<path d="M174.15 301.279C178.794 309.986 202.362 327.401 259.483 327.401C316.604 327.401 341.334 311.147 346.558 303.02" stroke="black" stroke-width="1.5635"/>
<circle cx="168.925" cy="290.83" r="15.6735" fill="#64DE50"/>
<circle cx="350.041" cy="290.83" r="15.6735" fill="#64DE50"/>
<path d="M198.531 283.864L193.306 313.469C194.699 317.649 202.014 319.855 205.497 320.435L198.531 283.864Z" fill="white"/>
</g>
</svg>
