<svg width="512" height="512" viewBox="0 0 512 512" fill="none" xmlns="http://www.w3.org/2000/svg">
<mask id="mask0_103_2" style="mask-type:alpha" maskUnits="userSpaceOnUse" x="0" y="0" width="512" height="512">
<circle cx="256" cy="256" r="256" fill="#2C2C2C"/>
</mask>
<g mask="url(#mask0_103_2)">
<circle cx="256" cy="256" r="256" fill="#3188EA"/>
<path d="M409.252 167.183H106.177L104.812 154.193C101.742 124.971 120.913 98.1034 149.276 91.8787L314.128 64.4945C362.147 53.956 409.252 87.8265 409.252 137.578V167.183Z" fill="#0FB58A"/>
<path d="M125.387 236.485V288.73H107.973C94.389 288.73 82.6513 280.962 76.9043 269.643C74.501 264.906 73.1426 259.577 73.1426 253.9C73.1426 244.287 77.0437 235.579 83.3479 229.275C89.6173 222.971 98.3248 219.07 107.973 219.07C112.779 219.07 117.133 221.02 120.268 224.155C123.437 227.324 125.387 231.678 125.387 236.485Z" fill="#552ACC"/>
<path d="M107.973 278.281C98.7432 278.281 90.4081 273.159 86.221 264.912C84.4778 261.473 83.5918 257.767 83.5918 253.9C83.5918 247.392 86.1292 241.271 90.7364 236.665C95.3265 232.05 101.44 229.519 107.973 229.519C109.832 229.519 111.575 230.238 112.881 231.543C114.207 232.871 114.939 234.626 114.939 236.485V278.281H107.973Z" fill="#3188EA"/>
<path d="M386.612 236.485V288.73H404.027C417.611 288.73 429.348 280.962 435.095 269.643C437.499 264.906 438.857 259.577 438.857 253.9C438.857 244.287 434.956 235.579 428.652 229.275C422.382 222.971 413.675 219.07 404.027 219.07C399.221 219.07 394.867 221.02 391.732 224.155C388.563 227.324 386.612 231.678 386.612 236.485Z" fill="#552ACC"/>
<path d="M404.028 278.28C413.258 278.28 421.593 273.158 425.78 264.911C427.523 261.473 428.409 257.767 428.409 253.9C428.409 247.391 425.872 241.27 421.265 236.665C416.675 232.049 410.561 229.519 404.028 229.519C402.17 229.519 400.426 230.238 399.12 231.542C397.794 232.871 397.062 234.626 397.062 236.485V278.28H404.028Z" fill="#3188EA"/>
<path d="M105.942 166.827H408.963V323.561C408.963 342.785 393.356 358.391 374.133 358.391H140.772C121.549 358.391 105.942 342.785 105.942 323.561V166.827Z" fill="#552ACC"/>
<path d="M393.682 358.391H121.225C111.607 358.391 103.81 366.188 103.81 375.806V389.464C103.81 399.082 111.607 406.879 121.225 406.879H393.682C403.3 406.879 411.097 399.082 411.097 389.464V375.806C411.097 366.188 403.3 358.391 393.682 358.391Z" fill="#00DEA5"/>
<path d="M407.613 375.919H407.613C390.531 375.919 376.684 389.766 376.684 406.848V418.411C376.684 435.493 390.531 449.34 407.613 449.34C424.694 449.34 438.542 435.493 438.542 418.411V406.848C438.542 389.766 424.694 375.919 407.613 375.919Z" fill="#3188EA"/>
<path d="M107.293 375.919H107.293C90.2111 375.919 76.3638 389.766 76.3638 406.848V418.411C76.3638 435.493 90.2111 449.34 107.293 449.34C124.374 449.34 138.222 435.493 138.222 418.411V406.848C138.222 389.766 124.374 375.919 107.293 375.919Z" fill="#3188EA"/>
<path opacity="0.2" d="M407.613 375.919H407.613C390.531 375.919 376.684 389.766 376.684 406.848V418.411C376.684 435.493 390.531 449.34 407.613 449.34C424.694 449.34 438.542 435.493 438.542 418.411V406.848C438.542 389.766 424.694 375.919 407.613 375.919Z" fill="#353535"/>
<path opacity="0.2" d="M107.293 375.919H107.293C90.2111 375.919 76.3638 389.766 76.3638 406.848V418.411C76.3638 435.493 90.2111 449.34 107.293 449.34C124.374 449.34 138.222 435.493 138.222 418.411V406.848C138.222 389.766 124.374 375.919 107.293 375.919Z" fill="#353535"/>
<path d="M393.682 406.879H121.225V486.687H393.682V406.879Z" fill="#3188EA"/>
<path opacity="0.2" d="M134.739 365.471H107.711C98.0928 365.471 90.2959 373.268 90.2959 382.886V421.478C90.2959 431.096 98.0928 438.893 107.711 438.893H134.739C144.357 438.893 152.154 431.096 152.154 421.478V382.886C152.154 373.268 144.357 365.471 134.739 365.471Z" fill="#353535"/>
<path opacity="0.2" d="M407.195 365.471H380.167C370.549 365.471 362.752 373.268 362.752 382.886V421.478C362.752 431.096 370.549 438.893 380.167 438.893H407.195C416.813 438.893 424.61 431.096 424.61 421.478V382.886C424.61 373.268 416.813 365.471 407.195 365.471Z" fill="#353535"/>
<path d="M122.223 330.9C115.901 330.9 110.776 336.025 110.776 342.346V365.238H133.669V342.346C133.669 336.025 128.544 330.9 122.223 330.9Z" fill="#96652F"/>
<path d="M124.29 355.022H97.2621C87.6441 355.022 79.8472 362.819 79.8472 372.437V411.028C79.8472 420.646 87.6441 428.443 97.2621 428.443H124.29C133.908 428.443 141.705 420.646 141.705 411.028V372.437C141.705 362.819 133.908 355.022 124.29 355.022Z" fill="#C9934C"/>
<path d="M392.684 330.9C399.005 330.9 404.13 336.025 404.13 342.346V365.238H381.238V342.346C381.238 336.025 386.362 330.9 392.684 330.9Z" fill="#96652F"/>
<path d="M417.644 355.022H390.616C380.998 355.022 373.201 362.819 373.201 372.437V411.028C373.201 420.646 380.998 428.443 390.616 428.443H417.644C427.262 428.443 435.059 420.646 435.059 411.028V372.437C435.059 362.819 427.262 355.022 417.644 355.022Z" fill="#C9934C"/>
<path d="M257.452 435.774C263.436 435.774 268.288 430.923 268.288 424.938C268.288 418.954 263.436 414.102 257.452 414.102C251.467 414.102 246.616 418.954 246.616 424.938C246.616 430.923 251.467 435.774 257.452 435.774Z" fill="white"/>
<path d="M257.452 475.248C263.436 475.248 268.288 470.396 268.288 464.412C268.288 458.427 263.436 453.576 257.452 453.576C251.467 453.576 246.616 458.427 246.616 464.412C246.616 470.396 251.467 475.248 257.452 475.248Z" fill="white"/>
<path d="M321.715 233.361H290.646C287.76 233.361 285.421 235.7 285.421 238.585C285.421 241.471 287.76 243.81 290.646 243.81H321.715C324.601 243.81 326.94 241.471 326.94 238.585C326.94 235.7 324.601 233.361 321.715 233.361Z" fill="white"/>
<path d="M224.257 233.361H193.187C190.302 233.361 187.963 235.7 187.963 238.585C187.963 241.471 190.302 243.81 193.187 243.81H224.257C227.142 243.81 229.481 241.471 229.481 238.585C229.481 235.7 227.142 233.361 224.257 233.361Z" fill="white"/>
<path d="M130.027 179.33V196.519C130.027 204.049 123.922 210.154 116.391 210.154V256.687H105.942V166.827H302.243C301.93 168.359 301.582 169.857 301.129 171.285C296.621 186.117 285.44 195.968 278.574 200.806C276.71 202.12 274.132 200.616 274.405 198.352C275.17 192.01 273.749 182.131 259.781 176.563C254.824 174.587 249.448 173.89 244.116 174.108L130.027 179.33" fill="#0FB58A"/>
<path d="M408.959 166.825V256.686H398.51V210.153C390.987 210.153 384.892 204.058 384.892 196.535V179.329L372.527 178.598C374.269 175.254 375.453 171.318 375.592 166.825H408.959V166.825Z" fill="#0FB58A"/>
<path d="M375.593 166.825C375.454 171.318 374.27 175.254 372.528 178.598C368.767 185.807 362.428 190.474 357.9 193.122C355.949 194.236 353.546 192.634 353.894 190.405C353.894 190.231 353.929 190.091 353.964 189.952C354.626 185.25 353.302 180.792 350.655 177.344C347.451 173.059 342.261 170.308 336.409 170.482L299.351 171.283C299.803 169.855 300.152 168.358 300.465 166.825H375.593L375.593 166.825Z" fill="#0FB58A"/>
<path d="M274.455 342.629C270.746 345.573 265.748 347.192 260.244 347.192C254.741 347.192 249.761 345.573 246.051 342.629" stroke="#A999DA" stroke-width="4.69051" stroke-miterlimit="10" stroke-linecap="round"/>
<path d="M312.796 415.971H362.334V448.094C362.334 457.706 354.53 465.509 344.919 465.509H330.211C320.599 465.509 312.796 457.706 312.796 448.094V415.971Z" fill="#2F00A3"/>
<path d="M393.682 486.686H121.225V514.181H393.682V486.686Z" fill="#2F00A3"/>
<path d="M330.885 292.572H195.048C200.272 304.182 220.474 327.402 259.483 327.402C298.493 327.402 323.338 304.182 330.885 292.572Z" fill="#231F20"/>
<path d="M301.279 26.1226C389.051 33.0885 409.832 96.3629 409.252 127.129L212.463 81.8505C244.506 76.2777 216.526 48.1815 198.531 34.83C222.215 32.0436 293.152 40.635 325.66 45.279C324.267 39.7062 308.826 30.1861 301.279 26.1226Z" fill="#0FB58A"/>
<rect x="233.36" y="292.572" width="59.2109" height="13.932" fill="#D9D9D9"/>
<path d="M392.601 365H120.399C110.79 365 103 372.879 103 382.599V396.401C103 406.121 110.79 414 120.399 414H392.601C402.21 414 410 406.121 410 396.401V382.599C410 372.879 402.21 365 392.601 365Z" fill="#00DEA5"/>
<path d="M393 414H120V494H393V414Z" fill="#B240F4"/>
<path d="M256.452 442.577C262.436 442.577 267.288 437.714 267.288 431.714C267.288 425.714 262.436 420.851 256.452 420.851C250.467 420.851 245.616 425.714 245.616 431.714C245.616 437.714 250.467 442.577 256.452 442.577Z" fill="white"/>
<path d="M256.452 482.15C262.436 482.15 267.288 477.287 267.288 471.287C267.288 465.287 262.436 460.424 256.452 460.424C250.467 460.424 245.616 465.287 245.616 471.287C245.616 477.287 250.467 482.15 256.452 482.15Z" fill="white"/>
<path d="M312 423H361V454.774C361 464.281 353.281 472 343.774 472H329.226C319.719 472 312 464.281 312 454.774V423Z" fill="#9623E8"/>
<path d="M393 494H120V521H393V494Z" fill="#9623E8"/>
</g>
<path d="M122.223 330.9C115.901 330.9 110.776 336.024 110.776 342.346V365.238H133.669V342.346C133.669 336.024 128.544 330.9 122.223 330.9Z" fill="#96652F"/>
<path d="M124.29 355.021H97.2621C87.6441 355.021 79.8472 362.818 79.8472 372.436V411.028C79.8472 420.646 87.6441 428.443 97.2621 428.443H124.29C133.908 428.443 141.705 420.646 141.705 411.028V372.436C141.705 362.818 133.908 355.021 124.29 355.021Z" fill="#C9934C"/>
<path d="M392.684 330.9C399.005 330.9 404.13 336.024 404.13 342.346V365.238H381.238V342.346C381.238 336.024 386.362 330.9 392.684 330.9Z" fill="#96652F"/>
<path d="M417.644 355.021H390.616C380.998 355.021 373.201 362.818 373.201 372.436V411.028C373.201 420.646 380.998 428.443 390.616 428.443H417.644C427.262 428.443 435.059 420.646 435.059 411.028V372.436C435.059 362.818 427.262 355.021 417.644 355.021Z" fill="#C9934C"/>
</svg>
