<svg width="1000" height="1000" viewBox="0 0 1000 1000" fill="none" xmlns="http://www.w3.org/2000/svg">
<path d="M171.902 562.761C172.408 564.074 172.915 565.387 173.433 566.688C220.856 687.455 310.748 799.482 449.111 809.466C545.28 816.375 615.827 771.751 682.549 709.036C731.388 663.111 796.557 663.583 859.307 661.66C903.067 660.324 949.13 650.317 970.043 608.122C999.823 547.952 972.726 469.805 932.421 420.99C897.182 378.381 839.81 343.096 783.198 344.686C717.88 346.517 661.798 384.577 598.76 396.691C530.056 409.911 459.499 387.72 401.758 350.628C355.983 321.251 297.816 276.143 239.638 286.91C182.059 297.563 151.334 364.85 146.29 417.765C141.58 467.111 154.087 516.514 171.902 562.761Z" fill="#C5E4F9"/>
<mask id="mask0_0_2055" style="mask-type:luminance" maskUnits="userSpaceOnUse" x="145" y="285" width="838" height="526">
<path fill-rule="evenodd" clip-rule="evenodd" d="M171.902 562.761C172.408 564.074 172.915 565.387 173.433 566.688C220.856 687.455 310.748 799.482 449.111 809.466C545.28 816.375 615.827 771.751 682.549 709.036C731.388 663.111 796.557 663.583 859.307 661.66C903.067 660.324 949.13 650.317 970.043 608.122C999.823 547.952 972.726 469.805 932.421 420.99C897.182 378.381 839.81 343.096 783.198 344.686C717.88 346.517 661.798 384.577 598.76 396.691C530.056 409.911 459.499 387.72 401.758 350.628C355.983 321.251 297.816 276.143 239.638 286.91C182.059 297.563 151.334 364.85 146.29 417.765C141.58 467.111 154.087 516.514 171.902 562.761Z" fill="white"/>
</mask>
<g mask="url(#mask0_0_2055)">
<path d="M169.886 566.055C169.886 566.055 282.925 857.844 509.788 811.642C736.65 765.441 622.793 655.902 871.386 665.31C1119.98 674.719 936.577 231.485 687.132 366.681C437.687 501.877 355.026 226.349 222.041 293.947C89.0558 361.545 169.886 566.055 169.886 566.055Z" fill="#C5E4F9"/>
</g>
<path d="M955.533 755.698C946.229 709.808 889.432 766.604 897.781 740.209C906.13 713.815 871.053 707.689 859.871 723.604C847.676 741.039 823.02 746.393 836.137 726.989C849.254 707.585 827.143 679.003 800.184 686.684C773.226 694.365 784.465 681.225 785.41 678.991C814.775 630.532 753.015 609.723 730.974 643.396C713.942 669.421 692.972 652.032 694.941 617.934C696.91 583.835 647.496 585.31 610.081 643.373C572.666 701.436 548.655 651.894 548.655 651.894C548.655 651.894 544.924 640.447 538.959 643.373C532.993 646.298 445.979 755.652 445.979 755.652H955.533" fill="white"/>
<path d="M955.533 755.698C946.228 709.808 889.432 766.604 897.781 740.209C906.13 713.815 871.052 707.689 859.87 723.604C847.675 741.039 823.02 746.393 836.136 726.989C849.253 707.585 827.142 679.003 800.184 686.684C773.225 694.365 784.465 681.225 785.409 678.991C814.774 630.532 753.015 609.723 730.973 643.396C713.941 669.421 692.971 652.032 694.94 617.934C696.391 592.127 668.454 586.691 638.512 610.748L630.187 648.175C630.187 648.175 646.769 600.05 670.826 607.742C694.883 615.435 673.129 688.066 710.314 690.254C747.499 692.442 734.037 643.396 770.3 646.251C798.583 648.486 745.587 714.598 806.23 715.243C848.504 715.692 804.537 767.157 842.447 746.497C880.357 725.838 889.662 726.632 885.493 739.588C881.324 752.543 897.919 755.906 921.711 745.864C938.604 738.724 942.681 748.167 939.491 755.71L955.533 755.698Z" fill="#D8D8D8"/>
<path d="M694.987 617.957C696.91 583.858 647.496 585.309 610.081 643.419C572.666 701.528 548.655 651.94 548.655 651.94C548.655 651.94 544.924 640.494 538.959 643.419C532.993 646.344 445.979 755.698 445.979 755.698" stroke="#191919" stroke-width="1.11" stroke-linecap="round"/>
<path d="M695.194 628.759C695.022 626.928 694.918 625.028 694.895 623.07" stroke="#191919" stroke-width="1.11" stroke-linecap="round"/>
<path d="M849.012 734.348C837.599 742.156 826.36 741.453 836.183 726.989C849.357 707.596 827.189 679.003 800.23 686.684C773.272 694.365 784.511 681.225 785.455 678.991C814.821 630.532 753.061 609.723 731.02 643.396C718.56 662.443 704.004 658.239 697.843 641.242" stroke="#191919" stroke-width="1.11" stroke-linecap="round"/>
<path d="M858.374 725.665C857.683 726.529 856.969 727.358 856.221 728.152" stroke="#191919" stroke-width="1.11" stroke-linecap="round"/>
<path d="M955.533 755.698C946.229 709.807 889.432 766.604 897.781 740.209C906.13 713.815 871.053 707.689 859.871 723.603" stroke="#191919" stroke-width="1.11" stroke-linecap="round"/>
<path d="M571.019 754.708C571.019 754.121 571.019 753.556 571.019 752.98C570.788 717.546 527.097 733.196 526.026 710.038C524.932 686.499 554.816 635.369 554.816 635.369C554.816 635.369 527.178 663.18 516.318 699.328C505.459 735.476 542.195 723.926 542.413 737.618C542.632 751.311 511.608 755.698 511.608 755.698L571.019 754.708Z" fill="#D8D8D8"/>
<path d="M557.856 611.404C557.856 611.404 505.182 675.352 478.696 666.047C452.209 656.742 476.208 619.581 443.86 598.104C411.512 576.627 384.266 662.316 359.622 634.079C334.978 605.842 266.896 605.957 217.815 657.56C168.735 709.163 190.557 754.708 190.557 754.708L462.447 745.864L550.255 629.381L557.856 611.404Z" fill="#D8D8D8"/>
<path d="M478.696 666.047C452.267 656.742 476.209 619.581 443.86 598.104C429.074 588.304 415.359 600.867 402.461 614.71C421.508 613.685 437.492 614.882 441.454 621.043C452.682 638.524 453.188 701.424 489.578 678.623C525.969 655.821 538.924 635.311 538.924 635.311L534.686 636.083C517.24 652.977 493.747 671.333 478.696 666.047Z" fill="white"/>
<path d="M526.014 661.522L550.255 629.369L557.856 611.404C557.856 611.404 505.182 675.352 478.696 666.047C472.686 664.173 468.01 659.42 466.235 653.38" stroke="#191919" stroke-width="1.11" stroke-linecap="round"/>
<path d="M462.723 629.957C461.077 618.729 457.368 607.074 443.895 598.15C411.558 576.707 384.3 662.316 359.622 634.079C334.943 605.842 266.896 605.957 217.815 657.56C168.735 709.163 190.557 754.708 190.557 754.708L462.447 745.864L518.76 671.16" stroke="#191919" stroke-width="1.11" stroke-linecap="round"/>
<path d="M766.961 755.433C771.775 730.997 738.402 717.281 714.875 732.402C691.348 747.522 699.156 683.459 653.507 712.744C607.858 742.029 618.959 661.176 618.959 661.176C613.719 661.003 589.755 654.267 589.755 671.114C589.755 687.962 598.553 738.01 633.089 729.027C667.625 720.045 682.423 718.663 678.554 735.396C674.684 752.128 692.868 757.092 715.117 745.092C737.365 733.093 763.541 734.256 753.706 755.871" fill="#D8D8D8"/>
<path d="M464.566 645.733C464.335 644.179 464.151 642.566 463.978 640.931" stroke="#191919" stroke-width="1.11" stroke-linecap="round"/>
<path d="M60.6695 585.793C60.6695 585.793 12.3605 569.176 35.4613 512.437C58.5621 455.698 85.9468 514.28 103.059 465.74C120.172 417.201 151.795 392.465 158.681 413.654C165.568 434.843 199.908 378.669 341.012 317.094C340.922 322.257 340.32 327.399 339.215 332.444C339.215 332.444 129.834 420.805 133.081 533.511C136.329 646.217 60.6695 585.793 60.6695 585.793Z" fill="white"/>
<path d="M158.682 413.62C155.803 404.741 148.571 403.946 139.888 409.566C142.778 413.631 151.691 419.251 145.554 426.345C131.642 442.467 151.369 429.88 175.61 413.009C165.672 419.308 160.858 420.241 158.682 413.62Z" fill="#D8D8D8"/>
<path d="M35.4619 512.403C23.946 540.778 30.2222 559.122 39.4118 570.362C50.0295 557.614 60.3477 535.964 60.3477 535.964C60.3477 535.964 34.7594 532.291 50.3058 490.027C45.2273 493.862 40.2525 500.656 35.4619 512.403Z" fill="#D8D8D8"/>
<path d="M103.498 557.222C95.7825 537.818 62.3865 519.22 31.4434 555.737C35.5891 568.727 44.7327 576.742 51.6998 581.187C67.0734 574.174 81.307 567.241 81.2955 572.193C81.2955 584.86 105.629 594.292 125.309 580.6C126.2 579.988 127.131 579.438 128.096 578.953C130.48 571.678 131.976 564.142 132.553 556.508C117.214 566.136 109.509 572.354 103.498 557.222Z" fill="#D8D8D8"/>
<path fill-rule="evenodd" clip-rule="evenodd" d="M60.6695 585.793C60.6695 585.793 12.3605 569.176 35.4613 512.437C58.5621 455.698 85.9468 514.28 103.059 465.74C120.172 417.201 151.795 392.465 158.681 413.654C165.568 434.843 199.908 378.669 341.012 317.094C340.921 322.257 340.32 327.399 339.215 332.444C339.215 332.444 129.834 420.805 133.081 533.511C136.329 646.217 60.6695 585.793 60.6695 585.793Z" stroke="#191919" stroke-width="1.11"/>
<path d="M476.692 751.771C476.692 751.771 404.786 740.255 403.623 728.958C402.46 717.661 382.319 722.222 377.667 735.695C373.014 749.169 364.124 728.026 359.656 736.421C355.188 744.816 360.623 750.885 369.732 750.459C378.841 750.032 473.974 759.222 476.692 751.771Z" fill="white" stroke="#191919" stroke-width="1.11"/>
<path d="M260.079 643.925C260.079 643.925 217.723 717.8 237.83 718.663C257.937 719.527 314.422 695.298 297.39 732.482C288.569 751.737 426.875 741.373 483.418 755.307C472.777 755.698 214.729 755.307 214.729 755.307L172.374 715.37C172.374 715.37 255.38 610.126 260.079 643.925Z" fill="white"/>
<path d="M297.39 732.482C314.422 695.298 257.948 719.515 237.83 718.663C220.475 717.926 249.68 662.754 257.971 647.691L255.345 646.919C255.345 646.919 199.862 724.133 233.88 727.081C267.898 730.029 293.555 713.02 286.185 733.876C279.068 753.971 466.984 754.685 480.803 754.708C422.855 741.672 288.684 751.449 297.39 732.482Z" fill="#D8D8D8"/>
<path d="M339.216 332.444C339.216 332.444 168.919 450.39 158.682 494.53C148.444 538.67 221.627 495.129 215.823 549.806C210.019 604.483 325.823 508.234 325.685 563.234C325.547 618.233 131.608 728.947 77.4718 637.235C23.3357 545.522 128.902 437.434 331.454 328.08C534.007 218.725 339.216 332.444 339.216 332.444Z" fill="white"/>
<path d="M232.602 588.511C242.687 580.64 252.321 572.209 261.46 563.257" stroke="#D8D8D8"/>
<path d="M220.279 596.687C222.007 595.754 223.884 594.626 225.922 593.232" stroke="#D8D8D8"/>
<path d="M336.267 334.54C336.705 332.341 336.394 330.867 335.115 330.314C335.115 330.314 173.721 423.155 150.159 487.333C126.598 551.51 194.587 519.404 203.708 535.584C211.481 549.403 188.242 606.89 213.485 599.612" stroke="#D8D8D8"/>
<path d="M180.123 423.42C221.224 392.016 272.25 360.082 331.453 328.126C533.971 218.737 339.215 332.444 339.215 332.444C339.215 332.444 168.919 450.39 158.681 494.53C148.443 538.67 221.627 495.129 215.823 549.806C210.019 604.483 325.822 508.234 325.684 563.234C325.546 618.233 131.607 728.947 77.4711 637.235C65.1376 616.345 61.084 594.626 64.5848 572.204" stroke="#191919"/>
<path d="M170.899 430.548C172.673 429.143 174.458 427.749 176.266 426.345" stroke="#191919"/>
<path d="M162.746 437.112L166.615 433.968" stroke="#191919"/>
<path d="M89.459 513.623C91.1058 511.193 92.8101 508.764 94.5951 506.322C108.679 487.091 127.335 467.525 150.159 447.718" stroke="#191919"/>
<path d="M82.1465 525.277C83.2981 523.251 84.5418 521.224 85.8316 519.185" stroke="#191919"/>
<path d="M252.179 578.596C252.179 578.596 201.728 627.481 194.542 608.963C187.356 590.446 189.061 530.54 156.54 543.806C124.019 557.073 112.054 578.757 103.498 557.222C99.686 547.63 89.5981 538.233 76.6312 535.584C69.9635 549.115 65.7372 562.439 64.125 575.544C73.948 571.214 81.2952 568.635 81.2836 572.193C81.2836 584.86 105.617 594.292 125.297 580.6C144.978 566.907 172.789 587.601 155.239 620.686C137.688 653.771 212.518 646.574 261.956 584.918C268.75 564.489 252.179 578.596 252.179 578.596Z" fill="#D8D8D8"/>
<path d="M421.623 748.167C445.288 749.445 467.572 751.437 483.418 755.341C472.777 755.733 214.729 755.341 214.729 755.341L172.374 715.37C172.374 715.37 255.38 610.126 260.079 643.971C260.079 643.971 217.723 717.846 237.83 718.709C257.937 719.573 314.422 695.344 297.39 732.528C292.784 742.536 327.942 744.539 370.677 746.117" stroke="#191919" stroke-width="1.11" stroke-linecap="round"/>
<path d="M637.234 755.698C642.221 734.521 612.832 729.546 606.844 741.257C600.856 752.969 579.459 746.877 586.208 732.436C592.956 717.995 580.588 712.214 563.257 705.316C545.925 698.418 564.224 671.149 564.224 671.149C560.504 677.678 546.547 658.113 541.353 669.456C536.16 680.799 532.29 709.658 554.113 712.779C575.936 715.899 580.427 720.84 576.903 728.958C573.379 737.077 583.317 757.69 604.817 747.867C626.317 738.044 630.279 755.698 630.279 755.698H637.234Z" fill="#D8D8D8"/>
<path d="M411.523 747.626L416.613 747.867" stroke="#191919" stroke-width="1.11" stroke-linecap="round"/>
<path d="M536.494 641.231C536.494 641.231 501.094 697.981 453.476 692.027C405.858 686.073 477.752 635.369 398.81 609.378C319.869 583.386 250.256 669.778 246.386 696.368C242.517 722.959 302.814 683.125 305.751 701.608C308.687 720.091 311.509 750.286 344.26 718.663" stroke="#D8D8D8" stroke-width="1.11"/>
<path d="M71.1953 727.081C71.1953 727.081 6.37248 724.087 10.8637 669.502C15.3549 614.917 64.2858 664.896 41.4268 611.669C18.5678 558.443 81.4559 530.989 98.1424 563.303C114.829 595.616 152.048 527.143 168.101 563.303C184.154 599.463 149.48 665.99 237.404 602.894C325.327 539.799 345.78 515.143 345.78 515.143C345.78 515.143 269.498 604.61 247.676 627.711C225.853 650.812 145.634 727.127 145.634 727.127L71.1953 727.081Z" fill="white"/>
<path d="M264.858 608.664C267.76 591.39 256.716 597.908 256.716 597.908C256.716 597.908 187.241 657.629 172.374 655.257C157.507 652.885 167.457 627.342 138.897 634.724C110.338 642.106 118.364 650.132 100.388 635.691C82.4119 621.251 47.7607 632.479 53.8641 657.502C59.622 681.363 11.2554 689.563 13.1095 657.019C11.9096 661.07 11.1566 665.241 10.8639 669.456C6.75271 719.469 60.67 726.206 69.8827 726.989C79.2865 718.42 87.7769 708.899 95.2176 698.58L142.709 690.518C142.709 690.518 214.591 652.735 248.01 627.181C252.133 622.932 257.994 616.414 264.858 608.664Z" fill="#D8D8D8"/>
<path d="M172.972 586.611C175.276 620.387 166.57 653.679 237.404 602.848C325.327 539.741 345.78 515.097 345.78 515.097C345.78 515.097 269.498 604.564 247.676 627.665C225.853 650.766 145.634 727.081 145.634 727.081H71.1953C71.1953 727.081 6.37248 724.087 10.8637 669.502C15.3549 614.917 64.2858 664.896 41.4268 611.669C33.4578 593.117 35.8992 577.698 43.1772 566.85" stroke="#191919"/>
<path d="M255.345 646.919C255.345 646.919 218.495 687.398 215.903 718.663C213.312 749.929 274.312 713.988 276.88 742.225C277.836 752.013 307.098 748.904 307.098 748.904" stroke="#D8D8D8"/>
<path d="M171.533 574.692C171.901 576.638 172.189 578.607 172.431 580.6" stroke="#191919"/>
<path d="M618.936 661.211C618.936 661.211 607.857 742.063 653.483 712.779C699.109 683.494 691.324 747.603 714.851 732.436C738.378 717.27 771.486 730.789 766.673 755.215" stroke="#191919"/>
<path d="M60.6699 552.397C74.6271 546.467 90.83 549.15 98.1425 563.314C114.829 595.639 152.048 527.154 168.101 563.314" stroke="#191919"/>
<path d="M766.396 689.321C763.391 670.734 753.729 657.537 730.593 705.132C729.315 708.529 714.552 739.956 690.806 706.756C667.06 673.556 689.424 594.66 637.234 627.538" stroke="#D8D8D8"/>
<path d="M767.376 698.649C767.284 696.933 767.145 695.194 766.95 693.443" stroke="#D8D8D8"/>
<path d="M52.252 557.222C53.5772 556.217 54.9658 555.297 56.4092 554.47" stroke="#191919"/>
<path d="M519.181 733.274C530.204 712.304 518.896 684.662 493.924 671.534C468.951 658.406 439.77 664.764 428.746 685.734C417.723 706.704 429.031 734.346 454.003 747.474C478.976 760.602 508.157 754.244 519.181 733.274Z" fill="#191919" stroke="#191919"/>
<path d="M491.659 718.806C495.971 710.604 491.544 699.79 481.771 694.652C471.998 689.515 460.58 691.999 456.268 700.202C451.956 708.404 456.383 719.218 466.156 724.356C475.929 729.493 487.347 727.008 491.659 718.806Z" fill="white" stroke="#191919"/>
<path d="M480.389 712.698C477.829 717.609 472.033 719.873 466.823 717.995L425.285 702.91L441.557 671.943L477.256 698.649C481.611 701.926 482.938 707.881 480.389 712.698Z" fill="#F9D12B"/>
<path d="M481.621 706.456C481.079 708.046 479.064 715.911 464.347 708.621C446.267 699.651 437.181 698.89 424.882 708.621C423.385 709.773 433.335 704.395 433.565 705.938L466.788 717.995C471.998 719.873 477.794 717.609 480.354 712.698C481.377 710.786 481.818 708.616 481.621 706.456Z" fill="#F7A02D"/>
<path fill-rule="evenodd" clip-rule="evenodd" d="M480.389 712.698C477.829 717.609 472.033 719.873 466.823 717.995L425.285 702.91L441.557 671.943L477.256 698.649C481.611 701.926 482.938 707.881 480.389 712.698V712.698Z" stroke="#191919" stroke-width="1.11"/>
<path d="M476.292 710.786C477.316 708.838 476.266 706.27 473.947 705.051C471.627 703.832 468.917 704.422 467.893 706.37C466.869 708.318 467.919 710.886 470.239 712.105C472.558 713.324 475.268 712.733 476.292 710.786Z" fill="#191919" stroke="#191919" stroke-width="1.11"/>
<path d="M421.692 682.285C414.126 696.691 412.94 712.997 417.086 728.694C428.419 730.291 439.534 724.6 444.862 714.471L462.435 681.075C467.469 671.504 466.338 659.857 459.556 651.434C443.273 656.673 429.638 667.187 421.692 682.285Z" fill="#F9D12B"/>
<path d="M424.571 718.157C417.132 715.692 423.765 686.741 423.765 686.741C422.717 685.29 421.623 684.668 420.518 684.737C414.046 698.557 413.205 713.884 417.12 728.694C428.453 730.291 439.568 724.6 444.897 714.471L450.896 703.059C443.48 699.57 431.285 720.391 424.571 718.157Z" fill="#F7A02D"/>
<path d="M456.896 691.578L462.435 681.052C467.469 671.481 466.338 659.834 459.556 651.411C443.273 656.673 429.615 667.187 421.692 682.285C414.126 696.691 412.94 712.997 417.086 728.694C428.419 730.292 439.534 724.6 444.862 714.471L450.735 703.301" stroke="#191919" stroke-width="1.11" stroke-linecap="round"/>
<path d="M420.241 686.741C428.299 686.741 434.832 680.209 434.832 672.151C434.832 664.092 428.299 657.56 420.241 657.56C412.183 657.56 405.65 664.092 405.65 672.151C405.65 680.209 412.183 686.741 420.241 686.741Z" fill="#191919" stroke="#191919" stroke-width="1.11"/>
<path d="M707.87 709.902C715.263 694.115 706.015 674.18 687.214 665.377C668.414 656.574 647.18 662.237 639.788 678.025C632.396 693.813 641.644 713.748 660.444 722.55C679.245 731.353 700.478 725.69 707.87 709.902Z" fill="#191919" stroke="#191919" stroke-width="1.11"/>
<path d="M687.147 700.199C690.039 694.025 686.42 686.227 679.064 682.783C671.709 679.34 663.402 681.553 660.511 687.728C657.62 693.902 661.239 701.7 668.595 705.144C675.95 708.588 684.256 706.374 687.147 700.199Z" fill="white" stroke="#191919" stroke-width="1.11"/>
<path d="M678.646 696.035C676.932 699.731 672.753 701.594 668.857 700.399L637.765 690.726L648.682 667.406L675.825 685.832C679.145 688.077 680.341 692.402 678.646 696.035Z" fill="#F9D12B"/>
<path d="M679.336 691.417C678.991 692.568 677.782 698.441 666.738 693.582C653.149 687.605 646.447 687.352 637.729 694.929C636.67 695.85 643.798 691.532 644.029 692.626L668.857 700.365C672.752 701.56 676.931 699.696 678.645 696C679.319 694.573 679.56 692.979 679.336 691.417Z" fill="#F7A02D"/>
<path fill-rule="evenodd" clip-rule="evenodd" d="M678.646 696.035C676.932 699.731 672.753 701.594 668.857 700.399L637.765 690.726L648.682 667.406L675.825 685.832C679.145 688.077 680.341 692.402 678.646 696.035V696.035Z" stroke="#191919" stroke-width="1.11"/>
<path d="M675.588 694.817C676.276 693.348 675.418 691.495 673.673 690.678C671.928 689.86 669.955 690.389 669.268 691.857C668.58 693.326 669.437 695.179 671.183 695.997C672.928 696.814 674.9 696.285 675.588 694.817Z" fill="#191919" stroke="#191919" stroke-width="1.11"/>
<path d="M634.471 675.686C629.392 686.522 629.081 698.557 632.663 709.946C641.047 710.732 649.023 706.17 652.597 698.545L664.377 673.394C667.748 666.186 666.522 657.665 661.257 651.698C649.464 656.121 639.803 664.308 634.471 675.686Z" fill="#F9D12B"/>
<path d="M637.776 701.942C632.237 700.388 636.118 678.91 636.118 678.91C635.604 678.049 634.667 677.53 633.665 677.552C629.514 687.9 629.159 699.384 632.663 709.969C641.047 710.755 649.023 706.193 652.597 698.568L656.616 689.989C651.065 687.651 642.82 703.359 637.776 701.942Z" fill="#F7A02D"/>
<path d="M660.647 681.375L664.355 673.452C667.725 666.243 666.5 657.722 661.234 651.756C649.442 656.178 639.78 664.366 634.448 675.744C629.37 686.58 629.059 698.614 632.64 710.003C641.025 710.789 649.001 706.228 652.574 698.603L656.513 690.196" stroke="#191919" stroke-width="1.11" stroke-linecap="round"/>
<path d="M633.066 679.014C638.993 679.014 643.799 674.209 643.799 668.281C643.799 662.354 638.993 657.549 633.066 657.549C627.138 657.549 622.333 662.354 622.333 668.281C622.333 674.209 627.138 679.014 633.066 679.014Z" fill="#191919" stroke="#191919" stroke-width="1.11"/>
<path d="M570.892 749.802C571.035 751.433 571.078 753.072 571.019 754.708" stroke="#191919" stroke-width="1.11" stroke-linecap="round"/>
<path d="M527.27 698.649C526.379 702.385 525.969 706.22 526.049 710.061C527.016 731.077 563.072 720.137 569.924 744.39" stroke="#191919" stroke-width="1.11" stroke-linecap="round"/>
<path d="M530.667 686.707C530.23 688.008 529.804 689.286 529.412 690.565" stroke="#191919" stroke-width="1.11" stroke-linecap="round"/>
<path d="M554.862 635.369C554.862 635.369 541.239 658.666 532.717 681.041" stroke="#191919" stroke-width="1.11" stroke-linecap="round"/>
<path d="M780.123 287.766C783.473 283.282 781.859 276.413 776.519 272.424C771.179 268.435 764.135 268.836 760.786 273.32C757.436 277.804 759.05 284.673 764.389 288.662C769.729 292.651 776.774 292.249 780.123 287.766Z" fill="#191919" stroke="#191919" stroke-width="1.11"/>
<path d="M774.237 283.369C775.546 281.616 774.914 278.93 772.825 277.369C770.736 275.809 767.981 275.965 766.672 277.717C765.362 279.47 765.994 282.156 768.083 283.717C770.173 285.277 772.927 285.121 774.237 283.369Z" fill="white" stroke="#191919" stroke-width="1.11"/>
<path d="M771.797 281.486C771.012 282.537 769.575 282.851 768.423 282.224L759.291 277.168L764.243 270.546L771.59 278.101C772.472 279.029 772.559 280.457 771.797 281.486Z" fill="#F9D12B"/>
<path d="M772.35 280.07C772.166 280.427 771.395 282.189 768.239 279.943C764.358 277.18 762.263 276.661 759.027 278.481C758.635 278.7 761.157 277.801 761.157 278.17L768.458 282.224C769.61 282.851 771.047 282.537 771.832 281.486C772.136 281.073 772.316 280.582 772.35 280.07Z" fill="#F7A02D"/>
<path fill-rule="evenodd" clip-rule="evenodd" d="M771.797 281.486C771.012 282.537 769.575 282.851 768.423 282.224L759.291 277.168L764.243 270.546L771.59 278.101C772.472 279.029 772.559 280.457 771.797 281.486V281.486Z" stroke="#191919" stroke-width="1.11"/>
<path d="M770.947 280.924C771.259 280.507 771.111 279.869 770.617 279.499C770.123 279.13 769.469 279.17 769.157 279.587C768.845 280.005 768.992 280.643 769.487 281.013C769.981 281.382 770.635 281.342 770.947 280.924Z" fill="#191919" stroke="#191919" stroke-width="1.11"/>
<path d="M759.222 272.216C756.964 275.302 755.964 279.13 756.424 282.926C759.013 283.708 761.816 282.788 763.437 280.623L768.781 273.471C770.3 271.421 770.467 268.666 769.207 266.447C765.247 266.974 761.657 269.049 759.222 272.216Z" fill="#F9D12B"/>
<path d="M758.531 280.692C756.884 279.84 759.509 273.322 759.509 273.322C759.393 273.022 759.133 272.802 758.819 272.734C756.839 275.724 755.983 279.319 756.4 282.88C758.99 283.662 761.792 282.742 763.413 280.577L765.233 278.135C763.667 277.053 760.051 281.463 758.531 280.692Z" fill="#F7A02D"/>
<path d="M767.087 275.683L768.78 273.437C770.3 271.386 770.467 268.632 769.206 266.412C765.314 266.892 761.775 268.905 759.375 272.006C756.974 275.107 755.912 279.038 756.424 282.926C759.013 283.708 761.815 282.788 763.437 280.623L765.222 278.228" stroke="#191919" stroke-width="1.11" stroke-linecap="round"/>
<path d="M759.257 273.23C761.158 273.23 762.7 271.688 762.7 269.786C762.7 267.885 761.158 266.343 759.257 266.343C757.355 266.343 755.813 267.885 755.813 269.786C755.813 271.688 757.355 273.23 759.257 273.23Z" fill="#191919" stroke="#191919" stroke-width="1.11"/>
<path d="M450.562 522.203L441.349 516.951L387.513 611.128L404.545 620.882L348.935 715.773L361.452 718.191C380.122 721.823 399.029 713.146 408.449 696.622L438.885 643.373C440.907 639.839 441.442 635.647 440.373 631.718C439.304 627.79 436.718 624.447 433.185 622.425C431.142 621.25 430.436 618.643 431.607 616.598L461.859 563.74C470.204 549.15 465.148 530.557 450.562 522.203Z" fill="#F9D12B"/>
<path d="M744.022 272.734C744.022 272.734 638.179 415.393 632.686 424.744C627.193 434.095 634.391 460.719 608.699 465.372C583.007 470.024 598.899 497.8 578.55 498.353C558.202 498.906 539.765 510.549 536.748 517.723C533.73 524.897 519.727 522.928 577.456 462.032C635.185 401.136 755.169 244.924 744.022 272.734Z" fill="white"/>
<path d="M590.699 468.09C585.885 475.252 582.753 497.455 557.971 491.386C555.812 490.844 553.561 490.774 551.372 491.179C546.239 497.206 541.504 503.561 537.196 510.203C537.292 511.876 537.723 513.513 538.463 515.017C544.221 507.957 560.608 498.894 578.55 498.376C598.898 497.823 583.018 470.047 608.698 465.395C634.379 460.742 627.181 434.141 632.686 424.767C637.787 416.049 729.615 292.139 742.501 274.784C755.387 257.43 625.442 411.547 622.345 441.315C619.247 471.084 595.513 460.938 590.699 468.09Z" fill="#D8D8D8"/>
<path fill-rule="evenodd" clip-rule="evenodd" d="M744.022 272.734C744.022 272.734 638.179 415.393 632.686 424.744C627.193 434.095 634.391 460.719 608.699 465.372C583.007 470.024 598.899 497.8 578.55 498.353C558.202 498.906 539.765 510.549 536.748 517.723C533.73 524.897 519.727 522.928 577.456 462.032C635.185 401.136 755.169 244.924 744.022 272.734Z" stroke="#191919" stroke-width="1.11"/>
<path d="M735.81 271.894C735.81 271.894 580.887 463.529 571.974 435.707C563.061 407.885 530.678 434.21 546.271 456.885C561.863 479.559 519.162 454.213 511.286 475.368C503.409 496.522 530.966 497.167 523.389 507.739C515.811 518.31 521.869 533.73 537.622 521.086C553.376 508.441 738.355 274.646 738.355 274.646L735.81 271.894Z" fill="white"/>
<path d="M565.341 443.803C560.528 464.842 590.676 430.675 590.676 430.675C580.542 438.379 573.587 441.039 571.894 435.718C567.806 423.051 558.892 421.612 551.845 425.93C556.635 427.692 568.52 429.949 565.341 443.803Z" fill="#D8D8D8"/>
<path d="M736.974 273.161L729.869 283.087C729.869 283.087 655.188 372.243 591.978 449.307C528.767 526.371 533.903 502.2 539.73 491.363C545.557 480.527 515.65 489.981 516.48 476.911C516.779 472.109 519.554 468.85 522.951 466.604C517.792 467.456 513.336 469.805 511.274 475.345C503.409 496.488 530.955 497.144 523.378 507.716C515.8 518.287 521.857 533.707 537.611 521.063C553.365 508.418 738.344 274.623 738.344 274.623L736.974 273.161Z" fill="#D8D8D8"/>
<path d="M677.159 351.503C711.35 308.675 738.297 274.612 738.297 274.612L735.81 271.894C735.81 271.894 662.454 362.627 613.742 410.165C611.093 412.76 608.521 415.213 606.026 417.523C587.796 434.44 574.346 443.342 571.881 435.707C562.899 407.885 530.586 434.21 546.178 456.885C561.77 479.559 519.07 454.213 511.193 475.368C503.316 496.522 530.873 497.167 523.296 507.739C515.719 518.31 521.776 533.73 537.53 521.086C540.881 518.402 551.913 505.666 567.206 487.298" stroke="#191919" stroke-width="1.11" stroke-linecap="round"/>
<path d="M614.502 429.523C631.327 408.714 649.05 386.649 665.655 365.875" stroke="#191919" stroke-width="1.11" stroke-linecap="round"/>
<path d="M602.895 443.826C604.99 441.261 607.098 438.667 609.217 436.041" stroke="#191919" stroke-width="1.11" stroke-linecap="round"/>
<path d="M591.252 458.128L597.137 450.919" stroke="#191919" stroke-width="1.11" stroke-linecap="round"/>
<path d="M271.71 589.973C271.71 589.973 164.67 694.353 161.676 669.433C162.966 642.186 132.806 636.094 128.948 657.537C125.09 678.98 98.7877 627.02 69.8829 646.919C40.9781 666.819 89.1374 680.154 64.7468 695.286C40.3562 710.418 19.2131 755.376 87.8822 755.698C156.551 756.021 253.711 755.698 253.711 755.698C253.711 755.698 246.859 736.34 229.953 736.973C213.048 737.607 176.048 723.074 267.599 628.091C295.375 600.925 271.71 589.973 271.71 589.973V589.973Z" fill="white"/>
<path d="M191.847 706.848C182.853 747.672 151.093 691.877 129.27 706.929C107.447 721.98 52.3786 759.406 50.2366 708.621C35.4272 727.853 34.1144 755.445 87.882 755.698C156.54 756.021 253.71 755.698 253.71 755.698C253.71 755.698 246.858 736.34 229.953 736.973C213.67 737.595 178.742 724.099 258.098 638.179L258.616 621.089C258.616 621.089 200.83 666.013 191.847 706.848Z" fill="#D8D8D8"/>
<path d="M198.664 748.167C200.105 750.958 201.926 753.535 204.077 755.825" stroke="white"/>
<path d="M597.412 747.372C601.416 747.144 605.002 744.82 606.844 741.257C612.832 729.546 642.22 734.521 637.234 755.698" stroke="#191919"/>
<path d="M584.906 738.044C584.948 739.571 585.389 741.06 586.185 742.363" stroke="#191919"/>
<path d="M564.224 671.149C564.224 671.149 545.937 698.418 563.256 705.316C580.576 712.214 592.944 717.984 586.208 732.436" stroke="#191919"/>
<path d="M254.712 631.523C254.712 631.523 184.995 693.34 195.048 738.044" stroke="white"/>
<path d="M145.554 688.791C144.034 686.563 142.836 684.133 141.995 681.571" stroke="#D8D8D8"/>
<path d="M254.136 617.623C254.136 617.623 207.9 658.689 190.143 678.795C176.715 694.008 160.466 700.768 150.01 693.351" stroke="#D8D8D8"/>
<path d="M56.2474 701.954C36.5898 720.632 27.4577 755.41 87.8815 755.698C156.539 756.021 253.71 755.698 253.71 755.698C253.71 755.698 246.858 736.34 229.953 736.973C213.047 737.607 176.047 723.074 267.598 628.091C295.409 600.925 271.744 589.973 271.744 589.973" stroke="#191919"/>
<path d="M69.8828 646.919C41.001 666.807 89.1373 680.154 64.7467 695.286" stroke="#191919"/>
<path d="M707.147 757.161C720.794 748.754 734.118 741.776 743.112 746.393C754.984 752.485 733.645 763.667 741.188 765.487" stroke="#D8D8D8"/>
<path d="M699.662 761.836L703.635 759.337" stroke="#D8D8D8"/>
<path d="M634.16 735.073C660.359 727.012 672.543 732.908 666.22 746.589C659.898 760.27 672.139 772.523 687.076 768.469C689.512 767.78 691.838 766.749 693.985 765.406" stroke="#D8D8D8"/>
<path d="M384.691 690.184C380.845 675.375 431.192 584.918 431.192 584.918C423.673 585.747 411.615 599.267 398.856 617.565L404.545 620.824L348.935 715.715L361.452 718.133C380.109 721.776 399.012 713.124 408.449 696.622L430.237 658.562C421.197 651.94 388.538 704.994 384.691 690.184Z" fill="#F7A02D"/>
<path fill-rule="evenodd" clip-rule="evenodd" d="M450.562 522.203L441.349 516.951L387.513 611.128L404.545 620.882L348.935 715.773L361.452 718.191C380.122 721.823 399.029 713.146 408.449 696.622L438.885 643.373C440.907 639.839 441.442 635.647 440.373 631.718C439.304 627.79 436.718 624.447 433.185 622.425C431.142 621.25 430.436 618.643 431.607 616.598L461.859 563.74C470.204 549.15 465.148 530.557 450.562 522.203V522.203Z" stroke="#191919"/>
<path d="M767.329 710.038C764.933 742.743 823.33 709.566 818.839 742.42C814.348 775.275 862.058 736.582 872.342 746.52C872.342 746.52 879.965 752.278 871.87 755.929" stroke="#D8D8D8" stroke-linecap="round"/>
<path d="M933.445 755.698C938.466 745.495 922.436 747.637 907.108 755.698" stroke="#D8D8D8" stroke-linecap="round"/>
<path d="M603.792 739.576L747.913 384.91L569.774 667.441L603.792 739.576Z" fill="#F9D12B" stroke="#191919"/>
<path d="M626.099 659.046C626.859 637.718 646.654 608.053 655.694 596.445C675.363 571.11 673.152 542.263 678.415 529.319C696.299 485.283 734.739 405.04 744.056 391.129C722.475 410.867 584.803 656.731 574.047 676.722L598.472 728.544L601.777 735.557C601.777 735.557 596.756 706.353 607.316 693.248C617.876 680.143 625.35 680.384 626.099 659.046Z" fill="#F7A02D"/>
<path fill-rule="evenodd" clip-rule="evenodd" d="M603.792 739.576L747.913 384.91L569.774 667.441L603.792 739.576Z" stroke="#191919" stroke-width="1.11"/>
<path d="M749.077 381.398L536.494 646.528L556.117 745.127L749.077 381.398Z" fill="#F9D12B"/>
<path d="M749.077 381.398L526.072 588.603L532.717 627.538L749.077 381.398Z" fill="white"/>
<path d="M532.717 627.538L538.958 643.373L749.077 381.398L602.998 547.618L582.016 571.479C553.952 603.401 533.488 626.675 532.717 627.538Z" fill="#F7A02D"/>
<path d="M749.077 381.398L526.072 588.603L532.717 627.538" fill="#F9D12B"/>
<path d="M749.077 381.398L526.072 588.603L532.717 627.538" stroke="#191919" stroke-width="1.11"/>
<path d="M611.428 538.025L602.998 547.618" stroke="#191919" stroke-width="1.11" stroke-linecap="round"/>
<path d="M624.821 522.778C623.174 524.667 621.516 526.544 619.869 528.41" stroke="#191919" stroke-width="1.11" stroke-linecap="round"/>
<path d="M749.077 381.398L630.464 516.318" stroke="#191919" stroke-width="1.11" stroke-linecap="round"/>
<path d="M571.019 583.985C548.758 609.32 533.385 626.79 532.717 627.538L538.958 643.373" stroke="#191919" stroke-width="1.11" stroke-linecap="round"/>
<path d="M582.016 571.479L576.995 577.237" stroke="#191919" stroke-width="1.11" stroke-linecap="round"/>
<path d="M600.027 567.287L749.077 381.398L556.117 745.127L536.494 646.528L588.799 581.29" stroke="#191919" stroke-width="1.11"/>
<path d="M427.384 381.232C432.836 373.426 429.718 361.834 420.421 355.341C411.124 348.848 399.168 349.913 393.716 357.718C388.265 365.524 391.382 377.116 400.68 383.609C409.977 390.102 421.933 389.037 427.384 381.232Z" fill="#191919" stroke="#191919" stroke-width="1.11"/>
<path d="M417.14 374.077C419.274 371.022 418.053 366.484 414.414 363.942C410.774 361.401 406.094 361.817 403.96 364.873C401.826 367.928 403.046 372.466 406.686 375.008C410.325 377.549 415.006 377.133 417.14 374.077Z" fill="white" stroke="#191919" stroke-width="1.11"/>
<path d="M412.951 371.034C411.684 372.864 409.261 373.479 407.274 372.473L391.463 364.412L399.524 352.896L412.41 365.345C413.947 366.859 414.175 369.257 412.951 371.034Z" fill="#F9D12B"/>
<path d="M413.757 368.616C413.458 369.214 412.26 372.255 406.767 368.616C400.007 364.124 396.403 363.364 391.025 366.635C390.369 367.026 394.618 365.368 394.629 366.001L407.297 372.485C409.283 373.49 411.707 372.876 412.974 371.045C413.47 370.331 413.742 369.485 413.757 368.616Z" fill="#F7A02D"/>
<path fill-rule="evenodd" clip-rule="evenodd" d="M412.951 371.034C411.684 372.864 409.261 373.479 407.274 372.473L391.463 364.412L399.524 352.896L412.41 365.345C413.947 366.859 414.175 369.257 412.951 371.034V371.034Z" stroke="#191919" stroke-width="1.11"/>
<path d="M411.424 370.101C411.93 369.376 411.639 368.298 410.773 367.694C409.908 367.089 408.796 367.187 408.29 367.912C407.783 368.636 408.075 369.714 408.94 370.319C409.806 370.923 410.918 370.826 411.424 370.101Z" fill="#191919" stroke="#191919" stroke-width="1.11"/>
<path d="M391.071 355.948C387.422 361.299 385.933 367.832 386.902 374.235C391.343 375.438 396.061 373.724 398.694 369.951L407.389 357.514C409.868 353.944 410.004 349.245 407.734 345.538C401.026 346.679 395.038 350.419 391.071 355.948Z" fill="#F9D12B"/>
<path d="M390.404 370.447C387.559 369.088 391.659 357.871 391.659 357.871C391.462 357.378 391.029 357.018 390.508 356.915C387.296 362.097 386.03 368.252 386.938 374.281C391.378 375.484 396.096 373.77 398.73 369.997L401.701 365.76C398.891 363.94 392.983 371.598 390.404 370.447Z" fill="#F7A02D"/>
<path d="M404.649 361.43L407.39 357.514C409.869 353.944 410.005 349.245 407.735 345.538C401.158 346.562 395.261 350.167 391.351 355.554C387.441 360.941 385.84 367.664 386.903 374.235C391.344 375.438 396.062 373.724 398.696 369.951L401.598 365.794" stroke="#191919" stroke-width="1.11" stroke-linecap="round"/>
<path d="M391.002 357.698C394.239 357.698 396.864 355.074 396.864 351.837C396.864 348.6 394.239 345.975 391.002 345.975C387.765 345.975 385.141 348.6 385.141 351.837C385.141 355.074 387.765 357.698 391.002 357.698Z" fill="#191919" stroke="#191919" stroke-width="1.11"/>
<path d="M356.939 383.333L538.06 198.33L354.141 329.473L356.939 383.333Z" fill="#F9D12B" stroke="#191919" stroke-width="1.11"/>
<path d="M391.555 338.663C397.497 325.512 417.489 312.027 426.103 307.075C444.897 296.284 450.919 277.652 457.529 270.892C480.008 247.918 524.644 207.555 534.018 201.209C515.466 208.073 366.278 326.594 354.439 336.314L356.443 374.984L356.72 380.224C356.72 380.224 361.061 360.647 371.034 355.165C381.007 349.683 385.601 351.825 391.555 338.663Z" fill="#F7A02D"/>
<path fill-rule="evenodd" clip-rule="evenodd" d="M356.938 383.333L538.06 198.33L354.14 329.473L356.938 383.333Z" stroke="#191919" stroke-width="1.11"/>
<path d="M539.672 196.43L338.674 307.858L325.685 374.592L539.672 196.43Z" fill="#F9D12B"/>
<path d="M539.672 196.43L347 268.934L341.185 294.995L539.672 196.43Z" fill="white"/>
<path d="M341.184 294.995L341.012 306.51L539.729 196.43L405.65 263.004L386.407 272.562C360.658 285.344 341.887 294.661 341.184 294.995Z" fill="#F7A02D"/>
<path d="M539.673 196.43L344.974 265.019L341.186 294.995" fill="#F9D12B"/>
<path d="M539.673 196.43L344.974 265.019L341.186 294.995" stroke="#191919" stroke-width="1.11"/>
<path d="M413.39 259.169L405.651 263.004" stroke="#191919" stroke-width="1.11" stroke-linecap="round"/>
<path d="M425.724 253.054L421.117 255.288" stroke="#191919" stroke-width="1.11" stroke-linecap="round"/>
<path d="M539.731 196.43C539.731 196.43 483.533 224.356 430.929 250.474" stroke="#191919" stroke-width="1.11" stroke-linecap="round"/>
<path d="M376.32 277.571C355.891 287.717 341.773 294.707 341.185 294.995L341.013 306.51" stroke="#191919" stroke-width="1.11" stroke-linecap="round"/>
<path d="M386.408 272.562L381.802 274.865" stroke="#191919" stroke-width="1.11" stroke-linecap="round"/>
<path d="M398.741 274.554L539.672 196.43L325.685 374.592L338.674 307.858L388.135 280.439" stroke="#191919" stroke-width="1.11"/>
<path d="M742.156 291.471L813.416 184.454L735.811 265.456L742.156 291.471Z" fill="#F9D12B" stroke="#191919" stroke-width="1.11"/>
<path d="M754.915 266.481C756.597 259.572 765.095 251.085 768.849 247.86C777.026 240.859 778.246 231.208 780.837 227.304C789.682 214.015 807.727 190.2 811.712 186.193C803.282 191.237 741.465 262.888 736.582 268.727L741.188 287.406L741.81 289.939C741.81 289.939 742.11 279.989 746.417 276.385C750.724 272.781 753.222 273.448 754.915 266.481Z" fill="#F7A02D"/>
<path fill-rule="evenodd" clip-rule="evenodd" d="M742.156 291.471L813.416 184.454L735.811 265.456L742.156 291.471Z" stroke="#191919" stroke-width="1.11"/>
<path d="M814.026 183.383L726.264 256.336L726.091 290.1L814.026 183.383Z" fill="#F9D12B"/>
<path d="M814.026 183.383L726.724 236.575L726.298 249.829L814.026 183.383Z" fill="white"/>
<path d="M726.287 249.829L727.266 255.472L814.026 183.383L754.789 228.295C751.829 230.54 749.031 232.705 746.279 234.732L726.287 249.829Z" fill="#F7A02D"/>
<path d="M814.027 183.383L726.725 236.575L726.299 249.829" fill="#F9D12B"/>
<path d="M814.027 183.383L726.725 236.575L726.299 249.829" stroke="#191919" stroke-width="1.11"/>
<path d="M758.208 225.669L754.753 228.26" stroke="#191919" stroke-width="1.11" stroke-linecap="round"/>
<path d="M763.643 221.546L761.64 223.043" stroke="#191919" stroke-width="1.11" stroke-linecap="round"/>
<path d="M814.025 183.383L765.946 219.808" stroke="#191919" stroke-width="1.11" stroke-linecap="round"/>
<path d="M741.821 238.083L726.286 249.829L727.265 255.472" stroke="#191919" stroke-width="1.11" stroke-linecap="round"/>
<path d="M746.278 234.698L744.251 236.241" stroke="#191919" stroke-width="1.11" stroke-linecap="round"/>
<path d="M752.497 234.536L814.026 183.383L726.091 290.1L726.264 256.336L747.856 238.383" stroke="#191919" stroke-width="1.11"/>
<path d="M331.465 755.307L613.776 272.988L297.39 643.983L331.465 755.307Z" fill="#F9D12B" stroke="#191919" stroke-width="1.11"/>
<path d="M380.534 643.626C386.096 612.959 420.84 574.254 436.363 559.353C470.07 526.913 472.914 484.73 483.209 467.122C518.241 407.24 590.549 299.336 606.844 281.106C571.548 305.117 321.25 631.592 301.593 658.147L326.064 738.079L329.381 748.904C329.381 748.904 328.229 705.65 346.228 688.929C364.228 672.208 374.983 674.293 380.534 643.626Z" fill="#F7A02D"/>
<path fill-rule="evenodd" clip-rule="evenodd" d="M331.465 755.307L613.776 272.988L297.39 643.983L331.465 755.307Z" stroke="#191919" stroke-width="1.11"/>
<path d="M616.172 268.151L253.676 606.821L259.848 754.835L616.172 268.151Z" fill="#F9D12B"/>
<path d="M616.172 268.151L250.451 521.281L252.179 578.596L616.172 268.151Z" fill="white"/>
<path d="M252.179 578.596L257.879 602.848L616.172 268.151C616.172 268.151 476.692 387.156 370.447 477.797L335.151 507.911C287.901 548.159 253.48 577.513 252.179 578.596Z" fill="#F7A02D"/>
<path d="M616.172 268.151L250.451 521.281L252.179 578.596" fill="#F9D12B"/>
<path d="M616.172 268.151L250.451 521.281L252.179 578.596" stroke="#191919" stroke-width="1.11"/>
<path d="M384.588 465.706L370.446 477.797" stroke="#191919" stroke-width="1.11" stroke-linecap="round"/>
<path d="M407.136 446.451L398.81 453.557" stroke="#191919" stroke-width="1.11" stroke-linecap="round"/>
<path d="M616.172 268.151L416.683 438.39" stroke="#191919" stroke-width="1.11" stroke-linecap="round"/>
<path d="M316.622 523.677C279.161 555.622 253.284 577.663 252.133 578.596L257.833 602.848" stroke="#191919" stroke-width="1.11" stroke-linecap="round"/>
<path d="M335.116 507.911L326.687 515.097" stroke="#191919" stroke-width="1.11" stroke-linecap="round"/>
<path d="M362.006 505.608L616.172 268.151L259.848 754.835L253.676 606.821L342.866 523.492" stroke="#191919" stroke-width="1.11"/>
<path d="M643.476 755.698H654.98H643.476Z" fill="#CECCCC"/>
<path d="M643.476 755.698H654.98" stroke="#191919" stroke-width="1.11" stroke-linecap="round"/>
<path d="M611.991 755.698H625.891H611.991Z" fill="#CECCCC"/>
<path d="M611.991 755.698H625.891" stroke="#191919" stroke-width="1.11" stroke-linecap="round"/>
<path d="M185.214 755.698H601.501H185.214Z" fill="#CECCCC"/>
<path d="M185.214 755.698H601.501" stroke="#191919" stroke-width="1.11" stroke-linecap="round"/>
<path d="M749.076 755.698H987.904H749.076Z" fill="#CECCCC"/>
<path d="M749.076 755.698H987.904" stroke="#191919" stroke-width="1.11" stroke-linecap="round"/>
<path d="M722.636 755.698H732.148H722.636Z" fill="#CECCCC"/>
<path d="M722.636 755.698H732.148" stroke="#191919" stroke-width="1.11" stroke-linecap="round"/>
<path d="M437.423 666.704C437.423 666.704 445.875 658.896 450.09 660.186C454.305 661.475 444.528 663.502 446.025 666.174C447.522 668.846 432.932 671.736 437.423 666.704Z" fill="white"/>
<path d="M454.224 657.56C454.224 657.56 460.097 655.695 460.201 658.47C460.305 661.245 449.906 660.393 454.224 657.56Z" fill="white"/>
<path d="M80.661 682.86C80.661 682.86 85.4747 700.825 68.627 705.639" stroke="#D8D8D8" stroke-width="1.11" stroke-linecap="round"/>
<path d="M71.932 600.476C70.6507 598.645 69.5442 596.698 68.627 594.66" stroke="#D8D8D8" stroke-width="1.11" stroke-linecap="round"/>
<path d="M114.345 600.464C97.4051 609.021 85.774 611.566 77.4941 606.027" stroke="#D8D8D8" stroke-width="1.11" stroke-linecap="round"/>
<path d="M255.956 594.66C255.956 594.66 191.409 648.877 174.516 642.866C157.622 636.855 169.38 568.324 133.059 589.973" stroke="#D8D8D8" stroke-width="1.11" stroke-linecap="round"/>
<path d="M432.793 606.268C432.793 606.268 451.932 601.144 454.673 635.369" stroke="#D8D8D8" stroke-width="1.11" stroke-linecap="round"/>
<path d="M161.261 537.219C177.441 534.386 191.559 533.765 192.054 547.227" stroke="#D8D8D8" stroke-width="1.11" stroke-linecap="round"/>
<path d="M194.542 422.487C194.542 422.487 129.051 470.22 114.345 520.706C106.676 547.054 127.83 543.68 150.045 539.361" stroke="#D8D8D8" stroke-width="1.11" stroke-linecap="round"/>
<path d="M102.126 515.097C101.316 517.155 100.639 519.263 100.1 521.408" stroke="#D8D8D8" stroke-width="1.11" stroke-linecap="round"/>
<path d="M141.994 463.38C141.994 463.38 115.853 486.411 104.36 510.019" stroke="#D8D8D8" stroke-width="1.11" stroke-linecap="round"/>
<path d="M537.196 472.546C542.183 472.88 546.962 474.435 545.879 479.456C543.737 489.29 546.294 499.24 588.488 447.096C603.459 428.59 615.654 414.149 624.901 403.497" stroke="#D8D8D8" stroke-width="1.11" stroke-linecap="round"/>
<path d="M527.27 473.076C529.074 472.795 530.892 472.611 532.717 472.523" stroke="#D8D8D8" stroke-width="1.11" stroke-linecap="round"/>
<path d="M552.72 437.239C552.72 437.239 562.347 433.116 557.004 448.916C551.66 464.715 556.439 473.928 569.775 460.121C583.11 446.313 600.43 427.554 600.43 427.554" stroke="#D8D8D8" stroke-width="1.11" stroke-linecap="round"/>
<mask id="mask1_0_2055" style="mask-type:luminance" maskUnits="userSpaceOnUse" x="828" y="506" width="96" height="193">
<path fill-rule="evenodd" clip-rule="evenodd" d="M897.032 636.855C894.589 629.121 893.259 621.079 893.082 612.971C892.76 569.015 910.725 506.069 910.725 506.069C910.725 506.069 822.663 550.727 828.329 626.099C828.329 626.099 847.33 665.345 890.341 698.153C891.432 694.89 893.038 691.823 895.098 689.067C895.927 691.809 897.157 694.413 898.748 696.795C908.801 692.396 923.265 666.934 923.265 666.934C923.265 666.934 905.404 661.13 897.032 636.855Z" fill="white"/>
</mask>
<g mask="url(#mask1_0_2055)">
<path d="M897.032 636.855C894.589 629.121 893.259 621.079 893.082 612.971C892.76 569.015 910.725 506.069 910.725 506.069C910.725 506.069 822.663 550.727 828.329 626.099C828.329 626.099 847.33 665.345 890.341 698.153C891.432 694.89 893.038 691.823 895.098 689.067C895.927 691.809 897.157 694.413 898.748 696.795C908.801 692.396 923.265 666.934 923.265 666.934C923.265 666.934 905.404 661.13 897.032 636.855Z" fill="#1A6BE2"/>
<g opacity="0.43">
<path d="M891.47 526.486C891.47 526.486 853.352 648.555 920.409 677.01" stroke="#191919" stroke-width="1.11"/>
<path d="M872.964 525.001C872.964 525.001 842.954 650.858 906.878 681.617" stroke="#191919" stroke-width="1.11"/>
<path d="M850.796 546.858C850.796 546.858 836.182 671.011 902.779 691.06" stroke="#191919" stroke-width="1.11"/>
</g>
</g>
<path fill-rule="evenodd" clip-rule="evenodd" d="M897.033 636.855C894.59 629.121 893.26 621.079 893.083 612.971C892.761 569.015 910.726 506.069 910.726 506.069C910.726 506.069 822.664 550.727 828.33 626.099C828.33 626.099 847.331 665.345 890.342 698.153C891.433 694.89 893.039 691.823 895.098 689.067C895.928 691.809 897.158 694.413 898.749 696.795C908.802 692.396 923.266 666.934 923.266 666.934C923.266 666.934 905.405 661.13 897.033 636.855V636.855Z" stroke="#191919" stroke-width="1.11" stroke-linecap="round"/>
<path d="M923.888 667.199C922.298 665.84 917.784 667.821 912.521 671.621C914.468 675.076 916.46 678.427 918.452 681.628C923.07 674.742 925.776 668.823 923.888 667.199Z" fill="#191919" stroke="#191919" stroke-width="1.11" stroke-linecap="round"/>
<path d="M908.502 514.395C908.502 514.395 886.023 556.566 887.946 579.978C889.87 603.389 854.804 613.374 864.915 629.692C875.026 646.01 859.399 664.873 863.061 673.751C850.612 659.587 842.632 648.946 837.346 636.118C832.06 623.289 842.09 514.257 908.502 514.395Z" fill="#191919" stroke="#191919" stroke-width="1.11" stroke-linecap="round"/>
<path d="M918.452 681.628C916.46 678.427 914.468 675.076 912.521 671.621C907.504 675.312 902.922 679.562 898.864 684.288C894.073 689.885 891.401 694.653 890.342 698.2C892.914 700.157 895.57 702.077 898.311 703.957C906.895 709.922 915.906 715.249 925.269 719.895C923.024 744.931 917.888 753.591 919.822 753.291C921.757 752.992 937.568 728.049 941.207 717.592C939.86 712.779 929.323 699.213 918.452 681.628Z" fill="#F9896E" stroke="#191919" stroke-width="1.11" stroke-linecap="round"/>
<path d="M795.382 705.132C797.904 728.394 801.647 741.983 801.647 741.983C801.647 741.983 784.649 749.365 772.776 752.243C772.776 755.779 809.627 754.547 812.564 754.547C815.477 737.998 819.059 721.98 823.112 706.583C813.807 708.932 803.961 707.712 795.382 705.132V705.132Z" fill="#F9896E" stroke="#191919" stroke-width="1.11" stroke-linecap="round"/>
<mask id="mask2_0_2055" style="mask-type:luminance" maskUnits="userSpaceOnUse" x="774" y="452" width="137" height="256">
<path fill-rule="evenodd" clip-rule="evenodd" d="M828.848 492.238C855.852 392.211 910.725 510.491 910.725 510.491C910.725 510.491 857.084 585.701 826.015 695.793C825.013 699.328 824.045 702.898 823.09 706.514C813.877 708.932 803.962 707.666 795.359 705.132C787.871 702.932 780.781 699.554 774.354 695.125C774.677 686.131 776.658 595.973 826.982 499.701C827.759 497.255 828.382 494.762 828.848 492.238Z" fill="white"/>
</mask>
<g mask="url(#mask2_0_2055)">
<path d="M828.848 492.238C855.852 392.211 910.725 510.491 910.725 510.491C910.725 510.491 857.084 585.701 826.015 695.793C825.013 699.328 824.045 702.898 823.09 706.514C813.877 708.932 803.962 707.666 795.359 705.132C787.871 702.932 780.781 699.554 774.354 695.125C774.677 686.131 776.658 595.973 826.982 499.701C827.759 497.255 828.382 494.762 828.848 492.238Z" fill="#1A6BE2"/>
<g opacity="0.43">
<path d="M843.99 484.857C843.99 484.857 783.256 581.187 785.651 731.826" stroke="#191919" stroke-width="1.11"/>
<path d="M861.852 486.043C861.852 486.043 797.536 580.035 794.288 730.651" stroke="#191919" stroke-width="1.11"/>
<path d="M886.542 488.749C886.542 488.749 815.719 577.962 801.762 727.933" stroke="#191919" stroke-width="1.11"/>
<path d="M912.498 495.543C912.498 495.543 835.687 579.678 811.504 728.325" stroke="#191919" stroke-width="1.11"/>
</g>
</g>
<path fill-rule="evenodd" clip-rule="evenodd" d="M828.847 492.238C855.851 392.212 910.724 510.491 910.724 510.491C910.724 510.491 857.083 585.701 826.014 695.793C825.012 699.328 824.044 702.898 823.089 706.514C813.876 708.932 803.961 707.666 795.358 705.132C787.87 702.932 780.78 699.554 774.354 695.125C774.676 686.131 776.657 595.973 826.981 499.701C827.758 497.255 828.381 494.762 828.847 492.238V492.238Z" stroke="#191919" stroke-width="1.11" stroke-linecap="round"/>
<mask id="mask3_0_2055" style="mask-type:luminance" maskUnits="userSpaceOnUse" x="810" y="379" width="69" height="83">
<path fill-rule="evenodd" clip-rule="evenodd" d="M876.512 404.798C867.575 404.153 850.244 422.901 840.456 411.028C835.377 404.867 837.001 396.058 840.11 388.538C839.801 388.587 839.49 388.618 839.177 388.63L839.811 387.075L818.311 379.913C818.311 379.913 799.885 406.514 818.057 439.887L818.322 440.382L818.598 440.901C826.372 454.789 841.561 461.687 841.561 461.687C858.178 466.811 885.46 405.443 876.512 404.798Z" fill="white"/>
</mask>
<g mask="url(#mask3_0_2055)">
<path d="M876.512 404.798C867.575 404.153 850.244 422.901 840.456 411.028C835.377 404.867 837.001 396.058 840.11 388.538C839.801 388.587 839.49 388.618 839.177 388.63L839.811 387.075L818.311 379.913C818.311 379.913 799.885 406.514 818.057 439.887L818.322 440.382L818.598 440.901C826.372 454.789 841.561 461.687 841.561 461.687C858.178 466.811 885.46 405.443 876.512 404.798Z" fill="#E51F10"/>
<path d="M834.202 388.676C834.202 388.676 823.607 417.558 841.676 422.21C856.404 425.999 863.394 410.015 877.835 411.938" stroke="white" stroke-width="1.11" stroke-linecap="round"/>
<path d="M828.248 386.88C828.248 386.88 809.328 437.906 854.251 431.676" stroke="white" stroke-width="1.11" stroke-linecap="round"/>
</g>
<path d="M857.464 424.94C857.464 424.94 834.95 442.398 820.106 443.365C824.241 448.674 831.357 456.827 837.242 457.679C843.127 458.531 855 433.496 855 433.496" fill="#191919"/>
<path d="M857.464 424.94C857.464 424.94 834.95 442.398 820.106 443.365C824.241 448.674 831.357 456.827 837.242 457.679C843.127 458.531 855 433.496 855 433.496" stroke="#191919" stroke-width="1.11"/>
<path fill-rule="evenodd" clip-rule="evenodd" d="M876.511 404.798C867.574 404.153 850.243 422.901 840.455 411.028C835.376 404.867 837 396.058 840.109 388.538C839.8 388.587 839.489 388.618 839.176 388.63L839.81 387.075L818.31 379.913C818.31 379.913 799.884 406.514 818.056 439.887L818.321 440.382L818.597 440.901C826.371 454.789 841.56 461.687 841.56 461.687C858.177 466.811 885.459 405.443 876.511 404.798V404.798Z" stroke="#191919" stroke-width="1.11" stroke-linecap="round"/>
<mask id="mask4_0_2055" style="mask-type:luminance" maskUnits="userSpaceOnUse" x="823" y="403" width="98" height="120">
<path fill-rule="evenodd" clip-rule="evenodd" d="M877.028 404.879C880.598 403.923 884.514 403.82 890.997 404.13C890.997 404.13 919.234 408.576 920.674 461.203C921.825 501.036 915.549 529.815 857.141 520.395C788.541 509.328 844.3 444.827 857.463 424.94C859.306 423.788 873.182 445.749 877.04 404.879" fill="white"/>
</mask>
<g mask="url(#mask4_0_2055)">
<path d="M877.028 404.879C880.598 403.923 884.514 403.82 890.997 404.13C890.997 404.13 919.234 408.576 920.674 461.203C921.825 501.036 915.549 529.815 857.141 520.395C788.541 509.328 844.3 444.827 857.463 424.94" fill="#E51F10"/>
<path d="M847.537 440.693C847.537 440.693 864.995 462.251 920.674 460.685C932.19 474.965 920.19 479.974 920.19 479.974C920.19 479.974 862.611 494.518 834.904 457.668C826.324 438.39 847.537 440.693 847.537 440.693Z" fill="white"/>
</g>
<path d="M832.048 379.083C825.208 377.08 819.127 377.31 818.459 379.59C817.791 381.87 822.133 384.841 828.248 386.88C830.09 384.162 831.806 381.686 833.188 379.429C832.82 379.314 832.44 379.187 832.048 379.083Z" fill="#191919" stroke="#191919" stroke-width="1.11" stroke-linecap="round"/>
<path d="M890.963 404.13C890.963 404.13 919.2 408.576 920.639 461.203C921.791 501.036 915.135 531.922 857.106 520.395C788.506 506.76 844.266 444.827 857.429 424.94" stroke="#191919" stroke-width="1.11" stroke-linecap="round"/>
<path d="M710.913 445.104C704.598 448.823 700.036 454.915 698.245 462.021L706.076 475.034C707.864 467.924 712.427 461.827 718.743 458.105L710.913 445.104Z" fill="#191919" stroke="#191919" stroke-width="1.11"/>
<path d="M718.744 458.105C712.427 461.827 707.865 467.924 706.076 475.034L713.918 488.035C715.708 480.929 720.271 474.836 726.586 471.118L718.744 458.105Z" fill="white" stroke="#191919" stroke-width="1.11"/>
<path d="M703.071 432.091C696.752 435.81 692.189 441.908 690.403 449.019L698.234 462.021C700.025 454.915 704.587 448.823 710.902 445.104L703.071 432.091Z" fill="white" stroke="#191919" stroke-width="1.11"/>
<path d="M713.93 488.035L721.76 501.048C723.551 493.939 728.113 487.843 734.428 484.12L726.597 471.118C720.282 474.836 715.72 480.929 713.93 488.035Z" fill="#191919" stroke="#191919" stroke-width="1.11"/>
<path d="M718.743 458.105L726.574 471.118C732.68 467.641 739.685 466.066 746.692 466.592L738.861 453.58C731.855 453.055 724.851 454.631 718.743 458.105Z" fill="#191919" stroke="#191919" stroke-width="1.11"/>
<path d="M731.019 440.578L723.189 427.565C716.182 427.044 709.179 428.619 703.07 432.091L710.913 445.104C717.014 441.626 724.016 440.05 731.019 440.578Z" fill="#191919" stroke="#191919" stroke-width="1.11"/>
<path d="M738.862 453.58L731.02 440.578C724.016 440.05 717.015 441.626 710.913 445.104L718.744 458.105C724.851 454.631 731.855 453.055 738.862 453.58Z" fill="white" stroke="#191919" stroke-width="1.11"/>
<path d="M726.574 471.118L734.405 484.12C740.513 480.648 747.517 479.073 754.523 479.594L746.692 466.592C739.685 466.066 732.681 467.641 726.574 471.118Z" fill="white" stroke="#191919" stroke-width="1.11"/>
<path d="M735.602 441.096C734.077 440.843 732.54 440.67 730.996 440.578L738.838 453.58C740.383 453.669 741.92 453.846 743.445 454.109C749.202 455.093 755.121 453.96 760.108 450.919L752.266 437.906C747.282 440.954 741.36 442.088 735.602 441.096Z" fill="#191919" stroke="#191919" stroke-width="1.11"/>
<path d="M735.602 441.096C741.356 442.085 747.273 440.951 752.254 437.906L744.423 424.905C739.44 427.943 733.525 429.076 727.771 428.095C726.247 427.833 724.709 427.656 723.165 427.565L730.996 440.578C732.539 440.67 734.077 440.843 735.602 441.096Z" fill="white" stroke="#191919" stroke-width="1.11"/>
<path d="M743.433 454.109C741.909 453.846 740.371 453.669 738.827 453.58L746.658 466.592C748.201 466.685 749.739 466.858 751.264 467.111C757.018 468.098 762.935 466.965 767.916 463.921L760.085 450.919C755.102 453.957 749.187 455.09 743.433 454.109Z" fill="white" stroke="#191919" stroke-width="1.11"/>
<path d="M751.275 467.111C749.75 466.858 748.212 466.685 746.669 466.592L754.5 479.594C756.044 479.685 757.582 479.862 759.106 480.124C764.875 481.123 770.81 479.989 775.804 476.934L767.973 463.921C762.979 466.976 757.044 468.11 751.275 467.111Z" fill="#191919" stroke="#191919" stroke-width="1.11"/>
<path d="M744.424 424.905L752.255 437.906C758.105 434.256 762.331 428.026 764.611 420.494C761.726 415.587 759.305 410.421 757.379 405.063C755.076 412.606 750.274 421.255 744.424 424.905H744.424Z" fill="#191919" stroke="#191919" stroke-width="1.11"/>
<path d="M760.097 450.919C765.947 447.269 770.162 441.039 772.442 433.496L764.611 420.494C762.308 428.026 758.105 434.256 752.255 437.906L760.097 450.919Z" fill="white" stroke="#191919" stroke-width="1.11"/>
<path d="M775.804 476.934C781.654 473.283 786.307 466.235 788.587 458.693C787.792 457.368 784.269 453.061 780.319 446.509C778.015 454.04 773.824 460.27 767.974 463.921L775.804 476.934Z" fill="white" stroke="#191919" stroke-width="1.11"/>
<path d="M767.927 463.921C773.778 460.27 777.992 454.04 780.272 446.509L772.442 433.496C770.139 441.039 765.947 447.315 760.097 450.919L767.927 463.921Z" fill="#191919" stroke="#191919" stroke-width="1.11"/>
<path d="M755.076 400.111C763.356 418.076 782 452.647 817.02 491.386" stroke="#191919" stroke-width="3.34" stroke-linecap="round"/>
<path d="M889.431 371.184C889.431 371.184 881.854 367.153 879.896 369.583C877.938 372.013 874.357 377.103 872.641 373.291C870.925 369.479 865.639 369.974 864.453 374.661C863.267 379.348 870.441 379.521 869.44 382.02C868.438 384.519 865.225 390.979 873.47 389.206C881.715 387.432 889.707 376.101 889.431 371.184Z" fill="#191919" stroke="#191919" stroke-width="1.11"/>
<mask id="mask5_0_2055" style="mask-type:luminance" maskUnits="userSpaceOnUse" x="831" y="430" width="84" height="85">
<path fill-rule="evenodd" clip-rule="evenodd" d="M881.843 431.676C881.843 431.676 890.4 482.807 839.88 478.604V478.811C839.511 478.684 839.2 478.58 839.016 478.534C835.388 477.59 832.705 506.173 831.104 514.303C849.102 515.073 866.98 511.039 882.903 502.614C886.817 500.667 890.489 498.267 893.843 495.463C894.407 495.002 894.707 494.737 894.707 494.737H894.649C912.994 478.719 914.445 455.722 914.445 455.722C914.364 454.512 917.577 424.905 881.843 431.676Z" fill="white"/>
</mask>
<g mask="url(#mask5_0_2055)">
<path d="M881.843 431.676C881.843 431.676 890.4 482.807 839.88 478.604V478.811C839.511 478.684 839.2 478.58 839.016 478.534C835.388 477.59 832.705 506.173 831.104 514.303C849.102 515.073 866.98 511.039 882.903 502.614C886.817 500.667 890.489 498.267 893.843 495.463C894.407 495.002 894.707 494.737 894.707 494.737H894.649C912.994 478.719 914.445 455.722 914.445 455.722C914.364 454.512 917.577 424.905 881.843 431.676Z" fill="#E51F10"/>
</g>
<path d="M878.077 408.921C878.077 408.921 899.024 440.187 884.491 467.18C873.943 486.826 851.659 488.058 840.305 487.263" stroke="white" stroke-linecap="round"/>
<path d="M885.113 403.428C885.113 403.428 910.091 441.845 890.963 473.421C879.206 492.803 852.374 495.232 839.223 495.186" stroke="white" stroke-linecap="round"/>
<path d="M881.842 431.676C881.842 431.676 890.399 482.807 839.879 478.604V478.811C839.51 478.684 839.199 478.58 839.015 478.534C835.387 477.59 832.704 506.172 831.104 514.303C849.101 515.073 866.979 511.039 882.902 502.614C886.816 500.667 890.488 498.267 893.842 495.463C894.406 495.002 894.706 494.737 894.706 494.737H894.648C912.993 478.719 914.444 455.721 914.444 455.721" stroke="#191919" stroke-linecap="round"/>
<path d="M830.378 514.395C832.382 514.821 835.203 509.788 837.391 502.545C834.57 501.098 831.85 499.463 829.25 497.651C827.706 506.725 828.121 513.957 830.378 514.395Z" fill="#191919" stroke="#191919" stroke-linecap="round"/>
<path d="M839.879 478.604C839.061 478.546 838.244 478.465 837.403 478.362L835.964 478.189C806.022 474.435 807.865 467.226 806.437 468.182C805.009 469.137 807.727 475.552 807.727 475.552C807.727 475.552 795.612 480.435 808.13 488.07C811.654 490.914 811.343 485.11 815.834 486.711C817.769 487.402 820.705 491.778 829.25 497.685C831.851 499.498 834.571 501.133 837.392 502.58C837.956 500.691 838.486 498.653 838.935 496.511C840.582 488.749 840.869 481.863 839.879 478.604Z" fill="#F9896E" stroke="#191919" stroke-linecap="round"/>
<path d="M880.116 376.734C880.116 376.734 862.784 394.549 877.594 400.722C875.935 407.631 869.913 424.905 872.285 424.905C874.657 424.905 892.173 414.161 891.931 403.716C891.689 393.271 890.745 366.289 880.116 376.734Z" fill="#F9896E" stroke="#191919"/>
<path d="M887.129 373.706C887.129 373.706 881.9 380.615 883.801 387.306C885.701 393.996 888.845 383.379 889.858 383.736C893.186 384.887 889.858 396.634 892.829 395.09C895.8 393.547 895.132 390.484 896.975 393.179C898.817 395.874 905.232 395.021 905.819 389.263C906.406 383.506 901.213 386.12 903.159 382.02C905.105 377.92 900.418 370.562 887.129 373.706Z" fill="#191919" stroke="#191919"/>
<path d="M885.401 399.432C883.082 400.906 880.262 401.372 877.593 400.722L885.401 399.432Z" fill="#F9896E"/>
<path d="M885.401 399.432C883.082 400.906 880.262 401.372 877.593 400.722" stroke="#191919" stroke-linecap="round"/>
<path d="M877.593 400.722C880.263 401.372 883.082 400.906 885.401 399.432C886.057 401.908 879.643 409.854 875.105 409.531C876.349 405.558 877.593 400.722 877.593 400.722Z" fill="#191919" stroke="#191919"/>
<path d="M922.343 376.376C922.733 374.275 913.564 370.812 901.864 368.642C890.164 366.471 880.363 366.415 879.973 368.516C879.584 370.617 888.752 374.08 900.452 376.25C912.152 378.421 921.953 378.477 922.343 376.376Z" fill="#F9861E" stroke="#191919"/>
<path d="M879.896 368.558C881.175 361.971 895.259 352.309 901.846 353.587C908.433 354.866 905.024 366.6 903.746 373.164" fill="#F9861E"/>
<path d="M879.896 368.558C881.175 361.971 895.259 352.309 901.846 353.587C908.433 354.866 905.231 366.358 903.953 372.945" stroke="#191919" stroke-width="1.11" stroke-linecap="round"/>
<path d="M879.896 364.504C880.189 366.38 881.533 367.921 883.351 368.466" stroke="#191919" stroke-width="1.11" stroke-linecap="round"/>
<path d="M878.757 382.849L874.737 387.248C874.594 387.41 874.546 387.635 874.609 387.842C874.673 388.049 874.839 388.208 875.048 388.262L877.352 388.814" stroke="#191919" stroke-width="1.11" stroke-linecap="round"/>
<path d="M844.382 372.358C848.32 365.737 837.081 362.201 836.447 371.667C836.298 373.878 835.031 376.458 833.188 379.429C831.806 381.732 830.091 384.162 828.248 386.88L829.641 387.317C833.015 388.414 836.574 388.829 840.109 388.538C840.731 387.041 841.411 385.59 842.113 384.22C843.879 380.702 846.014 377.382 848.481 374.316C851.476 370.988 847.433 371.598 844.382 372.358Z" fill="#F5896F"/>
<path d="M845.199 369.917C845.199 369.917 843.69 376.826 838.151 375.099L845.199 369.917Z" fill="#F5896F"/>
<path d="M837.83 274.542C831.993 270.118 824.626 268.218 817.378 269.268L808.326 281.463C815.573 280.418 822.936 282.313 828.778 286.726L837.83 274.542Z" fill="#191919" stroke="#191919" stroke-width="1.11"/>
<path d="M828.778 286.726C822.933 282.31 815.564 280.415 808.314 281.463L799.263 293.659C806.513 292.605 813.884 294.5 819.726 298.921L828.778 286.726Z" fill="white" stroke="#191919" stroke-width="1.11"/>
<path d="M846.881 262.347C841.054 257.939 833.706 256.044 826.474 257.084L817.377 269.268C824.625 268.218 831.992 270.118 837.829 274.542L846.881 262.347Z" fill="white" stroke="#191919" stroke-width="1.11"/>
<path d="M799.274 293.659L790.223 305.854C797.473 304.8 804.844 306.696 810.686 311.117L819.738 298.922C813.895 294.5 806.525 292.605 799.274 293.659Z" fill="#191919" stroke="#191919" stroke-width="1.11"/>
<path d="M828.778 286.726L819.727 298.921C825.258 303.249 829.376 309.126 831.553 315.804L840.616 303.655C838.444 296.959 834.321 291.065 828.778 286.726V286.726Z" fill="#191919" stroke="#191919" stroke-width="1.11"/>
<path d="M849.667 291.425L858.719 279.229C856.541 272.549 852.419 266.671 846.881 262.347L837.829 274.542C843.37 278.864 847.492 284.743 849.667 291.425Z" fill="#191919" stroke="#191919" stroke-width="1.11"/>
<path d="M840.617 303.655L849.668 291.471C847.493 284.789 843.37 278.91 837.83 274.589L828.778 286.726C834.322 291.065 838.444 296.959 840.617 303.655Z" fill="white" stroke="#191919" stroke-width="1.11"/>
<path d="M819.738 298.922L810.687 311.117C816.221 315.442 820.339 321.32 822.513 327.999L831.565 315.804C829.387 309.127 825.27 303.249 819.738 298.922V298.922Z" fill="white" stroke="#191919" stroke-width="1.11"/>
<path d="M850.923 295.858C850.589 294.358 850.169 292.878 849.668 291.425L840.616 303.655C841.118 305.111 841.537 306.595 841.871 308.1C843.155 313.796 846.456 318.835 851.165 322.287L860.216 310.092C855.498 306.628 852.196 301.571 850.923 295.858Z" fill="#191919" stroke="#191919" stroke-width="1.11"/>
<path d="M850.923 295.858C852.207 301.554 855.508 306.594 860.217 310.046L869.268 297.897C864.559 294.444 861.258 289.405 859.975 283.709C859.642 282.193 859.223 280.697 858.719 279.229L849.668 291.425C850.17 292.878 850.589 294.358 850.923 295.858Z" fill="white" stroke="#191919" stroke-width="1.11"/>
<path d="M841.871 308.054C841.537 306.549 841.118 305.065 840.616 303.608L831.564 315.804C832.065 317.258 832.488 318.738 832.831 320.237C834.1 325.937 837.399 330.98 842.113 334.425L851.164 322.241C846.456 318.789 843.155 313.75 841.871 308.054Z" fill="white" stroke="#191919" stroke-width="1.11"/>
<path d="M832.832 320.237C832.488 318.738 832.065 317.258 831.565 315.804L822.514 327.999C823.019 329.452 823.442 330.932 823.78 332.433C825.052 338.131 828.351 343.173 833.062 346.62L842.114 334.425C837.4 330.98 834.101 325.937 832.832 320.237Z" fill="#191919" stroke="#191919" stroke-width="1.11"/>
<path d="M869.267 297.897L860.216 310.092C865.813 314.111 873.183 315.643 881.025 314.894C884.22 310.608 887.682 306.527 891.389 302.676C883.524 303.378 874.841 301.881 869.267 297.897V297.897Z" fill="#191919" stroke="#191919" stroke-width="1.11"/>
<path d="M851.165 322.241C856.762 326.26 864.132 327.792 871.974 327.032L881.026 314.848C873.183 315.596 865.813 314.065 860.217 310.046L851.165 322.241Z" fill="white" stroke="#191919" stroke-width="1.11"/>
<path d="M833.062 346.62C838.658 350.639 846.028 352.171 853.871 351.422L862.922 339.227C855.08 339.987 847.71 338.455 842.113 334.425L833.062 346.62Z" fill="white" stroke="#191919" stroke-width="1.11"/>
<path d="M842.113 334.425C847.71 338.455 855.08 339.987 862.922 339.227L871.974 327.032C864.132 327.792 856.761 326.26 851.165 322.241L842.113 334.425Z" fill="#191919" stroke="#191919" stroke-width="1.11"/>
<path d="M836.125 383.909C835.459 383.905 834.841 383.559 834.49 382.993C834.139 382.427 834.105 381.72 834.398 381.122C834.628 380.661 857.568 335.312 892.058 300.845C892.808 300.091 894.028 300.088 894.781 300.839C895.535 301.589 895.538 302.809 894.787 303.562C860.723 337.603 838.072 382.4 837.841 382.849C837.515 383.498 836.851 383.908 836.125 383.909Z" fill="#191919"/>
<path d="M836.125 374.512C836.125 374.512 839.43 376.274 841.676 374.961C843.921 373.648 846.984 369.03 843.426 366.497C839.868 363.963 836.977 367.844 836.609 370.389C836.24 372.934 836.125 374.512 836.125 374.512H836.125Z" fill="#F5896F"/>
<path fill-rule="evenodd" clip-rule="evenodd" d="M844.382 372.358C848.32 365.737 837.081 362.201 836.447 371.667C836.298 373.878 835.031 376.458 833.188 379.429C831.806 381.732 830.091 384.162 828.248 386.88L829.641 387.317C833.015 388.414 836.574 388.829 840.109 388.538C840.731 387.041 841.411 385.59 842.113 384.22C843.879 380.702 846.014 377.382 848.481 374.316C851.476 370.988 847.433 371.598 844.382 372.358V372.358Z" stroke="#191919" stroke-width="1.11" stroke-linecap="round"/>
<path d="M845.199 369.917C845.199 369.917 843.69 376.826 838.151 375.099" stroke="#191919" stroke-width="1.11" stroke-linecap="round"/>
<path d="M935.68 707.861C935.68 707.861 931.949 711.593 928.471 715.807C922.874 711.777 918.821 714.31 918.51 717.304C918.153 720.621 924.486 720.943 924.486 720.943C922.183 745.967 917.888 753.671 919.822 753.349C921.757 753.027 937.568 728.106 941.207 717.65C940.77 716.026 937.753 711.063 935.68 707.861Z" fill="white"/>
<path d="M935.68 707.861C935.68 707.861 931.949 711.593 928.471 715.807C922.874 711.777 918.821 714.31 918.51 717.304C918.153 720.621 924.486 720.943 924.486 720.943C922.183 745.967 917.888 753.671 919.822 753.349C921.757 753.027 937.568 728.106 941.207 717.65C940.77 716.026 937.753 711.063 935.68 707.861Z" fill="#191919"/>
<path fill-rule="evenodd" clip-rule="evenodd" d="M935.68 707.861C935.68 707.861 931.949 711.593 928.471 715.807C922.874 711.777 918.821 714.31 918.51 717.304C918.153 720.621 924.486 720.943 924.486 720.943C922.183 745.967 917.888 753.671 919.822 753.349C921.757 753.027 937.568 728.106 941.207 717.65C940.77 716.026 937.753 711.063 935.68 707.861V707.861Z" stroke="#191919"/>
<path d="M921.101 725.607C921.101 725.607 926.663 723.465 928.379 726.989" stroke="white"/>
<path d="M919.627 730.421C919.627 730.421 925.189 728.279 926.905 731.803" stroke="white"/>
<path d="M918.164 735.235C918.164 735.235 923.726 733.093 925.431 736.617" stroke="white"/>
<path d="M806.08 741.914C804.675 732.805 796.326 731.642 795.428 736.559C794.818 739.945 797.19 741.695 798.883 743.468C793.609 745.656 781.701 750.378 772.73 752.589C772.73 756.124 809.581 754.835 812.518 754.835C813.232 750.735 814.003 746.681 814.821 742.651C814.821 742.639 810.007 741.994 806.08 741.914Z" fill="#191919"/>
<path d="M796.28 746.52C798.318 743.157 793.493 739.611 793.493 739.611" stroke="white" stroke-linecap="round"/>
<path d="M788.657 741.039C788.657 741.039 793.471 744.493 791.444 747.948" stroke="white" stroke-linecap="round"/>
<path d="M783.866 742.409C783.866 742.409 788.68 745.864 786.653 749.318" stroke="white" stroke-linecap="round"/>
<path d="M849.438 533.718C849.438 533.718 849.345 549.76 864.961 549.76" stroke="white"/>
<path d="M874.577 392.603C874.577 394.587 876.186 396.196 878.17 396.196C880.154 396.196 881.763 394.587 881.763 392.603H874.577Z" fill="white" stroke="#191919"/>
</svg>
