<svg width="1000" height="1000" viewBox="0 0 1000 1000" fill="none" xmlns="http://www.w3.org/2000/svg">
<path d="M491.061 136.528C491.061 136.528 646.163 171.067 672.229 307.585C698.295 444.104 712.505 511.581 872.042 501.936C1031.58 492.292 1013.41 840.096 691.22 889.885C369.027 939.673 402.108 736.479 244.937 746.123C87.7666 755.768 12.7369 659.381 55.4147 535.698C98.0925 412.015 281.293 497.144 271.027 308.41C258.37 69.0629 491.061 136.528 491.061 136.528Z" fill="#0AD15F"/>
<path d="M534.013 898.31C613.879 898.31 678.623 894.393 678.623 889.562C678.623 884.73 613.879 880.813 534.013 880.813C454.147 880.813 389.403 884.73 389.403 889.562C389.403 894.393 454.147 898.31 534.013 898.31Z" fill="#1E1E1E" stroke="#1E1E1E" stroke-width="1.32" stroke-linecap="round"/>
<path d="M738.678 894.283C759.119 894.283 775.691 892.169 775.691 889.562C775.691 886.955 759.119 884.841 738.678 884.841C718.236 884.841 701.665 886.955 701.665 889.562C701.665 892.169 718.236 894.283 738.678 894.283Z" fill="#1E1E1E" stroke="#1E1E1E" stroke-width="1.32" stroke-linecap="round"/>
<path d="M507.9 801.708C504.553 735.702 504.996 646.773 526.113 598.418C562.445 515.226 513.146 388.854 395.606 463.644C395.606 463.644 393.06 677.141 458.864 812.704C481.213 815.512 501.769 805.174 507.9 801.708Z" fill="#4743EF" stroke="#1E1E1E" stroke-width="1.32" stroke-linecap="round"/>
<path opacity="0.29" d="M533.463 576.703C518.99 541.279 490.439 480.197 479.36 517.305C479.36 517.305 463.166 584.997 477.472 657.66C491.778 730.324 457.49 733.479 466.716 768.628C471.64 787.343 462.21 801.685 458.123 811.138C458.374 811.652 458.613 812.19 458.864 812.704C481.213 815.536 501.769 805.174 507.864 801.708C504.518 735.702 504.96 646.773 526.078 598.418C529.143 591.399 531.613 584.135 533.463 576.703Z" fill="#0C0C77"/>
<path fill-rule="evenodd" clip-rule="evenodd" d="M507.9 801.708C504.553 735.702 504.996 646.773 526.113 598.418C562.445 515.226 513.146 388.854 395.606 463.644C395.606 463.644 393.061 677.141 458.864 812.704C481.213 815.512 501.769 805.174 507.9 801.708Z" stroke="#1E1E1E" stroke-width="1.32" stroke-linecap="round"/>
<path d="M479.336 517.305C484.737 535.406 492.217 552.819 501.625 569.198C531.826 622.225 541.28 726.619 542.451 805.067C550.721 807.278 568.743 811.533 585.475 811.64C658.951 620.875 632.467 492.327 632.467 492.327C606.677 421.504 473.516 434.663 473.516 434.663" fill="#4743EF"/>
<path d="M632.933 581.459C615.102 578.316 597.08 596.183 592.634 621.353C588.188 646.522 599.064 669.48 616.895 672.611C619.752 673.108 622.675 673.083 625.524 672.54C631.233 642.769 634.883 612.64 636.447 582.368C635.303 581.969 634.128 581.665 632.933 581.459Z" fill="#7A7AF9" stroke="#1E1E1E" stroke-width="1.32"/>
<path opacity="0.29" d="M544.482 805.605C553.446 807.899 570.046 811.58 585.427 811.58C658.951 620.875 632.467 492.327 632.467 492.327C626.312 475.428 614.039 463.322 598.932 454.669C559.589 452.685 511.115 452.673 496.152 463.095C496.152 463.095 586.622 457.31 588.176 562.086C589.73 666.863 556.171 704.031 570.13 748.215C581.268 783.614 558.561 791.61 544.482 805.605Z" fill="#0C0C77"/>
<path d="M479.336 517.305C484.737 535.406 492.217 552.819 501.625 569.198C531.826 622.225 541.28 726.619 542.451 805.067C550.721 807.278 568.743 811.533 585.475 811.64C658.951 620.875 632.467 492.327 632.467 492.327C606.677 421.504 473.516 434.663 473.516 434.663" stroke="#1E1E1E" stroke-width="1.32" stroke-linecap="round"/>
<path d="M520.006 615.341C514.963 597.701 508.892 581.962 501.625 569.198C492.217 552.819 484.737 535.406 479.336 517.305C470.349 557.366 495.554 646.462 510.959 660.266C512.775 645.086 515.8 630.075 520.006 615.377V615.341Z" fill="#1E1E1E" stroke="#1E1E1E" stroke-width="1.32" stroke-linecap="round"/>
<path d="M448.442 244.065C448.442 244.065 308.613 290.137 299.435 365.429C298.239 374.727 298.61 382.472 300.152 388.746C303.187 390.897 314.493 407.868 339.722 379.054C364.951 350.239 418.696 299.315 414.489 319.871C410.282 340.427 395.248 405.92 395.295 477.627C409.517 469.728 557.175 442.347 632.467 492.375C622.99 448.156 613.895 375.48 613.895 375.48C613.895 375.48 646.163 341.515 633.017 312.031C619.871 282.548 651.422 224.058 448.442 244.065Z" fill="#F95808"/>
<path d="M425.962 252.61C411.752 255.765 464.11 278.902 406.063 294.702C323.433 317.194 301.873 384.181 300.355 388.877C303.665 391.543 314.959 407.258 339.722 379.018C364.951 350.227 418.732 299.315 414.489 319.871C413.449 324.926 411.752 332.731 409.792 342.662C434.531 321.437 454.669 300.916 459.019 295.526C470.504 281.293 440.244 249.49 425.962 252.61Z" fill="#D83B05"/>
<path d="M492.804 246.774C494.655 243.634 498.701 242.589 501.841 244.44L504.071 245.754C507.211 247.605 508.255 251.651 506.404 254.792L450.376 349.834C448.524 352.974 444.478 354.019 441.338 352.167L439.109 350.853C435.969 349.002 434.924 344.956 436.775 341.816L492.804 246.774Z" fill="#D83B05"/>
<path d="M632.467 492.327C622.99 448.108 613.895 375.432 613.895 375.432C617.066 371.948 619.977 368.238 622.608 364.33C613.752 352.378 606.127 343.762 605.015 342.292C609.091 321.759 572.185 310.107 572.185 310.107C602.78 331.918 524.799 400.183 540.634 417.823C556.469 435.463 538.531 445.992 496.235 445.204C453.94 444.415 395.63 461.517 395.343 477.579C409.517 469.68 557.175 442.299 632.467 492.327Z" fill="#D83B05"/>
<path fill-rule="evenodd" clip-rule="evenodd" d="M448.442 244.065C448.442 244.065 308.613 290.137 299.435 365.429C298.239 374.727 298.61 382.472 300.152 388.746C303.187 390.897 314.493 407.868 339.722 379.054C364.951 350.239 418.696 299.315 414.489 319.871C410.282 340.427 395.248 405.92 395.295 477.627C409.517 469.728 557.175 442.347 632.467 492.375C622.99 448.156 613.895 375.48 613.895 375.48C613.895 375.48 646.163 341.515 633.017 312.031C619.871 282.548 651.422 224.058 448.442 244.065V244.065Z" stroke="#1E1E1E" stroke-width="1.32"/>
<path d="M549 418.612H459.067C494.479 377.129 493.307 320.445 493.307 320.445H583.276C583.276 320.445 581.101 395.212 549 418.612Z" fill="#FCD638" stroke="#1E1E1E" stroke-width="1.32" stroke-linecap="round"/>
<path d="M557.461 426.978H467.505C502.928 385.495 501.757 328.811 501.757 328.811H591.714C591.714 328.811 589.55 403.59 557.461 426.978Z" fill="#FCD638"/>
<path d="M558.095 366.146C532.029 398.092 512.083 391.101 518.656 404.522C523.938 415.278 486.65 417.501 468.341 425.891C468.042 426.249 467.768 426.62 467.457 426.978H557.414C589.503 403.578 591.666 328.811 591.666 328.811H501.757C501.757 328.811 584.16 334.213 558.095 366.146Z" fill="#F9A23A"/>
<path fill-rule="evenodd" clip-rule="evenodd" d="M557.461 426.978H467.505C502.928 385.495 501.757 328.811 501.757 328.811H591.714C591.714 328.811 589.55 403.59 557.461 426.978Z" stroke="#1E1E1E" stroke-width="1.32" stroke-linecap="round"/>
<path d="M482.14 246.768C483.991 243.628 488.038 242.583 491.178 244.434L493.407 245.748C496.547 247.599 497.592 251.645 495.741 254.785L439.712 349.827C437.861 352.968 433.815 354.012 430.674 352.161L428.445 350.847C425.305 348.996 424.26 344.95 426.112 341.81L482.14 246.768Z" fill="white"/>
<path opacity="0.23" d="M479.42 282.488C476.157 280.002 470.361 279.775 461.123 282.691C461.123 282.691 469.345 294.499 462.581 300.092C456.259 305.315 440.865 343.678 428.245 350.538C428.65 350.907 429.09 351.235 429.56 351.518C431.362 352.586 433.516 352.892 435.545 352.37C437.574 351.847 439.312 350.539 440.375 348.733L479.42 282.488Z" fill="#1E1E1E"/>
<path fill-rule="evenodd" clip-rule="evenodd" d="M482.14 246.768C483.991 243.628 488.038 242.583 491.178 244.434L493.407 245.748C496.547 247.599 497.592 251.645 495.741 254.785L439.712 349.827C437.861 352.968 433.815 354.012 430.674 352.161L428.445 350.847C425.305 348.996 424.26 344.95 426.112 341.81L482.14 246.768Z" stroke="#1E1E1E" stroke-width="1.32" stroke-linecap="round"/>
<path d="M432.655 332.779C404.677 375.11 322.704 444.606 300.259 389.188C300.259 389.188 305.554 359.011 355.713 327.042C407.545 293.949 458.589 299.805 457.394 301.944C456.199 304.084 449.1 304.442 449.375 305.9C474.771 314.266 451.538 340.32 448.442 334.858C453.115 328.01 443.447 315.509 432.655 332.874" fill="white"/>
<path d="M448.443 244.065C448.443 244.065 308.613 290.137 299.435 365.429C290.256 440.722 376.317 414.131 432.655 332.779C443.411 315.413 453.115 327.914 448.443 334.763C451.538 340.224 474.735 314.159 449.375 305.805C449.1 304.347 456.211 303.952 457.394 301.849C458.577 299.745 408.633 295.658 355.713 326.946C316.907 349.929 304.323 376.305 300.164 388.758" stroke="#1E1E1E" stroke-width="1.32"/>
<path d="M605.015 342.244C605.015 342.352 605.015 342.471 604.956 342.591C599.171 368.883 487.021 343.786 482.934 344.264C478.846 344.742 486.256 351.434 487.021 351.243C476.743 352.916 463.585 361.999 462.7 365.764C461.816 369.529 465.819 365.202 477.807 360.983C462.139 370.198 460.955 380.906 464.11 377.978C467.397 373.09 481.978 365.872 483.161 366.565C484.344 367.258 466.214 377.524 469.249 382.687C474.245 377.667 491.718 368.728 491.06 371.799C475.643 379.185 478.332 385.83 478.332 385.83C478.332 385.83 496.415 369.732 503.992 376.424C543.992 420.453 623.253 424.887 663.038 392.355C660.756 344.527 621.377 341.479 605.015 342.244Z" fill="white"/>
<path fill-rule="evenodd" clip-rule="evenodd" d="M605.015 342.244C605.015 342.352 605.015 342.471 604.956 342.591C599.171 368.883 487.021 343.786 482.934 344.264C478.846 344.742 486.256 351.434 487.021 351.243C476.743 352.916 463.585 361.999 462.7 365.764C461.816 369.529 465.819 365.202 477.807 360.983C462.139 370.198 460.955 380.906 464.11 377.978C467.397 373.09 481.978 365.872 483.161 366.565C484.344 367.258 466.214 377.524 469.249 382.687C474.245 377.667 491.718 368.728 491.06 371.799C475.643 379.185 478.332 385.83 478.332 385.83C478.332 385.83 496.415 369.732 503.992 376.424C543.992 420.453 623.253 424.887 663.038 392.355C660.756 344.527 621.377 341.479 605.015 342.244V342.244Z" stroke="#1E1E1E" stroke-width="1.32" stroke-linecap="round"/>
<path d="M587.71 248.534C587.71 248.534 684.336 255.514 686.965 339.005C687.694 362.095 678.24 379.914 663.062 392.355C660.78 344.551 621.4 341.479 605.039 342.292C609.115 321.76 572.209 310.107 572.209 310.107C560.091 306.988 493.797 326.014 481.906 312.246C470.014 298.479 505.808 279.536 510.517 279.273C515.226 279.01 587.71 248.534 587.71 248.534Z" fill="#F95808"/>
<path d="M587.71 248.534C587.71 248.534 487.941 280.098 483.197 280.396C482.153 280.581 481.213 281.142 480.555 281.974C479.097 284.364 472.703 295.646 471.604 298.299C471.604 298.299 512.453 320.409 581.412 291.451C625.894 268.553 669.588 302.805 666.433 349.415C665.896 356.624 662.712 363.379 657.493 368.381C660.93 375.937 662.816 384.106 663.039 392.403C678.24 379.962 687.694 362.143 686.941 339.053C684.336 255.514 587.71 248.534 587.71 248.534V248.534Z" fill="#D83B05"/>
<path d="M572.185 310.107C572.185 310.107 609.091 321.76 605.015 342.292C621.377 341.479 660.756 344.527 663.038 392.355C678.24 379.914 687.694 362.095 686.941 339.005C684.312 255.514 587.686 248.534 587.686 248.534" stroke="#1E1E1E" stroke-width="1.32" stroke-linecap="round"/>
<path d="M518.704 297.236C584.273 297.236 637.427 244.081 637.427 178.512C637.427 112.943 584.273 59.7888 518.704 59.7888C453.135 59.7888 399.98 112.943 399.98 178.512C399.98 244.081 453.135 297.236 518.704 297.236Z" fill="white" stroke="#1E1E1E" stroke-width="1.32" stroke-linecap="round"/>
<path d="M518.704 74.3574C476.57 74.3526 438.583 99.7302 422.456 138.656C406.33 177.581 415.242 222.388 445.035 252.181C474.828 281.974 519.635 290.886 558.56 274.76C597.486 258.633 622.863 220.646 622.859 178.512C622.681 121.063 576.153 74.5346 518.704 74.3574V74.3574Z" fill="#7DBBF9"/>
<path fill-rule="evenodd" clip-rule="evenodd" d="M518.704 282.667C576.227 282.667 622.858 236.035 622.858 178.512C622.858 120.989 576.227 74.3574 518.704 74.3574C461.18 74.3574 414.549 120.989 414.549 178.512C414.549 236.035 461.18 282.667 518.704 282.667Z" stroke="#1E1E1E" stroke-width="1.32" stroke-linecap="round"/>
<path d="M534.013 789.554C534.013 789.554 556.266 802.975 601.932 799.426" stroke="#1E1E1E" stroke-width="1.32" stroke-linecap="round"/>
<path d="M440.949 801.087C440.949 801.087 468.018 806.418 513.947 787.786" stroke="#1E1E1E" stroke-width="1.32" stroke-linecap="round"/>
<path d="M589.766 502.151C589.766 502.151 584.16 529.484 613.931 528.647" stroke="#1E1E1E" stroke-width="1.32" stroke-linecap="round"/>
<path d="M567.62 855.549C567.604 855.149 567.628 854.748 567.692 854.354C574.169 839.805 580.077 825.579 585.415 811.676C568.779 811.568 550.757 807.314 542.391 805.103C542.63 821.906 542.499 837.514 542.116 851.174C541.734 864.835 542.893 863.006 567.62 855.549Z" fill="white"/>
<path fill-rule="evenodd" clip-rule="evenodd" d="M567.62 855.549C567.604 855.149 567.628 854.748 567.692 854.354C574.169 839.805 580.077 825.579 585.415 811.676C568.779 811.568 550.757 807.314 542.391 805.103C542.63 821.906 542.499 837.514 542.116 851.174C541.734 864.835 542.893 863.006 567.62 855.549V855.549Z" stroke="#1E1E1E" stroke-width="1.32" stroke-linecap="round"/>
<path d="M589.825 876.953C585.188 876.69 567.799 864.44 567.632 855.549C542.905 863.006 542.188 851.139 542.188 851.139C541.793 864.906 541.136 876.702 540.335 885.726C606.677 897.665 608.254 878.005 589.825 876.953Z" fill="#FC8606"/>
<path d="M589.825 876.953C585.188 876.691 567.799 864.441 567.632 855.549C564.711 856.453 561.727 857.14 558.704 857.604C558.597 862.182 559.421 870.906 566.664 874.061C576.667 878.4 582.989 887.518 556.924 886.323C556.025 886.545 555.274 887.159 554.88 887.996C606.796 894.665 606.796 877.922 589.825 876.953Z" fill="#F95808"/>
<path fill-rule="evenodd" clip-rule="evenodd" d="M589.825 876.953C585.188 876.69 567.799 864.44 567.632 855.549C542.905 863.006 542.188 851.139 542.188 851.139C541.793 864.906 541.136 876.702 540.335 885.726C606.677 897.665 608.254 878.005 589.825 876.953V876.953Z" stroke="#1E1E1E" stroke-width="1.32" stroke-linecap="round"/>
<path d="M511.354 851.999C510.159 838.219 508.868 820.926 507.9 801.708C501.769 805.174 481.213 815.536 458.9 812.704C466.775 829.256 476.237 845.006 487.152 859.732C505.271 862.122 511.354 851.999 511.354 851.999Z" fill="white"/>
<path fill-rule="evenodd" clip-rule="evenodd" d="M511.354 851.999C510.159 838.219 508.868 820.926 507.9 801.708C501.769 805.174 481.213 815.536 458.9 812.704C466.775 829.256 476.237 845.006 487.152 859.732C505.271 862.122 511.354 851.999 511.354 851.999V851.999Z" stroke="#1E1E1E" stroke-width="1.32" stroke-linecap="round"/>
<path d="M445.156 881.363C444.104 889.729 514.664 884.949 514.664 884.949C514.664 884.949 513.111 872.304 511.354 852.035C511.354 852.035 505.271 862.134 487.153 859.732C477.675 876.535 446.22 872.938 445.156 881.363Z" fill="#FC8606"/>
<path d="M511.354 851.999C511.354 851.999 506.657 859.779 493.248 860.054C496.642 864.906 504.099 876.917 496.188 878.794C489.22 880.455 467.983 875.364 453.737 875.925C448.956 877.216 445.491 878.686 445.156 881.363C444.104 889.729 514.664 884.949 514.664 884.949C514.664 884.949 513.146 872.268 511.354 851.999V851.999Z" fill="#F95808"/>
<path fill-rule="evenodd" clip-rule="evenodd" d="M445.156 881.363C444.104 889.729 514.664 884.949 514.664 884.949C514.664 884.949 513.111 872.304 511.354 852.035C511.354 852.035 505.271 862.134 487.153 859.732C477.675 876.535 446.22 872.938 445.156 881.363V881.363Z" stroke="#1E1E1E" stroke-width="1.32" stroke-linecap="round"/>
<path d="M518.955 232.711C575.653 232.711 621.616 211.415 621.616 185.145C621.616 158.875 575.653 137.579 518.955 137.579C462.257 137.579 416.294 158.875 416.294 185.145C416.294 211.415 462.257 232.711 518.955 232.711Z" fill="white"/>
<path opacity="0.1" d="M519.385 74.3574C513.586 74.3623 507.797 74.85 502.079 75.8155C552.232 84.2437 588.963 127.662 588.963 178.518C588.963 229.374 552.232 272.793 502.079 281.221C540.821 287.745 579.937 271.914 603.237 240.282C626.536 208.65 630.054 166.598 612.334 131.535C594.614 96.4707 558.672 74.361 519.385 74.3574V74.3574Z" fill="#070707"/>
<path fill-rule="evenodd" clip-rule="evenodd" d="M518.955 232.711C575.653 232.711 621.616 211.415 621.616 185.145C621.616 158.875 575.653 137.579 518.955 137.579C462.257 137.579 416.294 158.875 416.294 185.145C416.294 211.415 462.257 232.711 518.955 232.711Z" stroke="#1E1E1E" stroke-width="1.32" stroke-linecap="round"/>
<path d="M536.666 148.503C516.76 148.529 498.952 160.888 491.965 179.528C484.978 198.169 490.274 219.188 505.259 232.293C509.74 232.568 514.306 232.723 518.955 232.723C537.846 232.869 556.66 230.289 574.815 225.062C585.669 210.59 587.424 191.231 579.35 175.043C571.276 158.855 554.756 148.611 536.666 148.574V148.503Z" fill="#1E1E1E" stroke="#1E1E1E" stroke-width="1.32" stroke-linecap="round"/>
<path d="M406.41 585.009C405.053 585.25 403.721 585.614 402.43 586.096C405.43 614.218 409.756 645.1 415.971 676.4C418.13 676.623 420.31 676.546 422.449 676.173C440.28 673.03 451.132 650.083 446.71 624.914C442.288 599.745 424.241 581.878 406.41 585.009Z" fill="#7A7AF9" stroke="#1E1E1E" stroke-width="1.32"/>
<path opacity="0.23" d="M663.039 392.355C662.816 384.058 660.93 375.889 657.493 368.333C629.802 396.287 545.594 394.913 509.752 369.529C497.55 360.9 486.555 362.358 477.125 368.847C480.197 367.318 482.707 366.373 483.161 366.648C484.356 367.342 466.214 377.608 469.25 382.771C474.245 377.751 491.718 368.812 491.061 371.883C475.643 379.269 478.332 385.914 478.332 385.914C478.332 385.914 496.415 369.732 503.992 376.424C543.992 420.453 623.253 424.887 663.039 392.355Z" fill="#1E1E1E"/>
<path opacity="0.23" d="M450.689 316.071C417.118 298.299 343.272 401.761 319.979 401.211C296.865 400.673 311.613 366.72 311.912 366.17C301.909 379.902 300.259 389.188 300.259 389.188C322.74 444.606 404.677 375.11 432.655 332.778C443.411 315.413 453.115 327.914 448.442 334.762C449.924 337.356 455.948 332.814 459.127 326.396C458.756 322.56 456.235 318.999 450.689 316.071Z" fill="#1E1E1E"/>
<path d="M564.023 175.488C572.749 175.488 579.822 168.415 579.822 159.689C579.822 150.963 572.749 143.889 564.023 143.889C555.297 143.889 548.223 150.963 548.223 159.689C548.223 168.415 555.297 175.488 564.023 175.488Z" fill="white"/>
<path d="M506.86 81.6236C506.86 81.6236 474.245 85.448 456.605 109.924C449.638 122.174 461.386 121.254 464.373 112.828C467.361 104.403 484.774 89.5233 494.514 89.6548C504.255 89.7863 516.552 81.2292 506.86 81.6236Z" fill="white"/>
<path d="M448.837 127.122C448.837 127.122 451.586 123.704 454.43 123.967C457.274 124.23 455.816 133.05 452.398 132.261C448.98 131.472 447.259 131.257 448.837 127.122Z" fill="white"/>
<path opacity="0.23" d="M566.389 810.05C565.337 819.062 560.676 847.744 543.682 854.473C546.072 857.305 552.119 860.222 567.584 855.549C567.568 855.149 567.592 854.748 567.656 854.353C574.133 839.805 580.041 825.579 585.379 811.676C579.019 811.575 572.674 811.031 566.389 810.05V810.05Z" fill="#1E1E1E"/>
<path opacity="0.23" d="M511.354 851.999C510.159 838.219 508.868 820.926 507.9 801.708C499.369 806.448 490.158 809.842 480.591 811.771C486.901 822.157 499.462 846.585 486.364 858.608L487.152 859.696C505.27 862.122 511.354 851.999 511.354 851.999Z" fill="#1E1E1E"/>
<path d="M565.732 866.293C568.832 863.25 573.056 861.631 577.396 861.823" stroke="#1E1E1E" stroke-width="1.32" stroke-linecap="round"/>
<path d="M569.317 871.396C572.417 868.353 576.642 866.734 580.981 866.926" stroke="#1E1E1E" stroke-width="1.32" stroke-linecap="round"/>
<path d="M574.599 875.889C577.696 872.84 581.922 871.217 586.264 871.408" stroke="#1E1E1E" stroke-width="1.32" stroke-linecap="round"/>
<path d="M486.423 866.902C483.327 863.853 479.101 862.229 474.759 862.42" stroke="#1E1E1E" stroke-width="1.32" stroke-linecap="round"/>
<path d="M480.675 871.396C477.574 868.353 473.35 866.734 469.01 866.926" stroke="#1E1E1E" stroke-width="1.32" stroke-linecap="round"/>
<path d="M474.902 875.268C471.802 872.226 467.578 870.607 463.238 870.798" stroke="#1E1E1E" stroke-width="1.32" stroke-linecap="round"/>
<path fill-rule="evenodd" clip-rule="evenodd" d="M461.87 864.502C465.728 864.334 468.823 863.471 468.784 862.574C468.745 861.677 465.587 861.086 461.729 861.254C457.871 861.422 454.776 862.285 454.815 863.181C454.854 864.078 458.012 864.669 461.87 864.502Z" stroke="#1E1E1E" stroke-width="1.32" stroke-linecap="round"/>
<path fill-rule="evenodd" clip-rule="evenodd" d="M473.696 857.3C475.599 853.94 476.509 850.858 475.728 850.415C474.946 849.973 472.77 852.338 470.867 855.698C468.964 859.057 468.055 862.139 468.836 862.582C469.617 863.024 471.793 860.659 473.696 857.3Z" stroke="#1E1E1E" stroke-width="1.32" stroke-linecap="round"/>
<path fill-rule="evenodd" clip-rule="evenodd" d="M595.243 864.497C595.393 863.612 592.429 862.372 588.622 861.727C584.815 861.081 581.607 861.276 581.457 862.161C581.307 863.046 584.271 864.286 588.078 864.932C591.885 865.577 595.093 865.382 595.243 864.497Z" stroke="#1E1E1E" stroke-width="1.32" stroke-linecap="round"/>
<path fill-rule="evenodd" clip-rule="evenodd" d="M581.407 862.013C582.237 861.671 581.717 858.499 580.246 854.929C578.774 851.359 576.909 848.743 576.079 849.085C575.249 849.427 575.769 852.598 577.24 856.168C578.712 859.738 580.577 862.355 581.407 862.013Z" stroke="#1E1E1E" stroke-width="1.32" stroke-linecap="round"/>
<path opacity="0.4" d="M414.537 261.573C414.537 261.573 361.724 290.005 351.112 302.638C342.877 313.298 429.344 262.756 414.537 261.573Z" fill="white"/>
<path opacity="0.4" d="M341.3 310.107C341.3 310.107 328.655 320.481 331.034 320.445C333.412 320.409 346.427 313.226 341.3 310.107Z" fill="white"/>
<path opacity="0.4" d="M414.537 374.512C414.537 374.512 406.852 392.284 409.219 404.127C411.585 415.971 419.485 397.016 419.485 379.651C419.485 362.286 414.537 374.512 414.537 374.512Z" fill="white"/>
<path d="M613.537 326.982C614.834 329.458 615.976 332.013 616.955 334.631" stroke="white" stroke-width="1.32" stroke-linecap="round"/>
<path d="M584.447 298.299C593.157 302.647 600.781 308.891 606.76 316.573" stroke="white" stroke-width="1.32" stroke-linecap="round"/>
<path d="M409.171 421.122C406.823 434.435 405.373 447.89 404.832 461.398" stroke="white" stroke-width="1.32" stroke-linecap="round"/>
<path d="M555.322 774.543C555.203 777.587 555.051 780.658 554.868 783.758" stroke="white" stroke-width="1.32" stroke-linecap="round"/>
<path d="M555.86 754.143C555.86 757.29 555.804 760.477 555.693 763.704" stroke="white" stroke-width="1.32" stroke-linecap="round"/>
<path d="M548.57 653.776C553.295 683.668 555.741 713.877 555.884 744.14" stroke="white" stroke-width="1.32" stroke-linecap="round"/>
<path d="M512.931 529.974C521.452 549.012 533.535 580.515 542.714 622.667" stroke="white" stroke-width="1.32" stroke-linecap="round"/>
<path d="M502.39 508.916C502.39 508.916 504.291 512.095 507.374 518.261" stroke="white" stroke-width="1.32" stroke-linecap="round"/>
<path opacity="0.4" d="M404.88 502.593C404.88 502.593 410.27 651.075 432.918 715.839C445.55 741.642 444.869 718.432 437.698 695.833C430.528 673.233 408.693 557.366 419.485 519.971C430.277 482.575 403.888 482.133 404.88 502.593Z" fill="white"/>
<path opacity="0.4" d="M442.825 736.371C442.825 736.371 457.167 755.326 450.821 760.596C444.475 765.867 431.149 737.423 442.825 736.371Z" fill="white"/>
<path d="M461.553 254.175C473.23 263.669 487.213 269.899 502.079 272.234" stroke="white"/>
<path d="M436.348 224.847C439.509 230.494 443.254 235.794 447.522 240.658" stroke="white"/>
<path d="M452.398 325.285C452.398 325.285 455.458 330.448 454.059 333.197" stroke="#1E1E1E"/>
<path d="M453.39 318.7C453.39 318.7 459.103 321.855 459.103 326.982" stroke="#1E1E1E"/>
<path d="M453.832 313.668C453.832 313.668 459.975 316.059 461.063 320.074" stroke="#1E1E1E"/>
</svg>
