<svg width="54" height="60" viewBox="0 0 54 60" fill="none" xmlns="http://www.w3.org/2000/svg">
<path d="M40.52 35.08C41.4 36.2 42.6 37.64 44.12 39.4C45.72 41.08 47.2 42.88 48.56 44.8C50 46.64 51.16 48.48 52.04 50.32C52.92 52.16 53.16 53.76 52.76 55.12C52.12 57.2 50.92 58.4 49.16 58.72C47.4 59.04 45.56 58.72 43.64 57.76C42.28 57.12 40.72 56 38.96 54.4C37.2 52.8 35.48 51.12 33.8 49.36C32.2 47.6 30.76 45.96 29.48 44.44C28.2 42.84 27.32 41.72 26.84 41.08C26.84 41 26.8 40.96 26.72 40.96C26.72 40.96 26.72 40.92 26.72 40.84C26.16 41.48 25.6 42.2 25.04 43C24.48 43.72 23.88 44.44 23.24 45.16C22.44 46.12 21.52 47.28 20.48 48.64C19.52 49.92 18.44 51.2 17.24 52.48C16.12 53.76 14.92 54.96 13.64 56.08C12.44 57.12 11.24 57.88 10.04 58.36C8.44 59 6.88 58.88 5.36 58C3.92 57.2 3 56.08 2.6 54.64C2.12 52.96 2.24 51.2 2.96 49.36C3.68 47.52 4.64 45.76 5.84 44.08C7.04 42.32 8.32 40.64 9.68 39.04C11.12 37.44 12.28 36.04 13.16 34.84C14.04 33.72 14.8 32.76 15.44 31.96C16.16 31.08 16.84 30.24 17.48 29.44C16.36 28.24 15.16 26.92 13.88 25.48C12.6 23.96 10.8 22 8.48 19.6C7.68 18.72 6.8 17.76 5.84 16.72C4.88 15.6 4 14.44 3.2 13.24C2.4 12.04 1.76 10.8 1.28 9.52C0.8 8.24 0.68 6.92 0.92 5.56C1.16 4.36 1.68 3.4 2.48 2.68C3.28 1.88 4.24 1.36 5.36 1.12C6.48 0.799997 7.64 0.759998 8.84 0.999997C10.04 1.24 11.16 1.72 12.2 2.44C14.28 3.96 16.24 5.84 18.08 8.08C19.92 10.32 21.72 12.44 23.48 14.44C24.04 15.16 24.56 15.84 25.04 16.48C25.6 17.04 26.12 17.6 26.6 18.16C27 17.52 27.48 16.88 28.04 16.24C28.68 15.6 29.32 14.84 29.96 13.96C31.56 12.04 33.16 10.04 34.76 7.96C36.44 5.88 38.28 4.08 40.28 2.56C41.32 1.76 42.4 1.28 43.52 1.12C44.72 0.879996 45.84 0.919997 46.88 1.24C47.92 1.48 48.84 1.96 49.64 2.68C50.44 3.4 50.96 4.28 51.2 5.32C51.52 6.6 51.48 7.88 51.08 9.16C50.76 10.44 50.2 11.68 49.4 12.88C48.68 14.08 47.84 15.24 46.88 16.36C46 17.4 45.16 18.36 44.36 19.24C42.52 21.24 40.92 23.04 39.56 24.64C38.2 26.24 36.92 27.76 35.72 29.2C36.44 30 37.16 30.88 37.88 31.84C38.68 32.72 39.56 33.8 40.52 35.08Z" fill="white"/>
</svg>
