<svg width="50" height="50" viewBox="0 0 50 50" fill="none" xmlns="http://www.w3.org/2000/svg">
<path d="M40 0H10C4.47715 0 0 4.47715 0 10V40C0 45.5228 4.47715 50 10 50H40C45.5228 50 50 45.5228 50 40V10C50 4.47715 45.5228 0 40 0Z" fill="#460BCE"/>
<path d="M38.4218 18.4994C38.4218 18.0031 38.2285 17.5391 37.8804 17.191L35.399 14.7096C34.6771 13.9877 33.4976 13.9877 32.7758 14.7096L30.8035 16.6818L28.1093 19.376V16.7656V15.2188V13.6719V10.8875C28.1093 9.8627 27.2779 9.03125 26.2531 9.03125H22.7404C21.722 9.03125 20.8906 9.8627 20.8906 10.8875V13.6719V15.2188V16.7656V26.5947L14.7611 32.7242C14.7547 32.7307 14.7482 32.7371 14.7418 32.75C14.7418 32.7564 14.7353 32.7564 14.7353 32.7564C14.7095 32.7887 14.6838 32.8209 14.6709 32.8596C14.6709 32.8596 14.6709 32.866 14.6644 32.866C14.658 32.8854 14.6515 32.8982 14.6451 32.9176V32.924L13.5494 36.2047L12.6664 38.8473C12.5633 39.1566 12.6406 39.4918 12.8726 39.7174C13.0338 39.8785 13.2529 39.9688 13.4721 39.9688C13.5623 39.9688 13.6525 39.9559 13.7428 39.9236L19.666 37.9514C19.6724 37.9514 19.6724 37.9449 19.6789 37.9449C19.6918 37.9385 19.7047 37.9385 19.7175 37.932C19.724 37.932 19.7304 37.9256 19.7369 37.9256C19.7498 37.9191 19.7627 37.9127 19.7756 37.9062C19.782 37.8998 19.7884 37.8934 19.8013 37.8934C19.8142 37.8869 19.8271 37.874 19.84 37.8676C19.8465 37.8611 19.8529 37.8547 19.8658 37.8482C19.8722 37.8418 19.8722 37.8418 19.8787 37.8354L21.8832 35.8309L22.4632 36.9717C22.4697 37.0232 22.489 37.0748 22.5148 37.1199L23.7588 39.5176C23.907 39.8012 24.197 39.9752 24.5193 39.9752C24.8416 39.9752 25.1316 39.8012 25.2799 39.5176L26.5238 37.1199C26.5496 37.0748 26.5625 37.0232 26.5754 36.9717L28.0771 34.0262C28.0771 34.0262 28.0771 34.0197 28.0836 34.0197C28.09 34.0068 28.0965 33.9875 28.1029 33.9746C28.1029 33.9682 28.1093 33.9682 28.1093 33.9617C28.1158 33.9424 28.1222 33.9295 28.1222 33.9102V33.9037C28.1287 33.8844 28.1287 33.865 28.1287 33.8457C28.1287 33.8393 28.1287 33.8328 28.1287 33.8328C28.1287 33.8199 28.1287 33.8135 28.1287 33.8006V29.6047L35.9275 21.8059L37.8933 19.84C38.2285 19.4598 38.4218 18.9957 38.4218 18.4994ZM34.8125 21.4191L34.4451 21.7865L30.797 18.1385L31.1644 17.7711L33.3945 20.0012L34.8125 21.4191ZM30.0752 18.8668L33.7232 22.5148L33.3558 22.8822L29.7078 19.2342L30.0752 18.8668ZM21.9218 16.25V15.7344H27.0781V16.25H21.9218ZM27.0781 14.7031H21.9218V14.1875H27.0781V14.7031ZM21.9218 32.6404V29.7207V26.8074V17.2812H22.9531V31.7188C22.9531 32.0023 23.1851 32.2344 23.4687 32.2344C23.7523 32.2344 23.9843 32.0023 23.9843 31.7188V17.2812H25.0156V31.7188C25.0156 32.0023 25.2476 32.2344 25.5312 32.2344C25.8148 32.2344 26.0468 32.0023 26.0468 31.7188V17.2812H27.0781V20.6199V23.5332V26.4465V29.3662V33.2656H21.9218V32.6404ZM21.9218 10.8875C21.9218 10.4363 22.2892 10.0625 22.7468 10.0625H26.2595C26.7107 10.0625 27.0845 10.4299 27.0845 10.8875V13.1562H21.9283V10.8875H21.9218ZM16.3595 37.9643L14.6193 36.2305L15.3476 34.0455L18.5445 37.2424L16.3595 37.9643ZM14.2584 37.3197L15.2638 38.3252L13.7492 38.8279L14.2584 37.3197ZM19.4984 36.7332L15.8504 33.0852L20.8841 28.0514V29.508L18.0353 32.3568C17.8355 32.5566 17.8355 32.8854 18.0353 33.0852C18.1384 33.1883 18.2674 33.2334 18.4027 33.2334C18.5316 33.2334 18.667 33.1818 18.7701 33.0852L20.8906 30.9646V32.4277L19.4984 33.8199C19.2986 34.0197 19.2986 34.3484 19.4984 34.5482C19.6015 34.6514 19.7304 34.6965 19.8658 34.6965C19.9947 34.6965 20.13 34.6449 20.2332 34.5482L20.9035 33.8779C20.9035 33.8844 20.9035 33.8844 20.9035 33.8908V33.8973C20.9099 33.9166 20.9099 33.9295 20.9164 33.9488C20.9164 33.9553 20.9228 33.9553 20.9228 33.9617C20.9293 33.9746 20.9357 33.9939 20.9422 34.0068C20.9422 34.0068 20.9422 34.0133 20.9486 34.0133L21.374 34.8576L19.4984 36.7332ZM24.5 38.7248L23.8232 37.3906H25.1832L24.5 38.7248ZM25.7052 36.3594H23.2947L22.2441 34.2969H26.7558L25.7052 36.3594ZM28.1093 26.6656L30.4361 24.3389C30.6359 24.1391 30.6359 23.8104 30.4361 23.6105C30.2363 23.4107 29.9076 23.4107 29.7078 23.6105L28.1093 25.209V23.7523L28.9795 22.8822C29.1793 22.6824 29.1793 22.3537 28.9795 22.1539C28.7797 21.9541 28.4509 21.9541 28.2511 22.1539L28.1093 22.2957V20.8391L28.9795 19.9689L32.6275 23.617L28.1093 28.1223V26.6656ZM37.1521 19.0859L35.5472 20.6908L34.1164 19.26L31.8992 17.0428L33.5041 15.4379C33.8263 15.1156 34.3484 15.1156 34.6707 15.4379L37.1521 17.9193C37.3068 18.074 37.3906 18.2803 37.3906 18.4994C37.3906 18.7186 37.3068 18.9312 37.1521 19.0859Z" fill="white"/>
</svg>
