<svg width="50" height="43" viewBox="0 0 50 43" fill="none" xmlns="http://www.w3.org/2000/svg">
<g clip-path="url(#clip0_1311_3054)">
<path d="M45.48 4.00004C42.8922 1.42551 39.3903 -0.0197398 35.74 -0.0197398C32.0897 -0.0197398 28.5878 1.42551 26 4.00004L24.68 5.32004L23.4 4.00004C20.8122 1.41391 17.3035 -0.0388184 13.645 -0.0388184C9.98651 -0.0388184 6.47774 1.41391 3.88999 4.00004C-1.48001 9.37004 -1.20001 18.44 4.16999 23.81L5.16999 24.81L21.94 41.62C22.6673 42.3455 23.6527 42.7529 24.68 42.7529C25.7073 42.7529 26.6926 42.3455 27.42 41.62L44.2 24.84L45.2 23.84C50.56 18.48 50.85 9.41004 45.48 4.00004V4.00004ZM44.48 14.33C44.2996 16.558 43.3151 18.6443 41.71 20.2L40.66 21.3L24.66 37.3L8.65999 21.3L7.63999 20.24C6.032 18.6853 5.04398 16.5991 4.85999 14.37C4.77619 13.1196 4.96043 11.8657 5.40039 10.6922C5.84036 9.51876 6.52589 8.4528 7.41111 7.56569C8.29633 6.67857 9.36083 5.99076 10.5334 5.54829C11.7059 5.10583 12.9594 4.9189 14.21 5.00004C16.443 5.18486 18.5311 6.18088 20.08 7.80004L21.15 8.86003L23 10.71L25.64 13.35C25.8829 13.5923 26.1712 13.7844 26.4884 13.9153C26.8056 14.0461 27.1454 14.1133 27.4885 14.1128C27.8316 14.1123 28.1713 14.0443 28.4881 13.9126C28.8049 13.7808 29.0927 13.588 29.335 13.345C29.5773 13.1021 29.7693 12.8138 29.9002 12.4966C30.0311 12.1795 30.0982 11.8396 30.0978 11.4965C30.0973 11.1534 30.0292 10.8137 29.8975 10.4969C29.7658 10.1801 29.5729 9.89232 29.33 9.65003L28.38 8.65003L29.5 7.58004C30.7652 6.31669 32.3852 5.4687 34.1443 5.14895C35.9034 4.82921 37.7182 5.05288 39.347 5.7902C40.9758 6.52751 42.3414 7.74349 43.262 9.27623C44.1825 10.809 44.6144 12.5858 44.5 14.37L44.48 14.33Z" fill="#FF0101"/>
<path d="M15.7054 15.4886C14.7291 14.5123 13.1462 14.5123 12.1699 15.4886C11.1936 16.4649 11.1936 18.0478 12.1699 19.0241L16.6529 23.5072C17.6292 24.4835 19.2121 24.4835 20.1885 23.5072C21.1648 22.5309 21.1648 20.9479 20.1885 19.9716L15.7054 15.4886Z" fill="#FF0101"/>
</g>
<defs>
<clipPath id="clip0_1311_3054">
<rect width="49.36" height="42.75" fill="white"/>
</clipPath>
</defs>
</svg>
