<svg width="50" height="50" viewBox="0 0 50 50" fill="none" xmlns="http://www.w3.org/2000/svg">
<path d="M40 0H10C4.47715 0 0 4.47715 0 10V40C0 45.5228 4.47715 50 10 50H40C45.5228 50 50 45.5228 50 40V10C50 4.47715 45.5228 0 40 0Z" fill="#FF0101"/>
<path d="M12.5535 13.6422L24.3413 15.9472L36.1291 18.2523C36.2337 18.2727 36.342 18.2507 36.4304 18.1913C36.5187 18.1318 36.5799 18.0397 36.6004 17.9352C36.6664 17.5979 36.6653 17.2508 36.5972 16.9139C36.529 16.5769 36.3952 16.2567 36.2033 15.9715C36.0114 15.6863 35.7652 15.4417 35.4787 15.2517C35.1923 15.0616 34.8712 14.9299 34.5338 14.864L30.6223 14.0991L30.8276 13.0489C30.9724 12.3043 30.8158 11.5327 30.3924 10.9034C29.969 10.2741 29.3132 9.83846 28.5689 9.69205L22.7814 8.56032C22.0368 8.4156 21.2653 8.57213 20.636 8.99557C20.0066 9.41902 19.571 10.0748 19.4246 10.819L19.2192 11.8692L15.3077 11.1043C14.9703 11.0383 14.6233 11.0394 14.2863 11.1076C13.9494 11.1757 13.6292 11.3095 13.344 11.5014C13.0588 11.6933 12.8142 11.9396 12.6241 12.226C12.4341 12.5125 12.3023 12.8335 12.2364 13.1709C12.2161 13.2755 12.238 13.3838 12.2975 13.4722C12.3569 13.5605 12.449 13.6217 12.5535 13.6422V13.6422ZM23.4861 10.5327L27.1732 11.2537C27.7278 11.3621 28.2165 11.6864 28.532 12.1552C28.8475 12.624 28.9638 13.199 28.8553 13.7535V13.7535L24.9208 12.9842L20.9862 12.2148C21.0399 11.9402 21.1472 11.6788 21.3019 11.4457C21.4565 11.2126 21.6556 11.0122 21.8878 10.856C22.1199 10.6998 22.3805 10.5908 22.6548 10.5354C22.929 10.4799 23.2115 10.479 23.4861 10.5327V10.5327Z" fill="white"/>
<path d="M36.5112 20.2104H12.489C12.3825 20.2105 12.2804 20.2528 12.2051 20.3281C12.1298 20.4034 12.0875 20.5055 12.0874 20.612V22.1355C12.0874 22.3571 16.2492 37.8755 16.2492 37.8755C16.3092 38.5892 16.635 39.2542 17.1621 39.739C17.6892 40.2238 18.3792 40.4929 19.0953 40.4931H29.9049C30.621 40.4929 31.311 40.2238 31.8381 39.739C32.3652 39.2542 32.691 38.5892 32.751 37.8755C32.751 37.8755 36.9128 22.3571 36.9128 22.1355V20.612C36.9127 20.5055 36.8704 20.4034 36.7951 20.3281C36.7198 20.2528 36.6177 20.2105 36.5112 20.2104V20.2104ZM20.5438 36.767C20.4584 36.7899 20.3693 36.7958 20.2817 36.7842C20.194 36.7727 20.1095 36.7439 20.0329 36.6997C19.9563 36.6554 19.8893 36.5965 19.8355 36.5263C19.7818 36.456 19.7424 36.3759 19.7197 36.2905C18.5744 32.0073 17.4097 27.6458 16.6478 24.7586C16.6022 24.586 16.6271 24.4024 16.7169 24.2481C16.8067 24.0939 16.9542 23.9816 17.1268 23.9361C17.2994 23.8905 17.483 23.9154 17.6373 24.0052C17.7915 24.0951 17.9038 24.2425 17.9493 24.4151C18.7109 27.3004 19.8754 31.6607 21.0201 35.9428C21.043 36.0282 21.0488 36.1173 21.0372 36.2049C21.0256 36.2925 20.9969 36.377 20.9527 36.4535C20.9084 36.5301 20.8496 36.5971 20.7794 36.6509C20.7093 36.7047 20.6292 36.7441 20.5438 36.7669L20.5438 36.767ZM25.1724 36.1166C25.172 36.2949 25.1009 36.4658 24.9747 36.5918C24.8485 36.7177 24.6775 36.7885 24.4992 36.7885C24.3209 36.7885 24.1499 36.7177 24.0237 36.5918C23.8975 36.4658 23.8264 36.2949 23.8261 36.1166V24.5869C23.8264 24.4086 23.8975 24.2377 24.0237 24.1117C24.1499 23.9858 24.3209 23.915 24.4992 23.915C24.6775 23.915 24.8485 23.9858 24.9747 24.1117C25.1009 24.2377 25.172 24.4086 25.1724 24.5869V36.1166ZM32.3524 24.7586C31.556 27.7765 30.2924 32.5067 29.2805 36.2906C29.2577 36.376 29.2183 36.4561 29.1645 36.5263C29.1107 36.5965 29.0437 36.6554 28.9671 36.6997C28.8906 36.7439 28.806 36.7727 28.7184 36.7843C28.6307 36.7959 28.5416 36.7901 28.4562 36.7672C28.3708 36.7444 28.2907 36.7049 28.2206 36.6511C28.1504 36.5973 28.0915 36.5302 28.0473 36.4536C28.0031 36.3771 27.9744 36.2925 27.9628 36.2049C27.9513 36.1172 27.9571 36.0281 27.98 35.9427C28.9916 32.1599 30.2549 27.4311 31.0508 24.4151C31.0734 24.3296 31.1126 24.2495 31.1661 24.1791C31.2196 24.1088 31.2865 24.0497 31.3629 24.0052C31.4393 23.9608 31.5237 23.9318 31.6113 23.9199C31.6988 23.908 31.7879 23.9135 31.8734 23.9361C31.9588 23.9586 32.039 23.9978 32.1093 24.0514C32.1797 24.1049 32.2388 24.1718 32.2832 24.2481C32.3277 24.3245 32.3567 24.4089 32.3686 24.4965C32.3805 24.5841 32.375 24.6732 32.3524 24.7586L32.3524 24.7586Z" fill="white"/>
</svg>
