<svg width="1000" height="1000" viewBox="0 0 1000 1000" fill="none" xmlns="http://www.w3.org/2000/svg">
<path d="M876.239 551.11C900.151 571.863 925.562 588.73 943.11 616.516C964.347 650.078 977.952 737.76 915.555 735.557C892.092 734.727 875.017 711.853 864.917 693.152C848.546 662.807 843.588 628.092 830.779 596.305C815.998 559.676 791.66 539.592 757.602 521.364C724.685 503.712 768.993 492.909 785.699 495.457C818.846 500.519 845.087 522.609 868.641 544.365C871.147 546.663 873.68 548.912 876.239 551.11Z" fill="#3D07AF"/>
<path d="M691.446 788.235C677.737 785.122 664.271 782.113 651.554 781.087C496.057 768.52 357.174 878.637 201.469 857.827C145.309 850.321 88.8381 826.375 53.2814 780.73C44.8073 769.788 37.3478 756.437 39.9765 742.879C44.9572 716.834 80.6984 702.03 102.374 693.544C129.618 682.88 158.384 676.4 185.247 664.617C198.575 658.852 212.918 651.935 223.444 641.777C232.402 633.153 238.674 620.794 236.922 608.492C235.458 598.288 228.851 589.549 226.349 579.553C215.662 536.594 278.093 505.557 308.692 492.183C357.531 470.854 410.947 459.22 463.867 454.251C538.624 447.218 619.514 450.654 684.332 492.091C740.826 528.212 785.791 585.756 808.446 648.891C823.435 690.766 832.093 758.351 788.235 785.733C759.285 803.858 724.639 795.752 691.446 788.235V788.235Z" fill="#3D07AF"/>
<path d="M422.525 739.117C507.121 691.274 566.737 636.643 555.681 617.094C544.626 597.546 467.085 620.483 382.489 668.325C297.893 716.168 238.277 770.799 249.332 790.348C260.388 809.896 337.929 786.959 422.525 739.117Z" fill="#232323" stroke="#232323" stroke-width="1.22" stroke-linecap="round"/>
<path d="M374.433 443.921C374.433 443.921 415.144 433.74 443.909 450.239C472.675 466.738 506.03 526.08 552.286 494.304C598.542 462.529 590.068 362.27 578.608 342.739C581.179 337.239 591.59 355.952 591.59 355.952C591.59 355.952 604.918 324.753 608.261 325.306C611.605 325.86 601.24 352.055 601.24 352.055C601.24 352.055 613.173 326.113 615.398 325.306C617.623 324.499 609.633 354.672 609.633 354.672C609.633 354.672 620.517 332.097 624.137 334.784C624.137 340.052 616.655 357.128 616.655 357.128C616.655 357.128 625.313 344.722 627.181 345.783C629.049 346.843 616.447 370.871 618.43 384.141C621.128 402.161 675.282 550.164 535.857 573.05C396.431 595.936 353.438 508.128 374.433 443.921V443.921Z" fill="#F75B31" stroke="#232323" stroke-width="1.22" stroke-linecap="round"/>
<path d="M474.797 646.424C487.41 658.276 510.538 663.96 525.999 666.554C549.403 644.89 561.129 626.731 555.687 617.104C544.63 597.504 467.083 620.494 382.492 668.341C374.037 673.099 365.871 677.922 357.992 682.81C407.073 659.406 463.717 636.047 474.797 646.424V646.424Z" fill="#232323" stroke="#232323" stroke-width="1.22" stroke-linecap="round"/>
<path d="M249.339 790.322C255.45 801.114 281.829 798.958 318.515 786.794C303.354 771.218 292.401 748.286 286.591 734.139C258.182 758.743 243.344 779.704 249.339 790.322V790.322Z" fill="#232323" stroke="#232323" stroke-width="1.22" stroke-linecap="round"/>
<path d="M474.797 646.424C463.717 636.047 407.073 659.44 357.992 682.81C317.293 702.18 281.794 721.526 281.794 721.526C281.794 721.526 283.431 726.576 286.544 734.208C292.309 748.355 303.308 771.287 318.469 786.863C348.181 777.006 384.648 760.588 422.534 739.155C465.435 714.943 501.914 688.875 525.999 666.588C510.538 663.925 487.41 658.241 474.797 646.424V646.424Z" fill="#F2C330" stroke="#232323" stroke-width="1.22" stroke-linecap="round"/>
<path d="M443.909 450.239C415.086 433.74 374.433 443.921 374.433 443.921C353.438 508.128 396.42 595.982 535.845 573.05C532.305 556.229 525.134 520.223 521.791 503.367C490.673 500.657 465.954 462.864 443.909 450.239Z" fill="#F75B31" stroke="#232323" stroke-width="1.22" stroke-linecap="round"/>
<path d="M618.43 384.141C616.447 370.871 629.129 346.832 627.204 345.783C625.279 344.733 616.678 357.128 616.678 357.128C616.678 357.128 624.16 340.052 624.16 334.784C620.54 332.097 609.656 354.672 609.656 354.672C609.656 354.672 617.612 324.488 615.421 325.306C613.23 326.125 601.263 352.055 601.263 352.055C601.263 352.055 611.639 325.894 608.284 325.306C604.929 324.718 591.67 355.952 591.67 355.952C591.67 355.952 581.294 337.239 578.688 342.739C590.148 362.27 598.692 462.518 552.367 494.304C541.529 501.741 531.406 504.185 521.883 503.355C525.226 520.211 532.398 556.217 535.937 573.039C675.247 550.084 621.128 402.161 618.43 384.141Z" fill="#F78270"/>
<path fill-rule="evenodd" clip-rule="evenodd" d="M618.43 384.141C616.447 370.871 629.129 346.832 627.204 345.783C625.279 344.733 616.678 357.128 616.678 357.128C616.678 357.128 624.16 340.052 624.16 334.784C620.54 332.097 609.656 354.672 609.656 354.672C609.656 354.672 617.612 324.488 615.421 325.306C613.23 326.125 601.263 352.055 601.263 352.055C601.263 352.055 611.639 325.894 608.284 325.306C604.929 324.718 591.67 355.952 591.67 355.952C591.67 355.952 581.294 337.239 578.688 342.739C590.148 362.27 598.692 462.518 552.367 494.304C541.529 501.741 531.406 504.185 521.883 503.355C525.226 520.211 532.398 556.217 535.937 573.039C675.247 550.084 621.128 402.161 618.43 384.141Z" stroke="#232323" stroke-width="1.22" stroke-linecap="round"/>
<path d="M335.487 369.06C335.487 369.06 333.573 433.233 306.756 423.664C279.938 414.094 269.654 388.222 262.713 415.801C255.773 443.379 235.977 463.982 210.693 449.72C185.409 435.458 174.052 409.229 161.393 425.797C148.733 442.364 118.377 498.178 71.1059 460.258C23.8353 422.338 44.0694 352.078 77.3779 369.268C98.9956 380.428 99.7796 325.768 122.631 324.176C145.482 322.585 155.559 373.361 168.541 358.211C181.523 343.062 195.116 315.991 217.599 315.449C240.081 314.907 244.993 376.785 267.821 360.413C290.649 344.042 308.877 291.836 339.084 348.688C339.176 355.756 335.487 369.06 335.487 369.06Z" fill="#2754E3"/>
<path d="M335.487 369.06C335.487 369.06 339.176 355.756 339.084 348.734C338.45 347.581 337.827 346.428 337.205 345.275C337.124 345.275 318.758 326.332 313.143 379.448C311.217 397.607 278.047 357.012 249.512 383.68C220.977 410.347 194.298 414.152 185.881 398.138C177.465 382.123 163.883 376.601 147.039 393.168C130.194 409.736 77.3318 434.559 64.1883 401.343C51.0448 368.127 75.0144 368.219 75.0144 368.219C43.1586 355.387 24.9883 423.226 71.1059 460.258C118.377 498.178 148.733 442.353 161.393 425.797C174.052 409.24 185.397 435.458 210.693 449.72C235.988 463.982 255.773 443.368 262.713 415.801C269.654 388.234 279.95 414.083 306.756 423.664C333.561 433.245 335.487 369.06 335.487 369.06V369.06Z" fill="#232323"/>
<path fill-rule="evenodd" clip-rule="evenodd" d="M335.487 369.06C335.487 369.06 333.573 433.233 306.756 423.664C279.938 414.094 269.654 388.222 262.713 415.801C255.773 443.379 235.977 463.982 210.693 449.72C185.409 435.458 174.052 409.229 161.393 425.797C148.733 442.364 118.377 498.178 71.1059 460.258C23.8353 422.338 44.0694 352.078 77.3779 369.268C98.9956 380.428 99.7796 325.768 122.631 324.176C145.482 322.585 155.559 373.361 168.541 358.211C181.523 343.062 195.116 315.991 217.599 315.449C240.081 314.907 244.993 376.785 267.821 360.413C290.649 344.042 308.877 291.836 339.084 348.688C339.176 355.756 335.487 369.06 335.487 369.06Z" stroke="#232323" stroke-width="1.22" stroke-linecap="round"/>
<mask id="mask0_0_288" style="mask-type:luminance" maskUnits="userSpaceOnUse" x="262" y="442" width="213" height="280">
<path fill-rule="evenodd" clip-rule="evenodd" d="M441.108 490.972C475.5 497.256 475.846 552.701 447.068 558.996C447.426 592.685 463.21 635.84 474.797 646.366C454.793 669.528 411.281 722.172 281.794 721.468C255.473 651.289 236.172 486.384 358.638 446.7C366.375 442.962 375.091 441.752 383.553 443.241" fill="white"/>
</mask>
<g mask="url(#mask0_0_288)">
<path d="M441.108 490.972C475.5 497.256 475.846 552.701 447.068 558.996C447.426 592.685 463.21 635.84 474.797 646.366C454.793 669.528 411.281 722.172 281.794 721.468C255.473 651.289 236.172 486.384 358.638 446.7C366.375 442.962 375.091 441.752 383.553 443.241" fill="#F75B31"/>
<path d="M351.905 449.167H351.766L349.656 449.997C350.406 449.709 351.144 449.42 351.905 449.167Z" fill="#DE451F"/>
<path d="M302.501 685.693C256.164 643.703 262.263 495.308 339.142 454.678C238.409 504.865 256.971 655.29 281.794 721.492C411.281 722.195 454.793 669.552 474.797 646.389C474.797 646.424 351.271 729.908 302.501 685.693V685.693Z" fill="#DE451F"/>
<path fill-rule="evenodd" clip-rule="evenodd" d="M372.047 635.275C386.724 635.275 398.622 623.376 398.622 608.699C398.622 594.022 386.724 582.124 372.047 582.124C357.369 582.124 345.471 594.022 345.471 608.699C345.471 623.376 357.369 635.275 372.047 635.275Z" stroke="white" stroke-width="1.22"/>
<path fill-rule="evenodd" clip-rule="evenodd" d="M430.27 548.839C439.038 548.839 446.146 541.731 446.146 532.963C446.146 524.195 439.038 517.087 430.27 517.087C421.502 517.087 414.394 524.195 414.394 532.963C414.394 541.731 421.502 548.839 430.27 548.839Z" stroke="white" stroke-width="1.22"/>
<path fill-rule="evenodd" clip-rule="evenodd" d="M306.006 699.712C324.275 699.712 339.084 684.903 339.084 666.635C339.084 648.366 324.275 633.557 306.006 633.557C287.738 633.557 272.928 648.366 272.928 666.635C272.928 684.903 287.738 699.712 306.006 699.712Z" stroke="white" stroke-width="1.22"/>
<path fill-rule="evenodd" clip-rule="evenodd" d="M366.374 726.23C377.626 726.23 386.747 717.109 386.747 705.858C386.747 694.606 377.626 685.485 366.374 685.485C355.123 685.485 346.002 694.606 346.002 705.858C346.002 717.109 355.123 726.23 366.374 726.23Z" stroke="white" stroke-width="1.22"/>
<path fill-rule="evenodd" clip-rule="evenodd" d="M316.279 502.629C327.352 502.629 336.329 493.652 336.329 482.579C336.329 471.506 327.352 462.529 316.279 462.529C305.206 462.529 296.229 471.506 296.229 482.579C296.229 493.652 305.206 502.629 316.279 502.629Z" stroke="white" stroke-width="1.22"/>
<path fill-rule="evenodd" clip-rule="evenodd" d="M442.157 690.028C456.834 690.028 468.732 678.13 468.732 663.452C468.732 648.775 456.834 636.877 442.157 636.877C427.48 636.877 415.582 648.775 415.582 663.452C415.582 678.13 427.48 690.028 442.157 690.028Z" stroke="white" stroke-width="1.22"/>
<path fill-rule="evenodd" clip-rule="evenodd" d="M279.073 596.997C293.852 596.997 305.833 585.016 305.833 570.237C305.833 555.458 293.852 543.477 279.073 543.477C264.294 543.477 252.314 555.458 252.314 570.237C252.314 585.016 264.294 596.997 279.073 596.997Z" stroke="white" stroke-width="1.22"/>
</g>
<path d="M271.925 367.712C270.465 368.72 268.922 369.604 267.313 370.352" stroke="white" stroke-linecap="round"/>
<path d="M333.976 354.118C333.976 354.118 321.294 323.6 305.891 332.824C296.736 338.323 287.524 354.349 276.364 364.184" stroke="white" stroke-linecap="round"/>
<path fill-rule="evenodd" clip-rule="evenodd" d="M399.44 478.728C407.928 478.728 414.809 471.847 414.809 463.36C414.809 454.872 407.928 447.991 399.44 447.991C390.953 447.991 384.072 454.872 384.072 463.36C384.072 471.847 390.953 478.728 399.44 478.728Z" stroke="white"/>
<path d="M441.108 490.972C475.5 497.256 475.846 552.701 447.068 558.996C447.426 592.685 463.21 635.84 474.797 646.366C454.793 669.528 411.281 722.172 281.794 721.468C255.473 651.289 236.172 486.384 358.638 446.7C366.375 442.962 375.091 441.752 383.553 443.241" stroke="#232323" stroke-linecap="round"/>
<path d="M447.068 559.019C475.892 552.701 475.5 497.256 441.108 490.996C448.348 493.232 467.556 488.39 490.246 534.715C512.936 581.04 447.068 559.019 447.068 559.019Z" fill="#232323" stroke="#232323" stroke-linecap="round"/>
<path d="M535.914 573.039C675.247 550.084 621.128 402.161 618.43 384.141C616.447 370.871 629.129 346.832 627.204 345.783C625.279 344.733 616.678 357.128 616.678 357.128C616.678 357.128 624.16 340.052 624.16 334.784C620.54 332.097 609.656 354.672 609.656 354.672V354.603C589.641 390.424 607.454 485.219 592.916 504.001C576.405 525.33 548.412 529.596 527.198 530.415C530.38 546.014 533.793 562.962 535.914 573.039V573.039Z" fill="#F56C5D"/>
<path d="M338.461 382.734C338.461 382.734 320.672 372.877 331.428 352.666C342.185 332.455 362.984 344.745 362.984 344.745L338.461 382.734Z" fill="#F2C330" stroke="#232323" stroke-width="1.22"/>
<path d="M339.672 372.681C339.672 372.681 344.952 335.141 384.256 327.416C402.853 323.957 402.853 359.341 420.401 350.048C437.603 339.349 431.631 388.822 407.719 397.25C383.807 405.678 377.546 353.738 370.525 357.243L339.672 372.681Z" fill="#2754E3"/>
<path d="M404.064 361.889C402.507 345.195 386.136 343.085 380.394 342.508C395.278 351.248 386.089 364.679 381.213 375.471C386.758 388.153 394.587 401.896 407.73 397.25C418.522 393.445 425.647 381.259 428.633 370.029C412.861 378.134 404.905 370.94 404.064 361.889V361.889Z" fill="#1540B3"/>
<path d="M387.069 366.017C387.069 366.017 413.38 385.317 412.33 409.529C411.281 433.74 390.932 435.147 390.932 435.147C390.932 435.147 395.14 469.597 410.232 486.407C416.193 492.69 354.084 478.601 351.905 449.167C349.599 418.602 357.946 378.999 357.946 378.999C357.946 378.999 371.632 354.787 387.069 366.017V366.017Z" fill="#F79C87" stroke="#232323" stroke-width="1.22"/>
<path d="M370.571 409.183C370.571 409.183 367.769 391.981 380.394 388.43C393.019 384.879 402.507 355.444 380.394 342.462C358.28 329.48 317.904 368.715 352.654 418.925C354.96 398.022 361.451 391.589 363.561 394.713C365.671 397.838 366.017 409.183 370.571 409.183V409.183Z" fill="#2754E3"/>
<path opacity="0.48" d="M594.841 429.878C652.607 429.878 699.436 383.049 699.436 325.283C699.436 267.517 652.607 220.688 594.841 220.688C537.075 220.688 490.246 267.517 490.246 325.283C490.246 383.049 537.075 429.878 594.841 429.878Z" fill="#7DAEF7"/>
<path d="M504.07 377.304C490.294 353.2 486.633 324.618 493.889 297.82C494.489 295.607 495.158 293.439 495.884 291.295C496.714 288.885 497.636 286.51 498.628 284.181C499.912 281.183 501.326 278.266 502.871 275.43" stroke="#232323" stroke-width="1.22" stroke-linecap="round"/>
<path d="M594.841 429.89C591.682 429.89 588.557 429.74 585.467 429.475C554.093 426.657 525.66 409.847 508.071 383.714" stroke="#232323" stroke-width="1.22" stroke-linecap="round"/>
<path d="M562.063 407.765C546.694 413.898 559.192 393.929 545.149 380.336C536.744 372.208 522.748 381.489 512.867 390.171C530.249 412.154 555.736 426.229 583.6 429.232C584.219 428.237 584.63 427.128 584.81 425.97C587.958 405.32 577.432 401.666 562.063 407.765V407.765Z" fill="#1DD6BA"/>
<path d="M563.781 407.154L562.063 407.811" stroke="#232323" stroke-linecap="round"/>
<path d="M545.149 380.382C536.744 372.254 522.748 381.535 512.867 390.217C530.249 412.2 555.736 426.275 583.6 429.279C584.219 428.283 584.63 427.174 584.81 426.016C587.658 407.35 579.357 402.542 566.421 406.3" stroke="#232323" stroke-linecap="round"/>
<path d="M604.157 429.475C602.912 429.59 601.666 429.671 600.41 429.74" stroke="#232323" stroke-linecap="round"/>
<path d="M566.271 224.643C621.006 209.24 678.024 240.37 694.663 294.742C711.303 349.114 681.473 406.822 627.492 424.69C625.186 425.428 622.881 426.096 620.575 426.684" stroke="#232323" stroke-linecap="round"/>
<path d="M548.885 231.296C551.713 229.912 554.607 228.655 557.566 227.525" stroke="#232323" stroke-linecap="round"/>
<path d="M526.575 246.03C529.571 243.451 532.708 241.042 535.972 238.813" stroke="#232323" stroke-linecap="round"/>
<path d="M339.672 372.681C339.672 372.681 344.952 335.141 384.256 327.416C402.853 323.957 402.853 359.341 420.401 350.048C436.98 339.73 432.034 385.34 410.278 396.166" stroke="#232323" stroke-linecap="round"/>
<path d="M380.394 342.508C402.507 355.49 393.076 384.96 380.394 388.476C367.712 391.992 370.571 409.229 370.571 409.229C366.017 409.229 365.659 397.999 363.561 394.84C361.463 391.681 354.937 398.115 352.654 419.052C337.401 397.008 336.628 377.073 342.428 362.754" stroke="#232323" stroke-linecap="round"/>
<path d="M342.427 362.673C336.663 376.993 337.401 396.927 352.654 418.971C354.96 398.068 361.451 391.635 363.561 394.76C365.671 397.884 366.017 409.148 370.571 409.148C370.571 409.148 367.769 391.946 380.394 388.395C393.019 384.844 402.507 355.41 380.394 342.428" stroke="#232323" stroke-linecap="round"/>
<path d="M390.932 435.147C382.11 435.914 373.709 431.234 369.718 423.329Z" fill="#F79C87"/>
<path d="M390.932 435.147C382.11 435.914 373.709 431.234 369.718 423.329" stroke="#232323" stroke-linecap="round"/>
<path d="M390.932 435.147C382.11 435.914 373.709 431.234 369.718 423.329C370.19 428.241 377.961 447.61 393.261 447.991C391.981 441.65 390.932 435.147 390.932 435.147V435.147Z" fill="#232323" stroke="#232323" stroke-linecap="round"/>
<path d="M401.02 391.923C401.02 392.269 404.398 399.394 407.834 401.331C411.27 403.268 406.128 407.2 401.02 406.9" stroke="#232323" stroke-linecap="round"/>
<path d="M388.672 414.164C388.089 414.166 387.54 414.438 387.183 414.9C386.827 415.362 386.705 415.962 386.85 416.527C387.91 420.387 391.419 423.063 395.422 423.063C399.426 423.063 402.935 420.387 403.995 416.527C404.14 415.962 404.017 415.362 403.661 414.9C403.305 414.438 402.756 414.166 402.173 414.164C398.68 414.129 392.073 414.152 388.672 414.164V414.164Z" fill="white" stroke="#232323" stroke-linecap="round"/>
<path d="M387.554 395.497C391.54 395.497 394.771 394.16 394.771 392.511C394.771 390.862 391.54 389.525 387.554 389.525C383.568 389.525 380.336 390.862 380.336 392.511C380.336 394.16 383.568 395.497 387.554 395.497Z" fill="white" stroke="#161515"/>
<path d="M390.136 389.733C392.846 390.159 394.748 391.243 394.748 392.511C394.748 393.78 392.823 394.817 390.136 395.29C388.699 395.159 387.599 393.954 387.599 392.511C387.599 391.069 388.699 389.864 390.136 389.733Z" fill="#161515"/>
<path d="M463.636 628.968C511.944 609.806 548.366 604.134 555.687 617.07C566.732 636.612 507.125 691.25 422.534 739.085C337.943 786.921 260.396 809.876 249.339 790.322C243.344 779.704 258.182 758.743 286.544 734.139" stroke="#232323" stroke-width="1.22" stroke-linecap="round"/>
<path d="M412.549 396.189C416.536 396.189 419.767 394.852 419.767 393.203C419.767 391.554 416.536 390.217 412.549 390.217C408.563 390.217 405.332 391.554 405.332 393.203C405.332 394.852 408.563 396.189 412.549 396.189Z" fill="white" stroke="#161515" stroke-width="1.22"/>
<path d="M415.132 390.471C417.841 390.897 419.744 391.981 419.744 393.249C419.744 394.517 417.818 395.555 415.132 396.028C413.695 395.897 412.595 394.692 412.595 393.249C412.595 391.806 413.695 390.602 415.132 390.471V390.471Z" fill="#161515"/>
<path d="M318.988 586.39C360.552 605.448 395.394 617.519 424.54 623.964C410.183 596.858 408.495 564.804 419.928 536.341C381.558 521.894 351.709 494.304 351.709 494.304" fill="#F75B31"/>
<path d="M318.988 586.39C360.552 605.448 395.394 617.519 424.54 623.964C410.183 596.858 408.495 564.804 419.928 536.341C381.558 521.894 351.709 494.304 351.709 494.304" fill="#F75B31"/>
<path d="M318.988 586.39C360.552 605.448 395.394 617.519 424.54 623.964C410.183 596.858 408.495 564.804 419.928 536.341C381.558 521.894 351.709 494.304 351.709 494.304" fill="#F75B31"/>
<path d="M414.129 593.826C411.12 593.227 408.18 592.616 405.332 592.005C373.453 585.087 339.153 584.983 319.23 585.721L318.988 586.39C360.552 605.448 395.394 617.519 424.54 623.964C419.597 614.489 416.088 604.332 414.129 593.826V593.826Z" fill="#DE451F"/>
<path fill-rule="evenodd" clip-rule="evenodd" d="M412.376 576.774C403.608 576.774 396.5 583.882 396.5 592.65C396.5 601.418 403.608 608.526 412.376 608.526C414.177 608.524 415.963 608.212 417.657 607.604C414.366 597.649 412.586 587.257 412.376 576.774Z" stroke="white" stroke-width="1.22"/>
<path d="M318.988 586.39C360.552 605.448 395.394 617.519 424.54 623.964C410.183 596.858 408.495 564.804 419.928 536.341C381.558 521.894 351.709 494.304 351.709 494.304" stroke="#232323" stroke-width="1.22" stroke-linecap="round"/>
<path d="M545.449 411.639C540.295 390.574 569.188 381.547 568.658 379.967C568.127 378.388 562.697 377.246 555.157 379.091C556.114 375.056 574.457 374.698 573.489 371.02C572.82 368.472 562.167 369.256 550.764 372.946C552.701 368.911 575.898 363.861 574.365 360.932C572.174 356.712 556.114 362.858 548.135 366.017C553.9 358.995 572.958 354.257 568.047 352.066C548.573 351.536 528.847 372.093 528.847 372.093C528.847 372.093 531.89 356.194 528.847 354.799C525.803 353.404 509.662 389.652 494.927 497.268C488.009 547.882 453.998 549.15 419.986 536.352C408.553 564.815 410.24 596.87 424.598 623.976C632.969 670.209 549.957 430.109 545.449 411.639V411.639Z" fill="#F79C87"/>
<path d="M555.157 379.091C555.218 378.844 555.336 378.615 555.503 378.422C498.536 405.897 533.47 503.378 530.945 555.157C528.293 609.345 462.506 603.488 414.129 593.826C416.077 604.33 419.574 614.487 424.505 623.964C632.934 670.209 549.922 430.109 545.414 411.639C540.261 390.574 569.153 381.547 568.623 379.967C568.093 378.388 562.697 377.246 555.157 379.091V379.091Z" fill="#F78270"/>
<path d="M562.801 375.482C565.757 374.906 568.673 374.136 571.529 373.176C568.575 373.767 565.66 374.537 562.801 375.482V375.482Z" fill="#F78270"/>
<path fill-rule="evenodd" clip-rule="evenodd" d="M545.449 411.639C540.295 390.574 569.188 381.547 568.658 379.967C568.127 378.388 562.697 377.246 555.157 379.091C556.114 375.056 574.457 374.698 573.489 371.02C572.82 368.472 562.167 369.256 550.764 372.946C552.701 368.911 575.898 363.861 574.365 360.932C572.174 356.712 556.114 362.858 548.135 366.017C553.9 358.995 572.958 354.257 568.047 352.066C548.573 351.536 528.847 372.093 528.847 372.093C528.847 372.093 531.89 356.194 528.847 354.799C525.803 353.404 509.662 389.652 494.927 497.268C488.009 547.882 453.998 549.15 419.986 536.352C408.553 564.815 410.24 596.87 424.598 623.976C632.969 670.209 549.957 430.109 545.449 411.639V411.639Z" stroke="#232323" stroke-width="1.22" stroke-linecap="round"/>
<path d="M621.517 661.339C642.726 639.892 654.483 617.13 647.778 610.499C641.072 603.868 618.443 615.879 597.234 637.326C576.026 658.774 564.268 681.535 570.973 688.166C577.679 694.797 600.308 682.786 621.517 661.339Z" fill="#232323" stroke="#232323" stroke-width="1.22" stroke-linecap="round"/>
<path d="M671.869 254.539C652.084 232.942 624.131 220.658 594.841 220.688C590.761 220.697 586.684 220.939 582.631 221.415C582.332 221.864 574.676 233.578 594.841 244.128C602.912 248.371 600.214 251.737 594.841 256.372C586.574 263.509 572.001 273.666 581.006 294.661C595.786 329.249 639.125 320.395 632.888 303.55C626.651 286.706 627.123 277.356 642.561 283.432C657.999 289.508 680.136 278.485 671.869 254.539V254.539Z" fill="#1DD6BA"/>
<path d="M642.527 283.432C657.964 289.519 680.136 278.485 671.869 254.539C659.344 240.914 643.431 230.853 625.751 225.381C639.967 235.354 653.341 249.466 638.353 260.972C612.147 281.091 583.335 277.736 600.444 293.255C609.576 301.521 604.445 312.336 605.656 317.19C621.382 321.502 636.785 314.088 632.888 303.585C626.628 286.706 627.089 277.356 642.527 283.432Z" fill="#10BA9D"/>
<path d="M671.108 274.508C673.956 269.492 674.717 262.782 671.869 254.539C652.084 232.942 624.131 220.658 594.841 220.688C590.761 220.697 586.684 220.939 582.631 221.415" stroke="#232323" stroke-width="1.22" stroke-linecap="round"/>
<path d="M662.449 282.532C663.723 281.88 664.931 281.108 666.058 280.226" stroke="#232323" stroke-width="1.22" stroke-linecap="round"/>
<path d="M582.943 268.028C578.331 274.381 575.898 282.797 580.959 294.661C595.74 329.249 639.079 320.395 632.842 303.55C626.604 286.706 627.077 277.356 642.515 283.432C647.352 285.286 652.648 285.589 657.665 284.296" stroke="#232323" stroke-width="1.22" stroke-linecap="round"/>
<path d="M594.841 256.372C593.112 257.871 591.094 259.496 589.076 261.341" stroke="#232323" stroke-width="1.22" stroke-linecap="round"/>
<path d="M568.196 302.755C568.196 302.755 566.432 310.699 578.365 315.852C590.298 321.006 594.864 331.878 587.497 335.74C580.129 339.603 561.175 333.896 558.362 321.133C555.549 308.37 564.311 293.624 568.196 302.755Z" fill="#1DD6BA"/>
<path d="M578.4 315.852C566.467 310.699 568.231 302.755 568.231 302.755C566.755 299.296 564.576 299.296 562.593 301.244C563.331 308.047 565.487 318.4 571.817 320.844C578.146 323.289 568.6 325.514 562.858 329.042C569.661 336.052 581.94 338.646 587.543 335.717C594.864 331.878 590.298 320.994 578.4 315.852V315.852Z" fill="#10BA9D"/>
<path fill-rule="evenodd" clip-rule="evenodd" d="M568.196 302.755C568.196 302.755 566.432 310.699 578.365 315.852C590.298 321.006 594.864 331.878 587.497 335.74C580.129 339.603 561.175 333.896 558.362 321.133C555.549 308.37 564.311 293.624 568.196 302.755Z" stroke="#232323" stroke-width="1.22" stroke-linecap="round"/>
<path d="M695.032 323.877C695.032 323.877 682.776 299.561 665.24 307.736C647.703 315.91 681.023 336.905 659.971 340.767C638.918 344.63 623.365 374.675 639.621 396.869C643.961 402.568 649.678 407.071 656.235 409.955C681.66 391.545 697.455 362.675 699.251 331.336C698.278 328.628 696.851 326.106 695.032 323.877V323.877Z" fill="#1DD6BA"/>
<path d="M699.251 331.336C698.278 328.628 696.851 326.106 695.032 323.877C695.032 323.877 682.776 299.561 665.24 307.736C663.718 308.374 662.376 309.375 661.331 310.652C669.897 313.443 683.387 319.415 686.984 330.033C692.357 345.944 642.527 369.81 648.141 389.456C651.404 400.882 655.059 405.297 656.304 409.944C681.698 391.52 697.467 362.659 699.251 331.336V331.336Z" fill="#10BA9D"/>
<path d="M673.668 306.075C670.765 305.864 667.859 306.421 665.24 307.689" stroke="#232323" stroke-width="1.22" stroke-linecap="round"/>
<path d="M644.775 348.78C632.877 360.091 627.688 380.601 639.621 396.869C643.962 402.568 649.678 407.071 656.235 409.955C681.66 391.545 697.455 362.675 699.251 331.336C698.278 328.628 696.851 326.106 695.032 323.877C695.032 323.877 689.82 313.5 681.335 308.6" stroke="#232323" stroke-width="1.22" stroke-linecap="round"/>
<path d="M660.259 317.201C662.415 326.505 674.993 337.954 660.005 340.721" stroke="#232323" stroke-width="1.22" stroke-linecap="round"/>
<path d="M490.246 325.283C490.246 336.654 492.108 347.949 495.757 358.719C517.455 368.622 524.823 342.047 520.407 320.672C515.853 298.558 544.976 318.562 553.22 284.873C558.604 262.898 543.005 248.993 531.51 241.972C505.47 261.75 490.198 292.584 490.246 325.283V325.283Z" fill="#1DD6BA"/>
<path d="M532.098 242.421C532.098 242.421 554.557 275.718 535.972 288.539C517.386 301.36 496.322 297.924 499.078 323.646C500.484 336.478 496.057 339.234 491.468 341.424C492.387 347.3 493.806 353.085 495.711 358.719C517.409 368.622 524.777 342.047 520.361 320.672C515.807 298.558 544.93 318.562 553.174 284.873C558.512 263.347 543.535 249.547 532.098 242.421V242.421Z" fill="#10BA9D"/>
<path d="M554.188 273.274C553.866 269.734 552.962 266.271 551.513 263.024" stroke="#232323" stroke-width="1.22" stroke-linecap="round"/>
<path d="M531.51 242.052C495.763 269.246 481.376 316.23 495.769 358.776C517.467 368.68 524.834 342.105 520.419 320.729C515.864 298.616 544.988 318.619 553.231 284.93" stroke="#232323" stroke-width="1.22" stroke-linecap="round"/>
<path d="M913.906 419.49C913.906 411.421 907.368 404.877 899.298 404.871H700.923C696.408 404.88 692.151 406.979 689.394 410.555L676.4 425.935C676.4 425.935 681.865 429.336 686.327 429.175V559.63C686.327 567.7 692.865 574.243 700.935 574.249H894.744L897.892 583.68L909.513 570.087C910.131 569.493 910.691 568.84 911.185 568.139L911.266 568.047C913.001 565.588 913.932 562.651 913.929 559.642L913.906 419.49Z" fill="#F75B31" stroke="#232323" stroke-width="1.22" stroke-linecap="round"/>
<rect x="673.656" y="419.594" width="227.614" height="169.379" rx="12.67" fill="#F2C330" stroke="#232323" stroke-width="1.22" stroke-linecap="round"/>
<rect x="673.656" y="419.594" width="227.614" height="169.379" rx="12.67" fill="#F2C330"/>
<rect x="673.656" y="419.594" width="227.614" height="169.379" rx="12.67" stroke="#232323" stroke-width="1.22" stroke-linecap="round"/>
<path d="M471.638 175.067C471.638 170.063 466.219 165.993 459.543 165.993H295.249C291.73 165.91 288.313 167.172 285.691 169.521L276.053 180.405C278.383 180.897 280.762 181.125 283.143 181.085V262.068C283.143 267.083 288.562 271.141 295.249 271.141H455.75V276.998L467.96 268.559C468.455 268.217 468.918 267.831 469.343 267.406L469.413 267.348C470.799 265.959 471.593 264.087 471.626 262.125L471.638 175.067Z" fill="#F75B31" stroke="#232323" stroke-width="1.22" stroke-linecap="round"/>
<rect x="272.675" y="175.136" width="188.494" height="105.148" rx="12.67" fill="#F2C330" stroke="#232323" stroke-width="1.22" stroke-linecap="round"/>
<path d="M699.251 359.272H728.813C733.098 359.272 736.572 362.746 736.572 367.031V397.953" stroke="white" stroke-width="1.22" stroke-linecap="round"/>
<path d="M862.554 459.359V565.683H713.767" stroke="#232323" stroke-width="1.22" stroke-linecap="round"/>
<path d="M823.596 472.698H841.144V556.563H823.596V472.698Z" fill="white" stroke="#232323" stroke-width="1.22" stroke-linecap="round"/>
<path d="M786.379 496.91H803.927V556.563H786.379V496.91Z" fill="white" stroke="#232323" stroke-width="1.22" stroke-linecap="round"/>
<path d="M749.162 520.061H766.71V556.552H749.162V520.061Z" fill="white" stroke="#232323" stroke-width="1.22" stroke-linecap="round"/>
<path d="M717.906 553.75C717.906 553.75 705.685 484.574 798.612 468.432C871.247 455.819 845.594 410.209 830.894 390.874" stroke="white" stroke-width="1.22" stroke-linecap="round"/>
<path d="M832.474 392.938L830.525 398.541L830.329 398.472L827.62 390.032C826.282 387.404 824.933 384.787 823.596 382.169L830.514 387.611L838.284 391.9V392.085L832.474 392.938Z" fill="white"/>
<path d="M714.24 483.628C726.936 483.628 737.229 473.335 737.229 460.639C737.229 447.942 726.936 437.649 714.24 437.649C701.543 437.649 691.25 447.942 691.25 460.639C691.25 473.335 701.543 483.628 714.24 483.628Z" fill="#7DAEF7" stroke="#232323" stroke-width="1.22" stroke-linecap="round"/>
<path d="M703.586 461.399L711.657 471.349L724.881 449.928" stroke="#232323" stroke-width="3.65" stroke-linecap="round"/>
<path d="M381.939 286.706V308.52C381.939 313.314 385.826 317.201 390.62 317.201H476.826" stroke="white" stroke-width="1.22" stroke-linecap="round"/>
<path d="M315.068 246.03C328.618 246.03 339.603 235.046 339.603 221.496C339.603 207.945 328.618 196.961 315.068 196.961C301.518 196.961 290.534 207.945 290.534 221.496C290.534 235.046 301.518 246.03 315.068 246.03Z" fill="#7DAEF7" stroke="#232323" stroke-width="1.22" stroke-linecap="round"/>
<path d="M358.523 202.022H393.295Z" fill="white"/>
<path d="M358.523 202.022H393.295" stroke="#232323" stroke-width="1.22" stroke-linecap="round"/>
<path d="M408.941 202.022H422.153Z" fill="white"/>
<path d="M408.941 202.022H422.153" stroke="#232323" stroke-width="1.22" stroke-linecap="round"/>
<path d="M358.523 220.688H444.152Z" fill="white"/>
<path d="M358.523 220.688H444.152" stroke="#232323" stroke-width="1.22" stroke-linecap="round"/>
<path d="M358.523 239.355H444.152Z" fill="white"/>
<path d="M358.523 239.355H444.152" stroke="#232323" stroke-width="1.22" stroke-linecap="round"/>
<path d="M292.551 258.021H444.152Z" fill="white"/>
<path d="M292.551 258.021H444.152" stroke="#232323" stroke-width="1.22" stroke-linecap="round"/>
<path d="M906.884 198.368C906.877 180.143 898.344 162.971 883.822 151.96C869.3 140.948 850.462 137.366 832.912 142.277L832.497 142.404C831.159 142.796 829.833 143.211 828.531 143.684L810.429 149.506L813.508 151.892C793.702 166.858 785.56 192.734 793.228 216.344C800.896 239.954 822.688 256.107 847.508 256.58L843.911 260.961L864.26 254.47C865.782 254.043 867.281 253.582 868.745 253.04C891.654 244.603 906.877 222.781 906.884 198.368V198.368Z" fill="#F75B31" stroke="#232323" stroke-width="1.22" stroke-linecap="round"/>
<path d="M827.574 263.451C859.742 263.451 885.82 237.373 885.82 205.204C885.82 173.036 859.742 146.958 827.574 146.958C795.405 146.958 769.327 173.036 769.327 205.204C769.327 237.373 795.405 263.451 827.574 263.451Z" fill="#F2C330" stroke="#232323" stroke-width="1.22" stroke-linecap="round"/>
<path d="M827.574 251.53C853.158 251.53 873.899 230.789 873.899 205.204C873.899 179.62 853.158 158.879 827.574 158.879C801.989 158.879 781.249 179.62 781.249 205.204C781.249 230.789 801.989 251.53 827.574 251.53Z" fill="#7DAEF7"/>
<path fill-rule="evenodd" clip-rule="evenodd" d="M827.574 251.53C853.158 251.53 873.899 230.789 873.899 205.204C873.899 179.62 853.158 158.879 827.574 158.879C801.989 158.879 781.249 179.62 781.249 205.204C781.249 230.789 801.989 251.53 827.574 251.53Z" stroke="#232323" stroke-width="1.22" stroke-linecap="round"/>
<path d="M826.179 198.022C811.837 198.022 800.209 209.644 800.203 223.986V242.571C815.481 253.753 836.029 254.507 852.085 244.474V223.986C852.085 209.669 840.496 198.053 826.179 198.022V198.022Z" fill="white"/>
<path opacity="0.6" d="M826.179 198.022C824.585 198.024 822.994 198.175 821.428 198.471C821.867 198.656 837.639 205.493 835.068 228.229C832.762 248.912 818.004 236.622 812.816 249.12C825.955 253.543 840.384 251.851 852.143 244.508V223.986C852.143 209.646 840.518 198.022 826.179 198.022V198.022Z" fill="#C3C5C7"/>
<path fill-rule="evenodd" clip-rule="evenodd" d="M826.179 198.022C811.837 198.022 800.209 209.644 800.203 223.986V242.571C815.481 253.753 836.029 254.507 852.085 244.474V223.986C852.085 209.669 840.496 198.053 826.179 198.022V198.022Z" stroke="#232323" stroke-width="1.22" stroke-linecap="round"/>
<path d="M826.352 193.86C834.005 193.86 840.21 187.655 840.21 180.001C840.21 172.347 834.005 166.143 826.352 166.143C818.698 166.143 812.493 172.347 812.493 180.001C812.493 187.655 818.698 193.86 826.352 193.86Z" fill="white"/>
<path opacity="0.6" d="M826.352 166.131C824.561 166.132 822.787 166.481 821.129 167.157L820.472 167.457C820.472 167.457 834.653 171.469 832.474 182.376C831.021 189.663 821.59 189.501 815.491 188.602C819.515 193.639 826.485 195.229 832.295 192.436C838.105 189.642 841.216 183.206 839.795 176.917C838.374 170.629 832.798 166.155 826.352 166.131V166.131Z" fill="#C3C5C7"/>
<path fill-rule="evenodd" clip-rule="evenodd" d="M826.352 193.86C834.005 193.86 840.21 187.655 840.21 180.001C840.21 172.347 834.005 166.143 826.352 166.143C818.698 166.143 812.493 172.347 812.493 180.001C812.493 187.655 818.698 193.86 826.352 193.86Z" stroke="#232323" stroke-linecap="round"/>
<path d="M757.625 202.311H632.023C628.642 202.311 625.901 205.052 625.901 208.433V218.279" stroke="white" stroke-linecap="round"/>
<path d="M696.922 576.774H819.388" stroke="#232323" stroke-linecap="round"/>
<path d="M826.052 576.774H838.965" stroke="#232323" stroke-linecap="round"/>
<path d="M874.176 466.38H887.077" stroke="#232323" stroke-linecap="round"/>
<path d="M874.176 474.093H887.077" stroke="#232323" stroke-linecap="round"/>
<path d="M874.176 481.818H887.077" stroke="#232323" stroke-linecap="round"/>
<path d="M880.621 443.218C883.817 443.218 886.408 440.626 886.408 437.43C886.408 434.233 883.817 431.642 880.621 431.642C877.424 431.642 874.833 434.233 874.833 437.43C874.833 440.626 877.424 443.218 880.621 443.218Z" fill="white" stroke="#232323" stroke-linecap="round"/>
<path d="M442.157 692.368C442.157 692.368 453.444 711.219 467.625 711.438" stroke="#232323" stroke-linecap="round"/>
<path d="M488.471 696.922C461.446 703.241 449.87 695.17 442.146 692.368C442.146 692.368 453.433 711.219 467.614 711.438C474.912 706.573 481.887 701.73 488.471 696.934V696.922Z" fill="#232323" stroke="#232323" stroke-linecap="round"/>
<path fill-rule="evenodd" clip-rule="evenodd" d="M362.731 565.683C375.791 565.683 386.378 555.096 386.378 542.036C386.378 528.976 375.791 518.389 362.731 518.389C349.671 518.389 339.084 528.976 339.084 542.036C339.084 555.096 349.671 565.683 362.731 565.683Z" stroke="white"/>
<path d="M424.54 623.964C422.234 623.457 382.907 621.128 368.496 628.495C316.878 653.41 318.988 586.39 318.988 586.39C360.552 605.448 395.394 617.519 424.54 623.964" fill="#232323"/>
<path d="M424.54 623.964C422.234 623.457 382.907 621.128 368.496 628.495C316.878 653.41 318.988 586.39 318.988 586.39C360.552 605.448 395.394 617.519 424.54 623.964" stroke="#232323" stroke-linecap="round"/>
<path d="M350.049 389.525C339.88 396.189 336.213 352.516 368.415 332.87C357.019 338.915 348.116 348.781 343.269 360.736C341.652 364.24 340.49 367.936 339.81 371.735C339.695 372.346 339.649 372.681 339.649 372.681C337.608 385.686 340.664 401.677 352.631 418.971C354.937 398.068 361.428 391.635 363.538 394.76C363.561 394.794 360.217 382.861 350.049 389.525V389.525Z" fill="#232323"/>
<path d="M87.0396 375.92C87.0396 375.92 102.478 377.95 102.823 366.363C103.169 354.776 109.142 342.151 112.301 346.763C115.46 351.374 115.114 391.727 92.7006 385.709C70.2874 379.691 87.0396 375.92 87.0396 375.92Z" fill="white"/>
<path d="M113.765 336.536C113.765 336.536 117.604 327.808 123.922 332.87C130.24 337.931 108.392 348.181 113.765 336.536Z" fill="white"/>
<path d="M238.986 357.589C239.585 356.274 237.579 342.958 231.607 336.594C225.635 330.229 223.536 328.027 223.536 334.564C223.536 341.102 230.915 350.383 224.943 352.055C218.971 353.726 231.607 373.741 238.986 357.589Z" fill="white"/>
<path d="M207.049 325.283C207.049 325.283 218.579 322.009 218.579 327.174C218.579 332.339 207.499 332.604 207.049 325.283Z" fill="white"/>
<path d="M170.697 367.712C166.708 371.781 161.762 373.718 156.516 368.472C143.833 355.79 135.117 336.594 135.117 336.594" stroke="white" stroke-width="1.22" stroke-linecap="round"/>
<path d="M180.024 352.078C178.632 355.633 176.915 359.053 174.894 362.293" stroke="white" stroke-width="1.22" stroke-linecap="round"/>
<path d="M386.793 370.087C386.027 371.572 385.116 372.978 384.072 374.283" stroke="white" stroke-width="1.22" stroke-linecap="round"/>
<path d="M378.18 347.673C378.18 347.673 389.468 353.865 388.557 364.23" stroke="white" stroke-width="1.22" stroke-linecap="round"/>
<path d="M421.98 353.738C421.98 353.738 426.892 351.098 427.595 358.119" stroke="white" stroke-width="1.22" stroke-linecap="round"/>
<path d="M427.365 559.134C427.365 559.134 426.431 547.605 446.55 553.37C466.669 559.134 483.513 541.909 483.04 539.096C482.568 536.283 488.205 534.185 490.304 539.096C492.402 544.008 471.142 560.149 457.549 558.281C443.956 556.413 432.449 573.788 427.365 559.134V559.134Z" fill="white"/>
<path d="M491.399 532.109C491.399 532.109 488.528 521.583 494.996 521.352C501.464 521.122 497.233 538.485 491.399 532.109Z" fill="white"/>
<path d="M476.826 662.888C476.826 662.888 503.862 667.568 500.208 675.051C496.553 682.534 462.241 663.821 476.826 662.888Z" fill="white"/>
<path d="M594.841 225.381C594.841 225.381 597.147 233.371 604.157 236.184C611.167 238.997 598.542 253.017 604.157 253.478C609.772 253.939 628.564 236.115 594.841 225.381H594.841Z" fill="white"/>
<path d="M600.41 260.972C600.41 260.972 591.601 266.887 594.841 269.55C598.081 272.213 608.377 267.106 600.41 260.972Z" fill="white"/>
<path d="M654.69 355.686C654.69 355.686 639.702 362.154 642.065 377.304C644.429 392.454 647.68 370.951 651.888 370.386C656.097 369.821 667.984 358.915 654.69 355.686V355.686Z" fill="white"/>
<path d="M662.449 350.221C662.449 350.221 670.359 355.571 667.661 358.119C664.963 360.667 678.844 348.123 662.449 350.221Z" fill="white"/>
<path d="M594.841 303.424C598.761 307.574 603.696 311.344 609.195 312.324" stroke="white" stroke-width="1.22" stroke-linecap="round"/>
<path d="M585.318 290.222C586.441 292.297 587.681 294.306 589.03 296.241" stroke="white" stroke-width="1.22" stroke-linecap="round"/>
<path d="M508.636 442.353C506.273 455.059 504.97 467.939 504.739 480.861" stroke="white" stroke-width="1.22" stroke-linecap="round"/>
<path d="M512.521 423.329C511.772 426.592 511.022 430.005 510.307 433.521" stroke="white" stroke-width="1.22" stroke-linecap="round"/>
<path d="M521.906 389.525C521.906 389.525 519.6 396.247 516.741 406.819" stroke="white" stroke-width="1.22" stroke-linecap="round"/>
<path d="M526.137 259.981C527.324 260.01 528.397 260.696 528.922 261.761C529.447 262.826 529.338 264.094 528.639 265.054C523.37 272.225 512.117 286.302 512.867 274.508C513.582 263.301 520.603 259.888 526.137 259.981V259.981Z" fill="white"/>
<path d="M503.805 288.089C504.851 287.039 506.516 286.933 507.688 287.841C508.86 288.749 509.172 290.388 508.417 291.664C505.131 296.967 500.288 304.288 500.196 301.487C500.104 298.685 500.496 291.548 503.805 288.089V288.089Z" fill="white"/>
<path opacity="0.52" d="M569.661 489.762C569.661 489.762 584.038 469.77 583.669 461.538C583.3 453.306 590.287 455.566 590.736 460.235C591.186 464.905 574.687 503.586 569.661 489.762H569.661Z" fill="white"/>
<path opacity="0.52" d="M590.252 449.536C590.252 449.536 585.883 443.54 589.929 442.215C593.976 440.889 596.743 450.689 590.252 449.536Z" fill="white"/>
<path d="M679.732 499.124V505.442" stroke="white" stroke-width="1.22" stroke-linecap="round"/>
<path d="M781.491 428.518H692.945C689.44 428.518 686.08 429.91 683.602 432.388C681.124 434.865 679.732 438.226 679.732 441.73V490.996" stroke="white" stroke-width="1.22" stroke-linecap="round"/>
<path d="M798.566 428.483H789.446" stroke="white" stroke-width="1.22" stroke-linecap="round"/>
<path d="M823.596 428.483H809.795" stroke="white" stroke-width="1.22" stroke-linecap="round"/>
<path d="M358.523 188.452H366.374" stroke="white" stroke-width="1.22" stroke-linecap="round"/>
<path d="M345.483 188.452H351.513" stroke="white" stroke-width="1.22" stroke-linecap="round"/>
<path d="M281.172 221.496V198.31C281.169 195.697 282.205 193.189 284.052 191.34C285.898 189.491 288.405 188.452 291.018 188.452H339.084" stroke="white" stroke-width="1.22" stroke-linecap="round"/>
<path d="M281.172 238.813V231.503" stroke="white" stroke-width="1.22" stroke-linecap="round"/>
<path d="M306.825 204.974C306.825 204.974 298.408 206.473 296.529 217.933C294.65 229.393 303.55 220.239 303.55 217.933C303.55 215.627 306.64 208.34 310.122 209.978C313.604 211.615 314.78 204.42 306.825 204.974V204.974Z" fill="white"/>
<path d="M299.573 231.503C299.573 231.503 302.374 238.986 306.594 236.415C310.814 233.844 298.869 224.251 299.573 231.503Z" fill="white"/>
<path d="M776.106 198.022C771.668 231.734 795.995 247.598 795.995 247.598" stroke="white" stroke-width="1.22" stroke-linecap="round"/>
<path d="M796.952 163.018C788.875 168.585 782.679 176.473 779.185 185.639" stroke="white" stroke-width="1.22" stroke-linecap="round"/>
<path d="M810.268 156.424C808.114 157.069 806.019 157.898 804.008 158.902" stroke="white" stroke-width="1.22" stroke-linecap="round"/>
<path d="M170.155 554.188C180.14 566.006 186.02 582.954 183.99 598.38C181.904 614.36 166.5 632.969 149.829 636.024C145.217 636.843 135.797 638.768 133.307 633.292C132.154 630.801 133.307 627.907 134.575 625.475C142.508 609.864 160.021 594.991 153.564 575.656C150.878 567.585 140.882 558.616 148.526 550.13C155.87 541.967 163.918 546.798 170.155 554.188Z" fill="#F2F0F0"/>
</svg>
