<svg width="1000" height="1000" viewBox="0 0 1000 1000" fill="none" xmlns="http://www.w3.org/2000/svg">
<path d="M485.194 103.468C485.194 103.468 648.519 139.832 675.961 283.605C703.404 427.378 718.377 498.41 886.365 488.254C1054.35 478.098 1035.23 844.293 695.917 896.722C356.607 949.151 391.536 735.2 226.087 745.344C60.6377 755.488 -18.4741 654.012 26.4564 523.729C71.3869 393.446 264.302 483.141 253.494 284.4C240.17 32.4355 485.194 103.468 485.194 103.468Z" fill="#FB0018"/>
<path d="M732.863 353.415C732.863 353.415 742.983 440.844 811.31 444.676C879.637 448.508 794.854 421.327 783.476 353.415C772.098 285.503 722.742 316.873 732.863 353.415Z" fill="#FB0018"/>
<path d="M452.233 798.983C454.049 783.808 459.21 757.458 466.471 726.61C284.803 729.185 144.945 745.166 144.945 764.493C144.945 783.334 277.827 798.983 452.649 802.163C452.282 801.145 452.141 800.06 452.233 798.983Z" fill="#1E1E1E"/>
<path d="M891.253 764.493C891.253 752.747 836.38 742.224 750.066 735.212C756.687 757.339 761.551 777.354 763.888 792.6C842.194 785.612 891.253 775.61 891.253 764.493Z" fill="#1E1E1E"/>
<path d="M547.256 487.008C547.256 487.008 489.571 490.888 463.375 530.396C443.561 560.271 409.012 592.993 391.726 592.59C375.792 612.344 324.49 684.598 366.585 750.73C447.797 744.407 532.034 676.625 532.034 676.625L547.256 487.008Z" fill="#54A6F7"/>
<path d="M463.375 530.396C443.561 560.271 409.012 592.993 391.726 592.59C384.429 601.63 369.741 621.669 359.977 647.071C379.79 658.307 408.621 657.168 431.78 632.679C479.427 582.244 467.373 494.673 562.965 487.008H547.256C547.256 487.008 489.571 490.888 463.375 530.396Z" fill="#298FE2"/>
<path fill-rule="evenodd" clip-rule="evenodd" d="M547.256 487.008C547.256 487.008 489.571 490.888 463.375 530.396C443.561 560.271 409.012 592.993 391.726 592.59C375.792 612.344 324.49 684.598 366.585 750.73C447.797 744.407 532.034 676.625 532.034 676.625L547.256 487.008Z" stroke="#1E1E1E" stroke-width="1.4"/>
<path d="M391.726 592.542C386.161 592.424 382.377 588.864 381.463 580.678C377.726 546.995 418.468 469.663 411.812 468.405C405.156 467.147 401.028 480.056 391.868 476.71C382.709 473.364 345.704 455.924 348.195 470.897C350.687 485.869 354.578 486.973 332.95 513.608C313.967 536.934 196.568 665.473 289.146 731.498C312.424 748.108 339.333 752.854 366.585 750.719C324.49 684.598 375.792 612.344 391.726 592.542Z" fill="white"/>
<path d="M381.463 580.678C377.725 546.995 418.468 469.663 411.812 468.405C405.156 467.147 401.027 480.056 391.868 476.71C391.642 476.639 391.393 476.532 391.132 476.437C391.049 489.251 387.573 530.195 350.366 575.268C326.234 604.513 337.054 634.068 360 647.119C369.764 621.717 384.452 601.678 391.749 592.637C386.161 592.471 382.376 588.912 381.463 580.678Z" fill="#D0D0D0"/>
<path d="M322.414 545.773C341.658 533.79 342.856 513.739 341.717 502.313C339.403 505.505 336.532 509.207 332.949 513.62C324.775 523.729 298.305 553.39 278.219 589.102C279.82 595.034 283.724 597.407 289.703 594.31C314.654 581.295 294.331 563.273 322.414 545.773Z" fill="white"/>
<path fill-rule="evenodd" clip-rule="evenodd" d="M391.726 592.542C386.161 592.424 382.377 588.864 381.463 580.678C377.726 546.995 418.468 469.663 411.812 468.405C405.156 467.147 401.028 480.056 391.868 476.71C382.709 473.364 345.704 455.924 348.195 470.897C350.687 485.869 354.578 486.973 332.95 513.608C313.967 536.934 196.568 665.473 289.146 731.498C312.424 748.108 339.333 752.854 366.585 750.719C324.49 684.598 375.792 612.344 391.726 592.542V592.542Z" stroke="#1E1E1E" stroke-width="1.4"/>
<path d="M399.948 441.793C399.948 441.793 410.27 438.234 409.629 450.371C408.988 462.508 404.587 489.678 391.334 490.651C378.081 491.624 399.948 441.793 399.948 441.793Z" fill="#171618"/>
<path opacity="0.78" d="M409.629 450.371C410.27 438.21 399.948 441.793 399.948 441.793C399.948 441.793 397.243 447.951 394.324 455.9C394.846 456.576 395.404 457.252 396.021 457.941C396.021 457.941 408.17 467.124 396.946 488.408C405.868 481.515 409.095 460.61 409.629 450.371Z" fill="#171618"/>
<path fill-rule="evenodd" clip-rule="evenodd" d="M399.948 441.793C399.948 441.793 410.27 438.234 409.629 450.371C408.988 462.508 404.587 489.678 391.334 490.651C378.081 491.624 399.948 441.793 399.948 441.793Z" stroke="#1E1E1E" stroke-width="1.4"/>
<path d="M399.77 443.217C399.77 443.217 398.322 519.695 359.111 530.551C335.761 534.668 397.658 454.82 355.551 437.854C351.98 415.763 399.77 443.217 399.77 443.217Z" fill="#171618"/>
<path opacity="0.78" d="M399.544 447.998C390.883 430.747 369.646 434.449 366.537 446.408C366.537 446.408 390.61 463.778 385.2 484.197C380.941 500.32 359.098 517.417 354.104 528.724C354.792 530.337 356.358 531.097 359.11 530.551C392.378 521.356 398.465 464.881 399.544 447.998Z" fill="#202020"/>
<path fill-rule="evenodd" clip-rule="evenodd" d="M399.77 443.217C399.77 443.217 398.322 519.695 359.111 530.551C335.761 534.668 397.658 454.82 355.551 437.854C351.98 415.763 399.77 443.217 399.77 443.217Z" stroke="#1E1E1E" stroke-width="1.4"/>
<path d="M357.758 506.276C361.092 496.298 385.615 506.063 386.043 502.527C386.47 498.991 370.026 493.617 370.026 493.617C370.026 493.617 392.687 497.176 391.026 493.617C389.365 490.058 370.678 485.063 370.678 485.063C370.678 485.063 396.02 487.352 393.517 482.369C391.014 477.386 367.32 474.468 367.32 474.468C367.32 474.468 397.681 472.178 389.566 468.227C341.124 453.052 348.195 470.932 348.195 470.932C348.895 471.205 350.271 465.107 357.627 466.768C364.983 468.429 357.758 506.276 357.758 506.276Z" fill="white"/>
<path d="M359.217 506.276C362.539 496.298 385.615 506.063 386.043 502.527C386.47 498.991 370.026 493.617 370.026 493.617C370.026 493.617 392.687 497.176 391.026 493.617C389.365 490.058 370.678 485.063 370.678 485.063C370.678 485.063 396.02 487.352 393.517 482.369C391.014 477.386 367.32 474.468 367.32 474.468C367.32 474.468 397.682 472.178 389.566 468.227C341.124 453.052 348.195 470.932 348.195 470.932" stroke="#1E1E1E" stroke-width="1.4"/>
<path d="M750.066 735.212C729.255 665.603 691.183 575.042 660.477 546.188C612.486 501.032 566.986 498.612 566.986 498.612C566.986 498.612 517.013 497.129 488.325 570.724C470.659 616.046 452.839 677.136 440.583 726.61C432.93 757.458 427.461 783.832 425.539 798.983C425.409 800.047 425.526 801.128 425.883 802.139C448.425 802.531 471.679 802.732 495.396 802.732C599.02 802.732 693.33 798.876 763.888 792.576C761.55 777.354 756.686 757.339 750.066 735.212Z" fill="#54A6F7"/>
<path d="M645.089 683.554C662.352 670.907 662.15 649.729 658.057 630.698C656.604 623.519 653.392 616.813 648.708 611.181C650.915 622.286 665.211 669.542 579.266 696.024C602.259 711.685 639.323 678.108 639.323 678.108" fill="#1E1E1E"/>
<path d="M645.089 683.554C662.352 670.907 662.15 649.729 658.057 630.698C656.604 623.519 653.392 616.813 648.708 611.181C650.915 622.286 665.211 669.542 579.266 696.024C602.259 711.685 639.323 678.108 639.323 678.108" stroke="#1E1E1E" stroke-width="1.4"/>
<path d="M746.851 724.771C727.097 661.89 694.932 585.957 667.099 553.247C661.38 568.28 692.927 668.202 663.385 684.942C639.051 698.729 450.799 707.674 442.482 753.756C434.165 799.837 617.968 731.913 651.046 738.641C704.827 749.591 664.393 787.38 684.349 798.188C713.227 796.669 739.934 794.818 763.841 792.671C760.388 775.788 754.349 751.525 746.851 724.771Z" fill="#298FE2"/>
<path d="M479.605 594.31C464.928 635.835 450.822 685.286 440.583 726.61C432.93 757.458 427.461 783.832 425.539 798.983C425.409 800.047 425.526 801.127 425.883 802.139C448.425 802.53 471.679 802.732 495.396 802.732C599.02 802.732 693.33 798.876 763.888 792.576C761.515 777.33 756.686 757.315 750.066 735.188C729.255 665.58 691.183 575.019 660.477 546.164C612.486 501.008 547.255 486.985 547.255 486.985" stroke="#1E1E1E" stroke-width="1.4"/>
<path d="M479.605 594.31C478.763 600.112 450.822 685.286 440.583 726.61C417.222 741.488 384.311 748.405 384.311 748.405C384.311 748.405 445.294 697.554 479.605 594.31Z" fill="#1E1E1E" stroke="#1E1E1E" stroke-width="1.4"/>
<path d="M603.754 484.197C603.754 484.197 827.992 485.585 820.659 678.108C818.939 722.968 795.317 757.458 744.241 769.061C730.822 727.678 666.529 691.729 639.324 678.108C656.598 665.461 662.151 649.729 658.058 630.651C648.827 587.82 593.907 591.569 593.907 591.569C582.304 566.156 542.036 520.751 603.754 484.197Z" fill="#54A6F7"/>
<path d="M558.813 564.886C603.719 563.866 618.372 518.841 628.812 486.083C608.489 482.524 610.945 484.398 605.724 484.244C583.562 501.815 564.365 530.693 558.812 564.886H558.813Z" fill="#298FE2"/>
<path d="M614.563 484.719C618.122 485.074 824.337 506.608 780.664 685.488C774.008 708.588 749.746 721.674 716.418 729.457C729.268 741.595 739.696 755.013 744.252 769.061C795.269 757.457 818.998 722.968 820.671 678.108C827.066 511.129 659.22 487.934 614.562 484.719L614.563 484.719Z" fill="#298FE2"/>
<path d="M594.69 570.463C598.107 571.068 642.445 543.424 653.763 490.046C646.075 488.527 638.957 487.4 632.633 486.569C638.446 510.132 626.368 543.174 594.69 570.463H594.69Z" fill="#298FE2"/>
<path d="M603.754 484.196C603.754 484.196 827.991 485.584 820.659 678.108C818.939 722.967 795.317 757.457 744.24 769.061C730.822 727.678 666.528 691.728 639.323 678.108C656.598 665.461 662.151 649.728 658.057 630.651C656.604 623.471 653.392 616.765 648.708 611.134" stroke="#1E1E1E" stroke-width="1.4"/>
<path d="M528.367 564.886C528.367 564.886 503.713 464.952 578.139 456.612C644.757 449.137 653.869 519.493 594.689 570.51" fill="#54A6F7"/>
<path d="M528.367 564.886C528.367 564.886 503.713 464.952 578.139 456.612C644.757 449.137 653.869 519.493 594.689 570.51" stroke="#1E1E1E" stroke-width="1.4"/>
<path d="M892.913 764.493C892.913 785.623 725.815 802.756 519.671 802.756C313.527 802.756 146.44 785.623 146.44 764.493" stroke="#1E1E1E" stroke-width="1.4"/>
<path d="M461.441 453.693C474.946 453.693 485.893 442.745 485.893 429.241C485.893 415.736 474.946 404.788 461.441 404.788C447.936 404.788 436.988 415.736 436.988 429.241C436.988 442.745 447.936 453.693 461.441 453.693Z" fill="#171618"/>
<path opacity="0.83" d="M468.227 423.937C468.227 423.937 449.398 431.578 440.191 441.319C444.798 449.472 453.66 454.277 463.007 453.688C472.353 453.1 480.542 447.222 484.09 438.554C483.164 426.749 468.227 423.937 468.227 423.937Z" fill="#171618"/>
<path fill-rule="evenodd" clip-rule="evenodd" d="M461.441 453.693C474.946 453.693 485.893 442.745 485.893 429.241C485.893 415.736 474.946 404.788 461.441 404.788C447.936 404.788 436.988 415.736 436.988 429.241C436.988 442.745 447.936 453.693 461.441 453.693Z" stroke="#1E1E1E" stroke-width="1.4"/>
<path d="M528.664 375.008C528.664 375.008 477.647 469.271 548.62 481.468C546.686 489.773 528.379 555.205 554.991 563.795C581.603 572.385 633.996 530.847 607.966 408.834C602.401 389.981 594.915 327.337 528.664 375.008Z" fill="white"/>
<path d="M607.967 408.834C607.824 408.359 607.682 407.849 607.539 407.315C595.675 381.534 576.941 363.832 552.453 361.364C544.031 364.958 536.066 369.538 528.724 375.008C528.724 375.008 527.538 377.191 525.806 380.941C524.073 384.69 569.039 370.18 581.877 397.29C584.724 411.646 588.26 419.535 594.75 412.191C601.239 404.847 614.1 449.896 602.177 504.508C593.48 544.373 555.55 538.915 542.973 549.854C545.061 556.652 548.811 561.813 555.051 563.83C581.604 572.373 633.997 530.847 607.967 408.834Z" fill="#D0D0D0"/>
<path fill-rule="evenodd" clip-rule="evenodd" d="M528.664 375.008C528.664 375.008 477.647 469.271 548.62 481.468C546.686 489.773 528.379 555.205 554.991 563.795C581.603 572.385 633.996 530.847 607.966 408.834C602.401 389.981 594.915 327.337 528.664 375.008V375.008Z" stroke="#1E1E1E" stroke-width="1.4"/>
<path d="M587.287 436.003C587.287 436.003 583.134 431.839 582.304 402.783C581.473 373.727 555.692 367.296 528.665 375.056C501.638 382.815 451.321 368.269 447.583 320.48C443.846 272.69 503.714 246.458 527.419 275.561C551.124 304.664 569.182 319.803 603.09 315.9C661.724 309.161 611.822 372.849 628.871 371.663C645.921 370.476 646.336 390.385 624.719 397.859C603.102 405.334 635.527 412.832 635.112 427.39C634.697 441.947 612.985 438.625 612.985 438.625C612.985 438.625 605.036 391.642 594.358 407.007C583.68 422.371 587.287 436.003 587.287 436.003Z" fill="#F7B90D"/>
<path d="M612.984 438.507C612.984 438.507 634.696 441.817 635.111 427.271C635.527 412.725 603.078 405.227 624.718 397.741C646.359 390.254 645.92 370.298 628.871 371.544C613.661 372.659 651.733 322.069 618.489 315.936C643.63 328.725 609.413 385.473 598.379 391.108C584.51 398.227 601.013 334.954 542.118 352.834C487.886 369.302 453.23 331.122 448.093 324.988C454.594 369.147 502.515 382.519 528.664 375.008C555.691 367.249 581.472 373.632 582.303 402.736C583.133 431.839 587.286 435.956 587.286 435.956C587.286 435.956 583.727 422.217 594.405 406.841C605.083 391.464 612.984 438.507 612.984 438.507Z" fill="#F98D0B"/>
<path fill-rule="evenodd" clip-rule="evenodd" d="M587.287 436.003C587.287 436.003 583.134 431.839 582.304 402.783C581.473 373.727 555.692 367.296 528.665 375.056C501.638 382.815 451.321 368.269 447.583 320.48C443.846 272.69 503.714 246.458 527.419 275.561C551.124 304.664 569.182 319.803 603.09 315.9C661.724 309.161 611.822 372.849 628.871 371.663C645.921 370.476 646.336 390.385 624.719 397.859C603.102 405.334 635.527 412.832 635.112 427.39C634.697 441.947 612.985 438.625 612.985 438.625C612.985 438.625 605.036 391.642 594.358 407.007C583.68 422.371 587.287 436.003 587.287 436.003V436.003Z" stroke="#1E1E1E" stroke-width="1.4"/>
<path d="M370.144 347.566C313.349 309.671 242.222 255.024 197.256 213.949C250.064 295.042 144.862 482.085 144.862 482.085C144.862 482.085 276.261 444.332 336.14 444.747C340.162 444.747 344.101 444.854 347.945 444.973C379.896 413.663 374.071 366.3 370.144 347.566Z" fill="white"/>
<path opacity="0.64" d="M144.862 482.073C144.862 482.073 276.261 444.32 336.14 444.736C340.162 444.736 344.101 444.842 347.945 444.961C354.062 438.954 359.152 431.984 363.013 424.329C305.032 428.814 246.433 433.085 254.003 397.325C269.569 323.766 231.579 243.764 231.579 243.764C224.251 244.471 217.06 246.217 210.223 248.949C225.291 339.083 144.862 482.073 144.862 482.073H144.862Z" fill="#ADAAAA"/>
<path fill-rule="evenodd" clip-rule="evenodd" d="M370.144 347.566C313.349 309.671 242.222 255.024 197.256 213.949C250.064 295.042 144.862 482.085 144.862 482.085C144.862 482.085 276.261 444.332 336.14 444.747C340.162 444.747 344.101 444.854 347.945 444.973C379.896 413.663 374.071 366.3 370.144 347.566V347.566Z" stroke="#1E1E1E" stroke-width="1.4"/>
<path d="M434.745 456.28C435.528 456.481 435.932 456.612 435.932 456.612L436.003 456.446C437.047 456.541 438.103 456.612 439.171 456.612C456.006 456.648 470.229 444.135 472.341 427.434C474.452 410.732 463.79 395.074 447.476 390.919C432.289 386.517 403.744 369.99 370.215 347.614C374.142 366.347 379.967 413.71 348.017 445.008C374.912 445.714 401.681 448.948 427.971 454.666C430.167 455.438 432.437 455.978 434.745 456.28Z" fill="#171618"/>
<path opacity="0.83" d="M469.005 437.99C463.322 416.136 413.432 420.193 363.068 424.073C359.207 431.728 354.117 438.698 348 444.705C374.895 445.411 401.665 448.644 427.954 454.363C430.164 455.154 432.45 455.711 434.776 456.024C435.559 456.226 435.963 456.356 435.963 456.356L436.034 456.19C437.078 456.285 438.134 456.356 439.202 456.356C451.809 456.359 463.341 449.253 469.005 437.99Z" fill="#1A191C"/>
<path fill-rule="evenodd" clip-rule="evenodd" d="M434.745 456.28C435.528 456.481 435.932 456.612 435.932 456.612L436.003 456.446C437.047 456.541 438.103 456.612 439.171 456.612C456.006 456.648 470.229 444.135 472.341 427.434C474.452 410.732 463.79 395.074 447.476 390.919V390.919C432.289 386.517 403.744 369.99 370.215 347.614C374.142 366.347 379.967 413.71 348.017 445.008C374.912 445.714 401.681 448.948 427.971 454.666C430.167 455.438 432.437 455.978 434.745 456.28V456.28Z" stroke="#1E1E1E" stroke-width="1.4"/>
<path d="M639.324 678.108C617.719 693.924 567.71 697.875 505.374 704.341C393.22 715.932 361.756 771.802 364.746 772.632C367.735 773.463 389.198 763.627 392.639 763.069C363.619 795.222 373.656 819.069 378.591 818.666C383.527 818.263 378.591 801.32 395.819 783.073C392.746 805.805 396.435 819.663 399.508 818.666C402.581 817.669 408.122 784.188 408.122 784.188C408.122 784.188 406.935 810.29 413.046 817.337C418.978 824.147 415.229 803.646 424.744 784.33C425.067 783.505 425.464 782.711 425.93 781.958C425.503 782.741 425.1 783.524 424.744 784.33C420.413 794.664 424.115 813.825 431.507 816.898C439.503 820.22 424.744 804.144 446.278 780.854C460.99 764.956 634.234 794.13 744.3 769.108C730.822 727.678 666.529 691.729 639.324 678.108V678.108Z" fill="white"/>
<path d="M408.063 784.141C408.063 784.141 406.876 810.242 412.986 817.29C418.919 824.1 415.169 803.598 424.685 784.283C425.008 783.458 425.405 782.664 425.871 781.91C425.444 782.693 425.041 783.476 424.685 784.283C420.354 794.617 424.056 813.778 431.447 816.851C439.444 820.173 424.685 804.097 446.219 780.807C460.93 764.908 634.174 794.083 744.241 769.061C739.685 755.013 729.256 741.595 716.407 729.458C599.768 756.746 372.042 719.052 399.449 818.619C402.534 817.622 408.063 784.141 408.063 784.141Z" fill="#D0D0D0"/>
<path fill-rule="evenodd" clip-rule="evenodd" d="M639.324 678.108C617.719 693.924 567.71 697.874 505.374 704.341C393.22 715.932 361.756 771.802 364.746 772.632C367.735 773.463 389.198 763.627 392.639 763.069C363.619 795.222 373.656 819.069 378.591 818.666C383.527 818.263 378.591 801.32 395.819 783.073C392.746 805.805 396.435 819.663 399.508 818.666C402.581 817.669 408.122 784.188 408.122 784.188C408.122 784.188 406.935 810.29 413.046 817.337C418.978 824.147 415.229 803.646 424.744 784.33C425.067 783.505 425.464 782.711 425.93 781.958C425.503 782.741 425.1 783.524 424.744 784.33C420.413 794.664 424.115 813.825 431.507 816.898C439.503 820.22 424.744 804.144 446.278 780.854C460.99 764.956 634.234 794.13 744.3 769.108C730.822 727.678 666.529 691.729 639.324 678.108V678.108Z" stroke="#1E1E1E" stroke-width="1.4"/>
<path d="M230.101 365.195C249.79 281.382 233.008 205.747 192.617 196.259C152.226 186.77 103.521 247.021 83.8324 330.834C64.1436 414.646 80.9261 490.281 121.317 499.769C161.708 509.258 210.413 449.007 230.101 365.195Z" fill="#F94432"/>
<path opacity="0.83" d="M230.101 365.195C249.79 281.382 233.008 205.747 192.617 196.259C152.226 186.77 103.521 247.021 83.8324 330.834C64.1436 414.646 80.9261 490.281 121.317 499.769C161.708 509.258 210.413 449.007 230.101 365.195Z" fill="black"/>
<path d="M183.814 199.427C176.825 197.88 169.541 198.341 162.802 200.756C130.638 216.868 98.8292 267.018 83.8326 330.825C76.441 362.183 74.2105 392.39 76.441 418.408C81.4716 453.325 95.78 478.241 117.195 483.271C154.972 492.146 200.519 435.813 218.933 357.425C237.346 279.037 221.59 208.302 183.814 199.427Z" fill="#171618"/>
<path fill-rule="evenodd" clip-rule="evenodd" d="M230.101 365.195C249.79 281.382 233.008 205.747 192.617 196.259C152.226 186.77 103.521 247.021 83.8324 330.834C64.1436 414.646 80.9261 490.281 121.317 499.769C161.708 509.258 210.413 449.007 230.101 365.195Z" stroke="#1E1E1E" stroke-width="1.4"/>
<path d="M204.324 359.135C220.566 289.994 209.626 228.282 179.887 221.296C150.149 214.309 112.874 264.696 96.6319 333.837C80.3896 402.977 91.3304 464.69 121.069 471.676C150.807 478.662 188.082 428.276 204.324 359.135Z" fill="white" stroke="#1E1E1E" stroke-width="1.4"/>
<path d="M204.968 249.768C182.544 266.235 160.524 305.732 149.027 354.661C138.883 397.859 139.346 438.162 148.374 464.027C170.798 447.559 192.819 408.051 204.315 359.134C214.459 315.935 213.997 275.632 204.968 249.768Z" fill="#1E1E1E"/>
<path d="M211.694 305.424C173.349 313.824 125.594 304.83 125.594 304.83L116.103 335.037L108.593 366.24C108.593 366.24 157.071 388.012 182.532 419.761C192.192 400.496 199.506 380.142 204.315 359.134C208.517 341.513 210.989 323.524 211.694 305.424Z" fill="#D8D8D8" stroke="#1E1E1E" stroke-width="1.4"/>
<path d="M131.311 339.229C135.342 322.07 132.626 306.754 125.246 305.021C117.866 303.287 108.615 315.792 104.584 332.951C100.553 350.11 103.268 365.426 110.648 367.16C118.029 368.893 127.28 356.389 131.311 339.229Z" fill="#F94432"/>
<path opacity="0.83" d="M131.314 339.214C135.336 322.058 132.619 306.741 125.239 305.008C124.149 304.778 123.018 304.827 121.953 305.151C124.325 312.08 129.973 333.625 115.89 344.244C110.821 348.1 106.752 353.117 104.025 358.873C105.33 363.381 107.585 366.431 110.61 367.178C118.025 368.886 127.28 356.441 131.314 339.214Z" fill="#DB281F"/>
<path fill-rule="evenodd" clip-rule="evenodd" d="M131.312 339.229C135.343 322.07 132.627 306.754 125.247 305.021C117.867 303.287 108.616 315.792 104.585 332.951C100.554 350.11 103.269 365.426 110.649 367.16C118.03 368.893 127.281 356.389 131.312 339.229Z" stroke="#1E1E1E"/>
<path d="M530.967 391.108C530.967 391.108 514.962 423.142 519.328 424.222C523.694 425.302 529.923 424.222 529.923 424.222" fill="white"/>
<path d="M530.967 391.108C530.967 391.108 514.962 423.142 519.328 424.222C523.694 425.302 529.923 424.222 529.923 424.222" stroke="#1E1E1E" stroke-linecap="round"/>
<path d="M548.645 481.468C548.645 481.468 576.087 486.32 585.424 469.544L548.645 481.468Z" fill="white"/>
<path d="M548.645 481.468C548.645 481.468 576.087 486.32 585.424 469.544" stroke="#1E1E1E" stroke-linecap="round"/>
<path d="M548.645 481.468C548.645 481.468 576.087 486.32 585.424 469.544C585.424 487.839 565.634 513.739 542.19 513.264C546.023 492.252 548.645 481.468 548.645 481.468Z" fill="#1E1E1E" stroke="#1E1E1E" stroke-linecap="round"/>
<path d="M553.319 399.603C560.868 399.603 566.987 397.298 566.987 394.454C566.987 391.61 560.868 389.305 553.319 389.305C545.771 389.305 539.651 391.61 539.651 394.454C539.651 397.298 545.771 399.603 553.319 399.603Z" fill="white" stroke="#161515"/>
<path d="M548.43 389.661C543.305 390.396 539.639 392.259 539.639 394.407C539.639 396.554 543.305 398.452 548.43 399.152C551.278 398.405 553.318 396.542 553.318 394.407C553.318 392.271 551.278 390.396 548.43 389.661Z" fill="#161515"/>
<path d="M506.751 399.603C514.299 399.603 520.419 397.298 520.419 394.454C520.419 391.61 514.299 389.305 506.751 389.305C499.202 389.305 493.083 391.61 493.083 394.454C493.083 397.298 499.202 399.603 506.751 399.603Z" fill="white" stroke="#161515" stroke-width="1.4"/>
<path d="M501.863 389.661C496.737 390.396 493.083 392.259 493.083 394.407C493.083 396.554 496.737 398.452 501.863 399.152C504.722 398.405 506.751 396.542 506.751 394.407C506.751 392.271 504.746 390.396 501.863 389.661Z" fill="#161515"/>
<path opacity="0.51" d="M173.444 309.054C183.413 338.704 176.94 371.416 156.431 395.035C166.085 402.208 174.848 410.508 182.532 419.761C192.193 400.496 199.506 380.142 204.315 359.134C208.518 341.513 210.989 323.525 211.695 305.424C199.11 307.991 186.287 309.208 173.444 309.054Z" fill="#1E1E1E"/>
<path d="M440.584 876.208C490.475 876.208 530.919 867.274 530.919 856.252C530.919 845.231 490.475 836.296 440.584 836.296C390.693 836.296 350.248 845.231 350.248 856.252C350.248 867.274 390.693 876.208 440.584 876.208Z" fill="#1E1E1E"/>
<path d="M528.368 459.139C532.968 459.139 536.697 453.976 536.697 447.607C536.697 441.238 532.968 436.074 528.368 436.074C523.768 436.074 520.039 441.238 520.039 447.607C520.039 453.976 523.768 459.139 528.368 459.139Z" fill="#1E1E1E" stroke="#1E1E1E" stroke-width="1.4" stroke-linecap="round"/>
<path d="M558.811 564.886L542.118 658.876L558.811 564.886Z" fill="white"/>
<path d="M558.811 564.886L542.118 658.876" stroke="#1E1E1E" stroke-width="1.4"/>
<path d="M554.849 594.465C558.951 594.465 562.276 591.139 562.276 587.037C562.276 582.936 558.951 579.61 554.849 579.61C550.747 579.61 547.422 582.936 547.422 587.037C547.422 591.139 550.747 594.465 554.849 594.465Z" fill="white" stroke="#1E1E1E" stroke-width="1.4"/>
<path d="M550.661 618.858C554.762 618.858 558.088 615.532 558.088 611.431C558.088 607.329 554.762 604.003 550.661 604.003C546.559 604.003 543.233 607.329 543.233 611.431C543.233 615.532 546.559 618.858 550.661 618.858Z" fill="white" stroke="#1E1E1E" stroke-width="1.4"/>
<path d="M546.485 644.876C550.587 644.876 553.912 641.551 553.912 637.449C553.912 633.347 550.587 630.022 546.485 630.022C542.383 630.022 539.058 633.347 539.058 637.449C539.058 641.551 542.383 644.876 546.485 644.876Z" fill="white" stroke="#1E1E1E" stroke-width="1.4"/>
<path d="M673.778 661.048C673.778 661.048 692.915 617.292 658.817 597.751C628.04 578.625 665.045 559.5 690.412 577.38C715.778 595.259 678.773 666.042 697.53 666.042C716.288 666.042 662.969 704.293 673.778 661.048Z" fill="white"/>
<path d="M713.702 630.01C713.702 630.01 701.22 651.046 713.702 653.929C726.183 656.812 722.849 622.773 713.702 630.01Z" fill="white"/>
<path d="M657.559 559.915C657.559 559.915 665.626 557.008 672.401 559.915C679.176 562.822 665.389 543.115 657.559 559.915Z" fill="white"/>
<path d="M471.371 719.337C465.629 720.702 460.302 722.22 455.366 723.81" stroke="white" stroke-width="1.4" stroke-linecap="round"/>
<path d="M642.598 692.203C642.598 692.203 602.259 709.253 497.473 714.663" stroke="white" stroke-width="1.4" stroke-linecap="round"/>
<path d="M400.267 746.91C400.267 746.91 420.662 729.422 426.369 733.373C432.076 737.323 409.949 742.105 413.318 747.93C416.688 753.756 389.661 758.146 400.267 746.91Z" fill="white"/>
<path d="M318.534 562.134C318.534 562.134 306.895 570.724 312.993 582.647C319.091 594.571 318.534 570.166 323.529 567.947C328.524 565.729 324.763 553.995 318.534 562.134Z" fill="white"/>
<path d="M284.709 712.135C287.135 714.032 289.738 715.693 292.48 717.095" stroke="white" stroke-width="1.4" stroke-linecap="round"/>
<path d="M271.967 621.729C271.967 621.729 252.782 676.305 278.219 705.966" stroke="white" stroke-width="1.4" stroke-linecap="round"/>
<path d="M361.851 465.985C361.851 465.985 349.856 465.379 351.801 469.544" stroke="white" stroke-width="1.4" stroke-linecap="round"/>
<path d="M497.473 587.037C497.473 587.037 482.049 616.046 489.986 632.679C497.923 649.313 498.718 598.166 504.959 589.434C511.2 580.701 502.966 574.129 497.473 587.037Z" fill="white"/>
<path d="M484.043 644.876C488.135 649.075 488.895 655.5 485.894 660.537C480.839 669.661 476.022 646.264 484.043 644.876Z" fill="white"/>
<path d="M532.034 543.602C532.607 546.876 533.433 550.1 534.502 553.247" stroke="white" stroke-width="1.4" stroke-linecap="round"/>
<path d="M536.697 490.663C536.697 490.663 529.804 510.998 530.848 533.03" stroke="white" stroke-width="1.4" stroke-linecap="round"/>
<path d="M457.976 311.261C457.976 311.261 457.561 285.48 491.196 277.163C524.084 279.654 459.661 295.932 476.271 305.851C492.881 315.769 460.052 339.949 457.976 311.261Z" fill="white"/>
<path d="M501.97 292.539C501.97 292.539 510.82 280.9 523.029 294.627C535.237 308.354 480.768 297.534 501.97 292.539Z" fill="white"/>
<path d="M546.271 312.851C556.238 319.4 571.602 326.364 590.597 324.846C625.004 322.081 617.624 344.517 617.624 344.517" stroke="white" stroke-width="1.4" stroke-linecap="round"/>
<path d="M533.719 302.529C535.569 304.474 537.551 306.289 539.651 307.963" stroke="white" stroke-width="1.4" stroke-linecap="round"/>
<path d="M423.665 392.342C423.665 392.342 426.37 402.736 430.32 397.954C434.271 393.173 422.419 386.102 423.665 392.342Z" fill="white"/>
<path d="M448.093 399.212C448.093 399.212 463.374 400.659 465.047 419.986" stroke="white" stroke-width="1.4" stroke-linecap="round"/>
<path d="M379.766 376.373C379.766 376.373 379.635 356.963 389.744 366.525C399.852 376.088 404.444 387.039 413.176 384.69C421.908 382.34 420.378 393.695 414.564 394.525C408.75 395.356 388.367 374.012 386.766 382.744C385.164 391.476 380.169 383.729 379.766 376.373Z" fill="white"/>
<path d="M305.044 314.144C328.547 330.173 355.693 350.485 359.976 361.364C364.58 373.075 363.417 389.258 359.359 402.083" stroke="#1E1E1E"/>
<path d="M286.155 301.615C288.979 303.43 292.087 305.436 295.267 307.547" stroke="#1E1E1E"/>
<path d="M269.189 290.878C269.189 290.878 272.559 292.942 277.993 296.383" stroke="#1E1E1E"/>
<path d="M218.018 344.576C217.409 348.586 216.725 352.711 215.966 356.951" stroke="white"/>
<path d="M198.3 219.608C212.846 232.564 227.961 261.003 220.095 329.129" stroke="white"/>
<path d="M174.796 208.135C178.698 208.667 182.491 209.816 186.031 211.541" stroke="white"/>
<path d="M118.618 312.637C118.618 312.637 106.006 328.998 108.593 334.539C111.179 340.08 115.011 324.561 117.942 325.676C120.872 326.792 124.384 307.927 118.618 312.637Z" fill="white"/>
<path d="M144.862 316.802C144.862 316.802 200.447 315.686 200.447 320.361C200.447 325.036 169.54 322.022 172.649 327.005C175.757 331.988 135.561 325.285 144.862 316.802Z" fill="white"/>
<path d="M836.249 691.515C835.502 698.859 834.446 706.559 833.034 714.615" stroke="#1E1E1E" stroke-width="1.4" stroke-linecap="round"/>
<path d="M788.958 548.43C788.958 548.43 839.121 576.549 837.602 668.32" stroke="#1E1E1E" stroke-width="1.4" stroke-linecap="round"/>
<path d="M506.751 470.315L478.763 488.408" stroke="#1E1E1E" stroke-width="1.4" stroke-linecap="round"/>
<path d="M504.271 461.179L461.477 465.985" stroke="#1E1E1E" stroke-width="1.4" stroke-linecap="round"/>
<path d="M492.763 444.866L504.271 450.419" stroke="#1E1E1E" stroke-width="1.4" stroke-linecap="round"/>
<path d="M244.239 621.729C244.239 621.729 224.948 690.044 254.004 723.762" stroke="#1E1E1E" stroke-width="1.4" stroke-linecap="round"/>
<path d="M71.0546 461.179C69.7021 455.791 68.6681 450.328 67.958 444.818" stroke="#1E1E1E" stroke-width="1.4" stroke-linecap="round"/>
<path d="M162.007 509.124C162.007 509.124 128.952 529.661 101.225 512.457C89.9065 505.434 82.2421 492.881 77.2354 480.424" stroke="#1E1E1E" stroke-width="1.4" stroke-linecap="round"/>
<path d="M174.797 183.22C174.797 183.22 211.577 176.564 228.721 213.985" stroke="#1E1E1E" stroke-width="1.4" stroke-linecap="round"/>
<path d="M67.9572 320.123L10.8301 305.471" stroke="#1E1E1E" stroke-width="1.4" stroke-linecap="round"/>
<path d="M52.415 280.757L78.4693 307.583" stroke="#1E1E1E" stroke-width="1.4" stroke-linecap="round"/>
<path d="M71.2675 341.349L31.3438 348.005" stroke="#1E1E1E" stroke-width="1.4" stroke-linecap="round"/>
<path d="M86.2285 519.315C93.9914 528.718 105.798 533.82 117.966 533.03" stroke="#1E1E1E" stroke-width="1.4" stroke-linecap="round"/>
</svg>
