<svg width="1000" height="1000" viewBox="0 0 1000 1000" fill="none" xmlns="http://www.w3.org/2000/svg">
<path d="M506.326 426.511C506.326 426.511 607.673 431.515 632.703 373.957C657.732 316.399 795.392 257.588 861.749 355.185C928.106 452.783 766.613 581.667 856.699 660.492C946.786 739.318 996.844 886.962 730.323 934.501C463.802 982.04 226.083 790.618 174.76 604.177C123.436 417.735 198.558 308.888 292.383 297.628C386.207 286.367 378.731 425.235 506.326 426.511Z" fill="#F2F0F0"/>
<path d="M381.813 905.653C381.813 905.653 414.883 916.005 414.342 951.18C413.801 986.354 201.848 945.221 121.032 765.796C40.2166 586.371 142.219 612.378 162.82 647.621C183.421 682.864 255.575 842.77 381.813 905.653Z" fill="#F2F0F0"/>
<path d="M540.12 948.488C714.073 948.488 855.089 933.281 855.089 914.522C855.089 895.762 714.073 880.555 540.12 880.555C366.168 880.555 225.151 895.762 225.151 914.522C225.151 933.281 366.168 948.488 540.12 948.488Z" fill="#1C1C1C" stroke="#1C1C1C" stroke-width="1.5"/>
<path d="M658.699 988.562C698.904 988.562 731.497 985.045 731.497 980.706C731.497 976.367 698.904 972.85 658.699 972.85C618.493 972.85 585.9 976.367 585.9 980.706C585.9 985.045 618.493 988.562 658.699 988.562Z" fill="#1C1C1C" stroke="#1C1C1C" stroke-width="1.5"/>
<path d="M450.023 759.39C450.023 759.39 437.463 755.939 418.001 751.936C410.904 765.21 393.478 777.241 363.261 784.856C262.339 810.299 276.177 897.383 276.2 897.579C415.459 941.989 707.618 881.809 748.751 916.155C801.408 960.186 582.979 727.436 450.023 759.39Z" fill="#F985C4"/>
<path opacity="0.53" d="M628.678 843.989C560.101 779.668 431.47 838.065 431.47 838.065C431.47 838.065 342.557 885.915 277.89 864.521C275.489 875.345 274.917 886.496 276.2 897.51C366.044 926.196 519.601 911.312 628.275 906.378C654.477 892.771 660.62 873.953 628.678 843.989Z" fill="#F743AE"/>
<path fill-rule="evenodd" clip-rule="evenodd" d="M450.023 759.389C450.023 759.389 437.463 755.939 418.001 751.936C410.904 765.21 393.478 777.241 363.261 784.856C262.339 810.299 276.177 897.383 276.2 897.579C415.459 941.989 707.618 881.809 748.751 916.155C801.408 960.186 582.979 727.436 450.023 759.389Z" stroke="#1C1C1C" stroke-width="1.5"/>
<path fill-rule="evenodd" clip-rule="evenodd" d="M450.023 759.389C450.023 759.389 437.463 755.939 418.001 751.936C410.904 765.21 393.478 777.241 363.261 784.856C262.339 810.299 276.177 897.383 276.2 897.579C415.459 941.989 707.618 881.809 748.751 916.155C801.408 960.186 582.979 727.436 450.023 759.389Z" stroke="#1C1C1C" stroke-width="1.5"/>
<path fill-rule="evenodd" clip-rule="evenodd" d="M450.023 759.389C450.023 759.389 437.463 755.939 418.001 751.936C410.904 765.21 393.478 777.241 363.261 784.856C262.339 810.299 276.177 897.383 276.2 897.579C415.459 941.989 707.618 881.809 748.751 916.155C801.408 960.186 582.979 727.436 450.023 759.389Z" stroke="#1C1C1C" stroke-width="1.5"/>
<path d="M363.26 784.856C393.477 777.206 410.857 765.209 418 751.901C346.939 737.362 183.904 715.864 203.976 830.508C209.854 864.118 236.953 884.96 276.199 897.498C276.176 897.383 262.339 810.299 363.26 784.856Z" fill="#CC178B"/>
<path opacity="0.55" d="M276.2 897.533C274.917 886.519 275.489 875.369 277.89 864.544C270.695 862.199 263.839 858.919 257.497 854.79C193.199 812.496 210.452 773.756 233.963 756.433C210.648 769.765 197.362 792.758 203.976 830.543C209.854 864.153 236.954 884.995 276.2 897.533Z" fill="#960671"/>
<path fill-rule="evenodd" clip-rule="evenodd" d="M363.26 784.856C393.477 777.206 410.857 765.209 418 751.901C346.939 737.362 183.904 715.864 203.976 830.508C209.854 864.118 236.953 884.96 276.199 897.498C276.176 897.383 262.339 810.299 363.26 784.856V784.856Z" stroke="#1C1C1C" stroke-width="1.5"/>
<path d="M584.854 497.343C598.116 501.53 620.016 505.993 619.821 489.728C619.533 466.424 574.444 441.096 486.198 489.728C397.952 538.36 390.728 456.659 457.511 433.194C524.294 409.729 635.935 474.764 669.315 404.266C682.267 372.059 644.861 331.168 574.352 342.958C570.326 342.958 542.939 350.734 538.326 319.655" stroke="#1C1C1C" stroke-width="1.5" stroke-linecap="round"/>
<path d="M574.973 493.766C574.973 493.766 576.882 494.571 579.907 495.664" stroke="#1C1C1C" stroke-width="1.5" stroke-linecap="round"/>
<path d="M691.515 786.696C651.452 784.488 634.578 750.487 628.723 734.05C604.81 735.902 589.075 738.651 589.075 738.651C554.108 770.167 466.483 758.941 401.724 762.806C336.966 766.67 274.382 842.724 318.735 817.235C363.088 791.746 390.935 803.869 397.411 809.908C519.163 919.882 661.965 942.518 756.169 921.734C841.597 857.424 744.425 789.606 691.515 786.696Z" fill="#F985C4"/>
<path fill-rule="evenodd" clip-rule="evenodd" d="M691.515 786.696C651.452 784.488 634.578 750.487 628.723 734.05C604.81 735.902 589.075 738.651 589.075 738.651C554.108 770.167 466.483 758.941 401.724 762.806C336.966 766.67 274.382 842.724 318.735 817.235C363.088 791.746 390.935 803.869 397.411 809.908C519.163 919.882 661.965 942.518 756.169 921.734C841.597 857.424 744.425 789.606 691.515 786.696V786.696Z" stroke="#1C1C1C" stroke-width="1.5"/>
<path d="M853.697 812.047C818.385 730.702 693.516 729.035 628.734 734.05C634.589 750.486 651.463 784.487 691.526 786.696C744.436 789.606 841.654 857.424 756.18 921.71C830.9 905.216 875.034 861.335 853.697 812.047Z" fill="#CC178B"/>
<path opacity="0.55" d="M825.655 774.515C825.655 774.653 858.701 852.283 788.077 880.728C784.269 894.105 774.366 907.988 756.123 921.711C830.888 905.216 875.034 861.335 853.64 812.047C847.319 797.553 837.742 784.71 825.655 774.515Z" fill="#960671"/>
<path fill-rule="evenodd" clip-rule="evenodd" d="M853.697 812.047C818.385 730.702 693.516 729.035 628.734 734.05C634.589 750.486 651.463 784.487 691.526 786.696C744.436 789.606 841.654 857.424 756.18 921.71C830.9 905.216 875.034 861.335 853.697 812.047Z" stroke="#1C1C1C" stroke-width="1.5"/>
<path d="M557.949 524.155C557.949 524.155 647.737 577.25 673.64 668.762C699.543 760.275 639.133 787.961 639.133 787.961C639.133 787.961 380.56 781.439 355.957 749.923C331.353 718.407 442.673 524.983 518.002 513.803C552.336 512.031 557.949 524.155 557.949 524.155Z" fill="white" stroke="#1C1C1C" stroke-width="1.5"/>
<path d="M618.383 604.844C640.18 639.213 645.689 693.93 645.988 697.07C727.425 684.808 777.034 736.304 777.115 736.362C780.163 723.905 779.139 708.756 772.94 690.352C717.671 526.283 559.675 513.803 559.675 513.803C556.224 515.528 543.468 536.681 543.468 536.681" fill="white"/>
<path opacity="0.25" d="M536.509 562.366C536.509 562.366 558.731 560.813 563.09 540.96C567.45 521.107 574.593 530.884 574.202 535.922C573.811 540.96 576.008 525.202 574.386 515.954C573.339 514.631 563.09 514.136 563.09 514.136C563.09 514.136 521.279 553.843 536.509 562.366Z" fill="#FFCC71"/>
<path opacity="0.25" d="M574.386 515.954C574.892 520.083 580.759 573.684 541.329 577.008C541.329 577.008 536.797 576.502 539.534 584.266C542.272 592.03 585.866 571.614 588.592 543.548C591.318 515.482 658.963 554.073 653.775 585.934C648.588 617.796 752.201 642.399 750.901 704.558C750.82 708.297 749.74 711.947 747.773 715.129C766.717 725.619 777.069 736.339 777.092 736.362C780.14 723.905 779.117 708.756 772.917 690.352C727.943 556.776 614.875 523.66 574.386 515.954Z" fill="#FFCC71"/>
<path d="M618.383 604.844C640.18 639.213 645.689 693.93 645.988 697.07C727.425 684.808 777.034 736.304 777.115 736.362C780.163 723.905 779.139 708.756 772.94 690.352C717.671 526.283 559.675 513.803 559.675 513.803C556.224 515.528 543.468 536.681 543.468 536.681" stroke="#1C1C1C" stroke-width="1.5" stroke-linecap="round"/>
<path opacity="0.25" d="M645.989 697.07C645.69 693.929 640.18 639.213 618.383 604.844C619.177 606.132 633.06 666.381 590.536 695.183C548.012 723.985 640.157 712.437 645.989 697.07Z" fill="#FFCC71"/>
<path d="M473.338 762.84C473.338 762.84 753.006 834.96 777.092 736.385C777.092 736.385 727.425 684.831 645.965 697.093V697.242L473.338 762.84Z" fill="#F985C4"/>
<path opacity="0.53" d="M747.773 715.094C723.204 755.548 560.491 752.016 495.561 768.005C562.217 782.613 757.158 817.925 777.092 736.339C777.069 736.339 766.717 725.618 747.773 715.094Z" fill="#F743AE"/>
<path fill-rule="evenodd" clip-rule="evenodd" d="M473.338 762.84C473.338 762.84 753.006 834.96 777.092 736.385C777.092 736.385 727.425 684.831 645.965 697.093V697.242L473.338 762.84Z" stroke="#1C1C1C" stroke-width="1.5"/>
<path d="M538.326 577.146V694.309" stroke="#1C1C1C" stroke-width="1.5" stroke-linecap="round"/>
<path d="M561.181 485.703C561.181 485.703 572.879 556.5 538.326 562.113C503.773 567.726 521.901 478.801 521.901 478.801L561.181 485.703Z" fill="#F985C4"/>
<path d="M517.15 508.581C522.545 512.607 540.397 524.339 563.091 514.136C563.457 504.618 562.817 495.087 561.181 485.703L548.264 483.402C545.504 483.775 542.855 484.728 540.489 486.197C531.114 492.086 523.235 495.192 518.933 497.792C518.646 500.127 517.392 505.958 517.15 508.581H517.15Z" fill="#1C1C1C"/>
<path fill-rule="evenodd" clip-rule="evenodd" d="M561.181 485.703C561.181 485.703 572.879 556.5 538.326 562.113C503.773 567.726 521.901 478.801 521.901 478.801L561.181 485.703Z" stroke="#1C1C1C" stroke-width="1.5"/>
<path d="M496.849 414.883C496.849 414.883 500.219 425.465 490.143 430.066C480.067 434.667 491.581 451.794 498.781 452.219C505.982 452.645 493.893 466.643 506.982 465.493C520.072 464.343 539.649 416.861 523.247 405.209C506.844 393.557 487.923 408.602 496.849 414.883Z" fill="#F22F2F" stroke="#1C1C1C" stroke-width="1.5"/>
<path d="M515.068 416.343C515.068 416.343 479.089 506.901 535.209 510.122C563.412 510.122 582.69 473.579 567.726 420.07C552.761 366.561 515.068 416.343 515.068 416.343Z" fill="#F985C4"/>
<path opacity="0.53" d="M567.727 420.07C565.484 412.019 562.723 406.348 559.675 402.449C554.099 398.949 547.811 396.741 541.271 395.984C527.71 399.631 515.046 416.344 515.046 416.344C515.046 416.344 513.896 419.357 512.239 424.28C520.084 426.305 530.102 427.351 538.626 423.325C555.546 415.343 548.587 448.999 560.733 454.071C572.88 459.144 570.809 487.198 548.426 507.155L548.667 507.04C549.978 506.349 551.278 505.602 552.566 504.797C570.349 492.834 579.321 461.548 567.727 420.07Z" fill="#F743AE"/>
<path fill-rule="evenodd" clip-rule="evenodd" d="M515.068 416.343C515.068 416.343 479.089 506.901 535.209 510.122C563.412 510.122 582.69 473.579 567.726 420.07C552.761 366.561 515.068 416.343 515.068 416.343V416.343Z" stroke="#1C1C1C" stroke-width="1.5"/>
<path d="M514.494 512.653C444.421 513.803 355.922 581.46 324.843 650.807C295.742 715.738 319.828 753.914 355.336 762.829C353.886 728.31 415.562 619.935 514.494 512.653Z" fill="white"/>
<path opacity="0.25" d="M355.255 718.05C290.301 711.747 341.751 621.58 344.017 617.681C336.566 628.058 330.144 639.138 324.843 650.761C295.742 715.692 319.828 753.868 355.336 762.783C354.933 753.109 359.488 737.627 368.448 717.924C364.067 718.427 359.645 718.469 355.255 718.05Z" fill="#FFCC71"/>
<path fill-rule="evenodd" clip-rule="evenodd" d="M514.494 512.653C444.421 513.803 355.922 581.46 324.843 650.807C295.742 715.738 319.828 753.914 355.336 762.829C353.886 728.31 415.562 619.935 514.494 512.653Z" stroke="#1C1C1C" stroke-width="1.5"/>
<path d="M574.352 515.678C574.352 515.678 582.334 573.546 541.329 577.008C500.323 580.47 506.143 525.846 506.143 525.846" stroke="#1C1C1C" stroke-width="1.5"/>
<path d="M515.528 531.056C515.017 531.271 514.537 531.553 514.102 531.896C467.92 560.307 490.326 641.905 445.26 720.178C424.199 756.744 385.598 770.42 355.312 762.829C353.863 728.322 370.265 636.752 469.185 529.423C478.767 519.071 488.739 511.019 500.126 500.426C511.928 488.463 498.976 512.457 503.738 509.869C508.5 507.281 519.692 502.876 525.593 503.451C531.493 504.026 514.516 512.653 514.516 512.653C514.516 512.653 531.286 504.601 532.241 507.695C532.816 509.582 524.833 514.171 520.417 516.08C517.46 517.369 514.941 518.266 514.941 518.266C515.517 518.128 530.263 515.091 530.527 517.748C530.792 520.405 515.632 524.454 515.632 524.454C515.632 524.454 537.175 520.98 515.528 531.056Z" fill="#F985C4"/>
<path opacity="0.53" d="M515.609 524.408C515.609 524.408 530.769 520.371 530.505 517.702C530.473 517.502 530.361 517.323 530.194 517.208C519.842 519.197 488.671 528.917 468.737 575.202C445.192 629.85 422.831 719.603 360.385 718.338C356.037 737.431 354.91 752.603 355.336 762.783C385.621 770.374 424.223 756.698 445.284 720.132C490.35 641.916 467.944 560.249 514.125 531.85C514.556 531.525 515.028 531.258 515.529 531.056C537.176 520.98 515.609 524.408 515.609 524.408Z" fill="#F743AE"/>
<path fill-rule="evenodd" clip-rule="evenodd" d="M515.528 531.056C515.017 531.271 514.537 531.553 514.102 531.896C467.92 560.307 490.326 641.905 445.26 720.178C424.199 756.744 385.598 770.42 355.312 762.829C353.863 728.322 370.265 636.752 469.185 529.423C478.767 519.071 488.739 511.019 500.126 500.426C511.928 488.463 498.976 512.457 503.738 509.869C508.5 507.281 519.692 502.876 525.593 503.451C531.493 504.026 514.516 512.653 514.516 512.653C514.516 512.653 531.286 504.601 532.241 507.695C532.816 509.582 524.833 514.171 520.417 516.08C517.46 517.369 514.941 518.266 514.941 518.266C515.517 518.128 530.263 515.091 530.527 517.748C530.792 520.405 515.632 524.454 515.632 524.454C515.632 524.454 537.175 520.98 515.528 531.056V531.056Z" stroke="#1C1C1C" stroke-width="1.5"/>
<path d="M636.947 774.906C636.947 774.906 673.203 714.473 664.553 664.391C643.412 663.529 431.458 664.391 431.458 664.391C431.458 664.391 433.609 735.188 465.562 771.018C507.868 779.668 636.947 774.906 636.947 774.906Z" fill="#FFCC71"/>
<path opacity="0.74" d="M664.565 664.414C657.663 664.138 630.207 664.035 596.459 664.035C617.463 668.072 648.979 677.136 649.175 695.183C649.462 722.26 610.607 708.871 613.632 735.441C616.658 762.012 478.296 744.137 465.172 768.603C464.938 769.043 464.76 769.51 464.643 769.995C464.953 770.351 465.252 770.708 465.574 771.064C480.688 774.147 506.879 775.527 534.301 776.022C578.527 772.939 628.873 767.798 636.971 774.872C637.523 773.951 673.111 714.105 664.565 664.414Z" fill="#F9A45F"/>
<path fill-rule="evenodd" clip-rule="evenodd" d="M636.947 774.906C636.947 774.906 673.203 714.473 664.553 664.391C643.412 663.529 431.458 664.391 431.458 664.391C431.458 664.391 433.609 735.188 465.562 771.018C507.868 779.668 636.947 774.906 636.947 774.906V774.906Z" stroke="#1C1C1C" stroke-width="1.5"/>
<path d="M536.9 327.706C542.205 327.706 546.505 323.406 546.505 318.102C546.505 312.797 542.205 308.497 536.9 308.497C531.596 308.497 527.296 312.797 527.296 318.102C527.296 323.406 531.596 327.706 536.9 327.706Z" fill="#1C1C1C" stroke="#1C1C1C" stroke-width="1.5"/>
<rect x="459.098" y="767.809" width="186.488" height="19.83" rx="8.62" fill="#FFCC71"/>
<path opacity="0.74" d="M464.643 786.615C465.999 787.284 467.49 787.634 469.002 787.639H635.659C641.135 787.639 645.575 783.2 645.575 777.724C645.575 772.248 641.135 767.809 635.659 767.809H595.148C607.341 769.764 629.276 768.775 624.744 778.805C621.408 786.19 470.072 773.572 464.643 786.615H464.643Z" fill="#F9A45F"/>
<rect x="459.098" y="767.809" width="186.488" height="19.83" rx="8.62" stroke="#1C1C1C" stroke-width="1.5"/>
<path d="M572.925 454.761C570.901 425.269 560.537 424.694 561.423 431.883C562.308 439.072 566.886 456.038 561.423 450.885C557.512 447.17 553.003 429.145 550.76 419.207C550.425 417.735 549.423 416.502 548.049 415.875C546.675 415.248 545.087 415.298 543.755 416.01C532.621 421.91 506.43 431.515 479.4 410.592C443.742 382.987 479.975 334.907 506.165 348.721C532.356 362.535 531.781 392.177 551.025 373.474C570.268 354.771 591.283 350.734 599.334 371.45C607.386 392.165 571.418 418.368 590.133 422.06C591.03 422.198 602.578 423.268 599.334 433.148C596.091 443.029 583.139 448.423 590.696 453.174C598.253 457.924 577.066 471.52 572.879 464.285C572.845 459.466 572.925 454.761 572.925 454.761Z" fill="#FC5151"/>
<path d="M599.392 371.45C594.412 358.671 584.508 355.347 573.121 359.016C581.966 359.223 592.79 361.868 592.917 373.474C593.124 393.109 566.369 392.028 571.545 408.648C576.721 425.269 562.263 426.995 559.675 417.931C557.087 408.867 544.998 404.266 533.346 412.283C521.694 420.3 507.293 423.049 488.613 416.62C512.205 429.341 533.875 421.22 543.733 416.01C545.064 415.298 546.652 415.248 548.026 415.875C549.4 416.503 550.403 417.735 550.737 419.208C552.98 429.146 557.489 447.17 561.4 450.885C566.864 456.061 562.263 439.084 561.4 431.883C560.537 424.683 570.901 425.269 572.902 454.761C572.902 454.761 572.822 459.466 572.902 464.331C577.089 471.566 598.277 457.97 590.72 453.22C583.163 448.47 596.114 443.075 599.358 433.194C602.602 423.314 591.042 422.244 590.156 422.106C571.476 418.333 607.444 392.177 599.392 371.45Z" fill="#F22F2F"/>
<path fill-rule="evenodd" clip-rule="evenodd" d="M572.925 454.761C570.901 425.269 560.537 424.694 561.423 431.883C562.308 439.072 566.886 456.038 561.423 450.885C557.512 447.17 553.003 429.145 550.76 419.207C550.425 417.735 549.423 416.502 548.049 415.875C546.675 415.248 545.087 415.298 543.755 416.01C532.621 421.91 506.43 431.515 479.4 410.592C443.742 382.987 479.975 334.907 506.165 348.721C532.356 362.535 531.781 392.177 551.025 373.474C570.268 354.771 591.283 350.734 599.334 371.45C607.386 392.165 571.418 418.368 590.133 422.06C591.03 422.198 602.578 423.268 599.334 433.148C596.091 443.029 583.139 448.423 590.696 453.174C598.253 457.924 577.066 471.52 572.879 464.285C572.845 459.466 572.925 454.761 572.925 454.761V454.761Z" stroke="#1C1C1C" stroke-width="1.5"/>
<path d="M616.255 155.758C616.264 118.772 590.787 86.6557 554.769 78.2485C518.751 69.8413 481.689 87.3596 465.323 120.527C448.956 153.695 457.601 193.767 486.186 217.238C495.249 224.532 500.557 235.511 500.645 247.144V267.952H572.73V247.477C572.748 235.786 578.013 224.719 587.073 217.33C605.564 202.238 616.281 179.626 616.255 155.758Z" fill="#F9B630"/>
<path opacity="0.58" d="M533.576 76.2535C530.862 76.3587 528.156 76.6044 525.467 76.9897C538.66 80.2448 585.371 94.2432 592.767 129.716C601.406 171.125 553.659 199.651 560.561 225.266C567.462 250.882 504.659 246.12 500.668 267.929H572.753V247.477C572.771 235.786 578.036 224.72 587.097 217.33C613.569 195.67 623.235 159.513 611.102 127.532C598.97 95.5517 567.754 74.9045 533.576 76.2535Z" fill="#FC7E1F"/>
<path fill-rule="evenodd" clip-rule="evenodd" d="M616.255 155.758C616.264 118.772 590.787 86.6557 554.769 78.2485C518.751 69.8413 481.689 87.3596 465.323 120.527C448.956 153.695 457.601 193.767 486.186 217.238C495.249 224.532 500.557 235.511 500.645 247.144V267.952H572.73V247.477C572.748 235.786 578.013 224.719 587.073 217.33C605.564 202.238 616.281 179.625 616.255 155.758V155.758Z" stroke="#1C1C1C" stroke-width="1.5"/>
<path d="M500.645 267.929H572.73V285.677C572.73 295.134 568.973 304.203 562.286 310.89C555.599 317.577 546.529 321.334 537.072 321.334H536.394C526.937 321.334 517.867 317.577 511.18 310.89C504.493 304.203 500.737 295.134 500.737 285.677V267.929H500.645Z" fill="#BABABA"/>
<path opacity="0.65" d="M540.834 280.225C542.996 283.963 555.511 284.113 555.948 287.713C556.385 291.313 541.696 290.956 541.409 291.923C541.121 292.889 552.198 301.826 545.147 303.62C538.096 305.415 530.47 310.441 534.358 316.63C538.05 322.507 519.784 316.802 517.921 316.204C523.465 319.584 529.831 321.375 536.325 321.38H537.003C546.46 321.38 555.53 317.623 562.217 310.936C568.904 304.249 572.661 295.18 572.661 285.723V267.929H552.336C549.138 269.528 547.148 270.712 547.148 270.712C547.148 270.712 538.66 276.486 540.834 280.225Z" fill="#898989"/>
<path fill-rule="evenodd" clip-rule="evenodd" d="M500.645 267.929H572.73V285.677C572.73 295.134 568.973 304.203 562.286 310.89C555.599 317.577 546.529 321.334 537.072 321.334H536.394C526.937 321.334 517.867 317.577 511.18 310.89C504.493 304.203 500.737 295.134 500.737 285.677V267.929H500.645Z" stroke="#1C1C1C" stroke-width="1.5"/>
<path d="M493.847 280.225H579.528" stroke="#1C1C1C" stroke-width="1.5" stroke-linecap="round"/>
<path d="M493.847 291.923H579.528" stroke="#1C1C1C" stroke-width="1.5" stroke-linecap="round"/>
<path d="M493.847 303.621H579.528" stroke="#1C1C1C" stroke-width="1.5" stroke-linecap="round"/>
<path d="M536.681 270.839C556.59 270.839 572.73 269.536 572.73 267.929C572.73 266.321 556.59 265.019 536.681 265.019C516.772 265.019 500.633 266.321 500.633 267.929C500.633 269.536 516.772 270.839 536.681 270.839Z" fill="#1C1C1C" stroke="#1C1C1C" stroke-width="1.5"/>
<path d="M532.529 267.929L507.868 164.327C507.868 164.327 525.352 145.325 537.878 155.907C550.404 166.49 541.11 174.311 535.071 169.94C529.032 165.569 553.199 144.256 568.957 161.521C563.988 185.906 544.135 267.273 544.135 267.273" stroke="#1C1C1C" stroke-width="1.5"/>
<path d="M528.019 441.338C528.019 441.338 520.531 465.206 523.982 466.367C527.433 467.529 532.528 465.47 532.528 465.47" fill="#F985C4"/>
<path d="M528.019 441.338C528.019 441.338 520.531 465.206 523.982 466.367C527.433 467.529 532.528 465.47 532.528 465.47" stroke="#1C1C1C" stroke-width="1.5" stroke-linecap="round"/>
<path opacity="0.82" d="M540.891 694.309C538.305 694.314 535.736 694.741 533.288 695.574C539.47 700.167 540.944 708.811 536.634 715.194C532.323 721.576 523.754 723.438 517.185 719.419C517.937 732.325 528.882 742.254 541.8 741.75C554.718 741.245 564.855 730.492 564.598 717.567C564.341 704.641 553.785 694.3 540.856 694.309H540.891Z" fill="white"/>
<path d="M520.13 484.127C520.13 484.127 536.084 485.128 542.421 480.239L520.13 484.127Z" fill="#F985C4"/>
<path d="M520.13 484.127C520.13 484.127 536.084 485.128 542.421 480.239" stroke="#1C1C1C" stroke-width="1.5" stroke-linecap="round"/>
<path d="M633.922 181.81H695.218" stroke="#1C1C1C" stroke-width="1.5" stroke-linecap="round"/>
<path d="M618.992 91.8163L668.004 55.0203" stroke="#1C1C1C" stroke-width="1.5" stroke-linecap="round"/>
<path d="M661.448 283.411L612.425 246.603" stroke="#1C1C1C" stroke-width="1.5" stroke-linecap="round"/>
<path d="M436.174 181.81H374.878" stroke="#1C1C1C" stroke-width="1.5" stroke-linecap="round"/>
<path d="M451.104 91.8163L402.093 55.0203" stroke="#1C1C1C" stroke-width="1.5" stroke-linecap="round"/>
<path d="M408.648 283.411L457.671 246.603" stroke="#1C1C1C" stroke-width="1.5" stroke-linecap="round"/>
<path d="M535.819 60.0698V10.8628" stroke="#1C1C1C" stroke-width="1.5" stroke-linecap="round"/>
<path d="M542.398 475.489C542.398 475.489 541.835 480.952 544.699 483.253L542.398 475.489Z" fill="#F985C4"/>
<path d="M542.398 475.489C542.398 475.489 541.835 480.952 544.699 483.253" stroke="#1C1C1C" stroke-width="1.5" stroke-linecap="round"/>
<path opacity="0.53" d="M760.885 917.949C761.644 917.328 762.392 916.707 763.116 916.086C763.565 915.706 763.991 915.327 764.416 914.936C765.049 914.372 765.67 913.785 766.28 913.256L767.579 912.037C768.143 911.508 768.73 910.979 769.213 910.45L770.489 909.173C770.984 908.667 771.456 908.149 771.939 907.643C772.422 907.137 772.755 906.769 773.146 906.332C773.538 905.895 773.986 905.366 774.4 904.883C775.24 903.916 776.045 902.939 776.804 901.972L777.586 900.983C778.035 900.385 778.461 899.833 778.886 899.2L779.565 898.257C779.99 897.636 780.393 897.026 780.784 896.417L781.325 895.577C781.739 894.922 782.13 894.277 782.475 893.633L782.843 892.989C783.246 892.287 783.637 891.574 783.993 890.861L784.062 890.723C785.742 887.532 787.105 884.184 788.134 880.728C775.274 885.904 758.999 889.458 738.444 890.608C650.669 895.531 543.456 830.462 447.285 807.4C395.041 790.526 345.938 793.091 318.148 802.109C300.975 817.879 297.11 829.715 318.781 817.223C363.122 791.734 390.981 803.857 397.457 809.896C403.933 815.935 410.558 821.399 417.183 826.805C475.684 874.401 538.061 903.042 596.942 917.328L597.322 917.42C598.966 917.823 600.611 918.202 602.256 918.57L602.969 918.731L607.662 919.767L608.582 919.974L613.103 920.905L614.184 921.112C615.645 921.411 617.106 921.688 618.555 921.964L619.705 922.182L623.973 922.941L625.226 923.16L629.413 923.85L630.724 924.045L634.865 924.667L636.154 924.851C637.534 925.046 638.914 925.242 640.283 925.414L641.525 925.575L645.677 926.093L646.828 926.219L651.061 926.68L651.969 926.772L656.409 927.186H656.766C663.422 927.768 669.993 928.171 676.481 928.393H677.067L680.691 928.497H682.278H685.499H687.431H692.55H695.391H697.611L700.337 928.416L702.637 928.336L705.26 928.221L707.56 928.106L710.102 927.956L712.483 927.807L714.945 927.623L717.36 927.439L719.741 927.22L722.18 926.99L724.48 926.76L726.93 926.484L729.231 926.219L731.681 925.909L733.866 925.621L736.35 925.265L738.455 924.954C739.307 924.828 740.146 924.678 740.997 924.54L742.976 924.218L745.621 923.758L747.439 923.424L750.36 922.861L751.833 922.573C753.282 922.274 754.731 921.975 756.169 921.653C757.411 920.721 758.608 919.778 759.781 918.846L760.885 917.949Z" fill="#F743AE"/>
<path d="M471.395 382.538C471.395 382.538 470.969 365.699 480.033 359.867C489.097 354.035 474.638 374.118 482.184 374.337C489.729 374.555 470.532 396.778 471.395 382.538Z" fill="white"/>
<path d="M486.198 363.329C486.198 363.329 490.603 355.807 494.249 358.809C497.896 361.811 484.806 370.023 486.198 363.329Z" fill="white"/>
<path d="M488.614 517.254C488.614 517.254 465.54 533.23 464.459 545.538C463.378 557.845 478.71 527.824 481.712 531.39C484.714 534.956 494.882 512.411 488.614 517.254Z" fill="white"/>
<path d="M460.018 548.471C460.018 548.471 452.185 556.281 452.622 559.525C453.059 562.768 464.424 552.37 460.018 548.471Z" fill="white"/>
<path d="M452.404 671.534C452.404 671.534 439.016 669.809 439.234 678.229C439.453 686.649 445.675 694.206 443.755 702.188C441.834 710.171 456.292 704.627 451.542 686.787C446.791 668.946 461.687 677.803 452.404 671.534Z" fill="white"/>
<path d="M467.725 672.397C467.725 672.397 457.58 669.165 459.098 673.478C460.617 677.792 473.12 679.529 467.725 672.397Z" fill="white"/>
<path d="M316.423 745.782C316.423 745.782 264.662 745.782 248.226 758.734C231.789 771.686 266.388 766.509 275.544 758.734C284.7 750.958 333.481 747.519 316.423 745.782Z" fill="white"/>
<path d="M242.371 772.985C237.059 769.866 230.282 770.951 226.21 775.573C218.434 783.556 254 780.749 242.371 772.985Z" fill="white"/>
<path d="M371.749 780.393C371.749 780.393 393.604 769.293 397.365 775.999C401.126 782.705 367.436 786.144 371.749 780.393Z" fill="white"/>
<path d="M404.267 776.056C404.267 776.056 412.042 774.124 410.317 780.163C408.592 786.201 398.803 777.644 404.267 776.056Z" fill="white"/>
<path d="M672.479 704.742C672.479 704.742 695.484 702.729 695.484 708.768C695.484 714.806 673.112 707.985 675.078 715.094C677.045 722.202 660.977 708.192 672.479 704.742Z" fill="white"/>
<path d="M473.338 772.353C473.338 772.353 463.849 772.353 462.986 778.575C462.123 784.798 487.992 771.846 472.51 773.848" fill="white"/>
<path d="M211.062 799.061C208.439 809.16 207.266 822.215 212.316 835.328" stroke="white" stroke-width="1.5" stroke-linecap="round"/>
<path d="M214.168 789.583C213.65 790.871 213.132 792.252 212.638 793.747" stroke="white" stroke-width="1.5" stroke-linecap="round"/>
<path d="M218.654 780.358C217.687 781.982 216.808 783.656 216.02 785.373" stroke="white" stroke-width="1.5" stroke-linecap="round"/>
<path d="M389.544 664.575C388.715 666.876 387.956 669.176 387.243 671.396" stroke="white" stroke-width="1.5" stroke-linecap="round"/>
<path d="M433.022 586.268C420.968 603.797 404.082 630.184 393.615 654.35" stroke="white" stroke-width="1.5" stroke-linecap="round"/>
<path d="M439.406 577.158L436.737 580.942" stroke="white" stroke-width="1.5" stroke-linecap="round"/>
<path d="M447.378 566.288C447.378 566.288 445.928 568.174 443.467 571.544" stroke="white" stroke-width="1.5" stroke-linecap="round"/>
<path d="M580.057 364.905C581.152 364.472 582.346 364.349 583.507 364.548" stroke="white" stroke-width="1.5" stroke-linecap="round"/>
<path d="M517.898 366.711C521.689 370.989 524.853 375.783 527.296 380.951C536.291 399.354 559.79 376.764 574.34 367.792" stroke="white" stroke-width="1.5" stroke-linecap="round"/>
<path d="M511.905 361.213C512.825 361.903 513.78 362.685 514.758 363.571" stroke="white" stroke-width="1.5" stroke-linecap="round"/>
<path d="M500.645 355.91C502.369 356.206 504.044 356.736 505.625 357.486" stroke="white" stroke-width="1.5" stroke-linecap="round"/>
<path d="M524.65 543.456C526.353 548.942 529.849 554.958 536.935 554.303" stroke="white" stroke-width="1.5" stroke-linecap="round"/>
<path d="M523.075 535.197C523.182 536.599 523.37 537.993 523.638 539.372" stroke="white" stroke-width="1.5" stroke-linecap="round"/>
<path d="M503.129 671.396H552.336" stroke="white" stroke-width="1.5" stroke-linecap="round"/>
<path d="M487.049 671.396H494.813" stroke="white" stroke-width="1.5" stroke-linecap="round"/>
<path d="M475.639 671.396H480.999" stroke="white" stroke-width="1.5" stroke-linecap="round"/>
<path d="M507.661 772.352H559.675" stroke="white" stroke-width="1.5" stroke-linecap="round"/>
<path d="M493.341 772.352H499.529" stroke="white" stroke-width="1.5" stroke-linecap="round"/>
<path d="M480.538 772.352H486.197" stroke="white" stroke-width="1.5" stroke-linecap="round"/>
<path d="M717.233 712.069C726.205 715.151 737.489 720.12 746.15 727.436" stroke="white" stroke-width="1.5" stroke-linecap="round"/>
<path d="M702.12 707.87C702.12 707.87 705.019 708.422 709.516 709.676" stroke="white" stroke-width="1.5" stroke-linecap="round"/>
<path d="M756.146 781.647C756.146 781.647 767.499 780.864 774.734 763.45C781.969 746.035 784.914 780.059 772.249 790.526C759.585 800.994 745.909 787.087 756.146 781.647Z" fill="white"/>
<path d="M784.247 779.91C784.247 779.91 778.013 790.63 781.199 791.343C784.385 792.056 790.343 778.035 784.247 779.91Z" fill="white"/>
<path d="M737.524 797.462C740.467 796.655 743.337 795.605 746.105 794.322" stroke="white"/>
<path d="M718.913 800.901C722.605 800.476 726.171 799.947 729.553 799.314" stroke="white"/>
<path d="M651.406 801.166C664.404 802.097 688.662 803.317 710.62 801.672" stroke="white"/>
<path d="M641.905 800.395L645.586 800.717" stroke="white"/>
<path d="M328.259 802.65C326.856 803.708 325.43 804.827 323.98 806.008" stroke="white"/>
<path d="M361.098 784.994C361.098 784.994 349.757 787.524 332.986 799.211" stroke="white"/>
<path d="M761.104 689.513C762.186 692.756 763.248 696.119 764.291 699.6" stroke="#1C1C1C"/>
<path d="M754.709 672.098C755.675 674.483 756.63 676.944 757.573 679.483" stroke="#1C1C1C"/>
<path d="M709.516 605.925C709.516 605.925 731.968 619.176 752.316 666.347" stroke="#1C1C1C"/>
<path d="M569.072 542.616C568.739 544.031 568.336 545.492 567.922 546.999" stroke="#1C1C1C"/>
<path d="M570.039 520.578C570.039 520.578 571.615 526.708 570.223 536.612" stroke="#1C1C1C"/>
<path d="M420.474 737.109C421.362 736.134 422.199 735.113 422.981 734.05" stroke="#1C1C1C"/>
<path d="M413.952 742.757C415.102 741.952 416.253 741.101 417.265 740.192" stroke="#1C1C1C"/>
<path d="M367.437 756.203C367.437 756.203 389.751 755.709 407.499 746.633" stroke="#1C1C1C"/>
<path d="M845.738 856.136C841.609 867.074 832.787 878.853 815.223 888.883" stroke="#1C1C1C"/>
<path d="M848.879 835.627C849.06 839.086 848.895 842.554 848.384 845.979" stroke="#1C1C1C"/>
<path d="M845.727 820.398C846.591 822.554 847.261 824.783 847.728 827.058" stroke="#1C1C1C"/>
<path d="M837.388 762.783C837.388 762.783 874.195 785.971 877.094 827.069" stroke="#1C1C1C"/>
<path d="M340.164 596.505C340.164 596.505 292.901 644.067 300.377 705.777" stroke="#1C1C1C"/>
<path d="M182.387 808.263C182.387 808.263 185.619 864.095 225.152 885.386" stroke="#1C1C1C"/>
<path d="M665.899 537.291C665.899 537.291 696.369 556.787 702.12 566.288" stroke="#1C1C1C"/>
<path d="M536.682 84.2478C536.682 84.2478 505.096 79.9344 486.198 107.126C467.3 134.317 488.234 128.474 493.41 118.122C498.586 107.77 512.619 91.1377 535.819 93.3001C559.019 95.4626 544.549 84.4203 536.682 84.2478Z" fill="white"/>
<path d="M481.32 135.836C481.32 135.836 472.694 130.441 468.369 141.449C464.044 152.457 472.038 159.139 476.582 156.988C481.125 154.838 487.589 134.973 481.32 135.836Z" fill="white"/>
<path d="M508.099 241.922C508.214 244.222 508.168 245.58 508.168 245.58" stroke="white" stroke-width="1.5" stroke-linecap="round"/>
<path d="M476.662 195.004C479.867 200.473 484.689 204.813 490.465 207.426C501.887 212.614 505.982 225.646 507.442 235.032" stroke="white" stroke-width="1.5" stroke-linecap="round"/>
<path d="M471.82 182.616C472.283 184.621 472.87 186.596 473.58 188.528" stroke="white" stroke-width="1.5" stroke-linecap="round"/>
<path d="M470.451 169.94C470.394 171.995 470.482 174.052 470.716 176.094" stroke="white" stroke-width="1.5" stroke-linecap="round"/>
<path d="M505.177 272.023C505.177 272.023 502.37 274.404 503.129 277.314C503.888 280.225 509.927 274.508 511.871 275.911C513.815 277.314 513.803 270.517 505.177 272.023Z" fill="white"/>
<path d="M503.336 283.411C503.336 283.411 502.473 289.288 505.28 289.61C508.086 289.933 506.039 283.043 503.336 283.411Z" fill="white"/>
<path d="M515.529 273.749C515.361 274.511 515.522 275.309 515.973 275.946C516.424 276.583 517.123 277.001 517.898 277.096C520.82 277.533 519.854 273.645 515.529 273.749Z" fill="white"/>
<path d="M506.626 295.879C506.626 295.879 513.056 318.217 541.133 316.377" stroke="white" stroke-width="1.5" stroke-linecap="round"/>
<path d="M552.727 440.594C552.803 438.677 548.738 436.959 543.647 436.756C538.557 436.554 534.368 437.943 534.292 439.86C534.215 441.777 538.28 443.496 543.371 443.698C548.462 443.901 552.65 442.511 552.727 440.594Z" fill="white" stroke="#161616" stroke-width="1.5"/>
<path d="M543.629 443.04C545.439 443.04 546.907 441.573 546.907 439.762C546.907 437.952 545.439 436.484 543.629 436.484C541.818 436.484 540.351 437.952 540.351 439.762C540.351 441.573 541.818 443.04 543.629 443.04Z" fill="#161616"/>
<path d="M523.116 439.588C523.193 437.671 519.128 435.953 514.037 435.75C508.946 435.547 504.757 436.937 504.681 438.854C504.605 440.771 508.67 442.489 513.761 442.692C518.851 442.895 523.04 441.505 523.116 439.588Z" fill="white" stroke="#161616" stroke-width="1.5"/>
<path d="M513.86 442.063C515.671 442.063 517.138 440.595 517.138 438.785C517.138 436.974 515.671 435.506 513.86 435.506C512.05 435.506 510.582 436.974 510.582 438.785C510.582 440.595 512.05 442.063 513.86 442.063Z" fill="#161616"/>
</svg>
